%TF.GenerationSoftware,KiCad,Pcbnew,(7.0.0-0)*%
%TF.CreationDate,2023-02-16T00:42:25+04:00*%
%TF.ProjectId,hillside46,68696c6c-7369-4646-9534-362e6b696361,0.1.0*%
%TF.SameCoordinates,Original*%
%TF.FileFunction,Legend,Top*%
%TF.FilePolarity,Positive*%
%FSLAX46Y46*%
G04 Gerber Fmt 4.6, Leading zero omitted, Abs format (unit mm)*
G04 Created by KiCad (PCBNEW (7.0.0-0)) date 2023-02-16 00:42:25*
%MOMM*%
%LPD*%
G01*
G04 APERTURE LIST*
G04 Aperture macros list*
%AMRoundRect*
0 Rectangle with rounded corners*
0 $1 Rounding radius*
0 $2 $3 $4 $5 $6 $7 $8 $9 X,Y pos of 4 corners*
0 Add a 4 corners polygon primitive as box body*
4,1,4,$2,$3,$4,$5,$6,$7,$8,$9,$2,$3,0*
0 Add four circle primitives for the rounded corners*
1,1,$1+$1,$2,$3*
1,1,$1+$1,$4,$5*
1,1,$1+$1,$6,$7*
1,1,$1+$1,$8,$9*
0 Add four rect primitives between the rounded corners*
20,1,$1+$1,$2,$3,$4,$5,0*
20,1,$1+$1,$4,$5,$6,$7,0*
20,1,$1+$1,$6,$7,$8,$9,0*
20,1,$1+$1,$8,$9,$2,$3,0*%
%AMRotRect*
0 Rectangle, with rotation*
0 The origin of the aperture is its center*
0 $1 length*
0 $2 width*
0 $3 Rotation angle, in degrees counterclockwise*
0 Add horizontal line*
21,1,$1,$2,0,0,$3*%
%AMFreePoly0*
4,1,19,0.500000,-0.750000,0.000000,-0.750000,0.000000,-0.744911,-0.071157,-0.744911,-0.207708,-0.704816,-0.327430,-0.627875,-0.420627,-0.520320,-0.479746,-0.390866,-0.500000,-0.250000,-0.500000,0.250000,-0.479746,0.390866,-0.420627,0.520320,-0.327430,0.627875,-0.207708,0.704816,-0.071157,0.744911,0.000000,0.744911,0.000000,0.750000,0.500000,0.750000,0.500000,-0.750000,0.500000,-0.750000,
$1*%
%AMFreePoly1*
4,1,19,0.000000,0.744911,0.071157,0.744911,0.207708,0.704816,0.327430,0.627875,0.420627,0.520320,0.479746,0.390866,0.500000,0.250000,0.500000,-0.250000,0.479746,-0.390866,0.420627,-0.520320,0.327430,-0.627875,0.207708,-0.704816,0.071157,-0.744911,0.000000,-0.744911,0.000000,-0.750000,-0.500000,-0.750000,-0.500000,0.750000,0.000000,0.750000,0.000000,0.744911,0.000000,0.744911,
$1*%
%AMFreePoly2*
4,1,41,0.142350,0.531259,0.275000,0.476314,0.388909,0.388909,0.476314,0.275000,0.531259,0.142350,0.533280,0.127000,3.200000,0.127000,3.235780,0.121856,3.295980,0.083167,3.325707,0.018074,3.315523,-0.052758,3.268661,-0.106839,3.200000,-0.127000,0.533280,-0.127000,0.531259,-0.142350,0.476314,-0.275000,0.388909,-0.388909,0.275000,-0.476314,0.142350,-0.531259,0.000000,-0.550000,
-0.142350,-0.531259,-0.275000,-0.476314,-0.388909,-0.388909,-0.476314,-0.275000,-0.531259,-0.142350,-0.533280,-0.127000,-3.200000,-0.127000,-3.235780,-0.121856,-3.295980,-0.083167,-3.325707,-0.018074,-3.315523,0.052758,-3.268661,0.106839,-3.200000,0.127000,-0.533280,0.127000,-0.531259,0.142350,-0.476314,0.275000,-0.388909,0.388909,-0.275000,0.476314,-0.142350,0.531259,0.000000,0.550000,
0.142350,0.531259,0.142350,0.531259,$1*%
%AMFreePoly3*
4,1,36,0.118775,3.448939,0.171635,3.382655,0.190499,3.300000,0.190500,0.775574,0.347107,0.720775,0.498792,0.625465,0.625465,0.498792,0.720775,0.347107,0.779942,0.178017,0.800000,0.000000,0.779942,-0.178017,0.720775,-0.347107,0.625465,-0.498792,0.498792,-0.625465,0.347107,-0.720775,0.178017,-0.779942,0.000000,-0.800000,-0.178017,-0.779942,-0.347107,-0.720775,-0.498792,-0.625465,
-0.625465,-0.498792,-0.720775,-0.347107,-0.779942,-0.178017,-0.800000,0.000000,-0.779942,0.178017,-0.720775,0.347107,-0.625465,0.498792,-0.498792,0.625465,-0.347107,0.720775,-0.190500,0.775574,-0.190500,3.300000,-0.171635,3.382655,-0.118775,3.448939,-0.042390,3.485724,0.042390,3.485724,0.118775,3.448939,0.118775,3.448939,$1*%
%AMFreePoly4*
4,1,225,15.061386,0.521732,15.101352,0.481766,15.120019,0.428417,15.113691,0.372252,15.083620,0.324396,14.918411,0.181127,14.734587,0.062682,14.535851,-0.028554,14.326203,-0.090745,14.109863,-0.122638,13.891187,-0.123592,13.674577,-0.093587,13.464394,-0.033227,13.264869,0.056272,13.080020,0.173109,12.993839,0.246537,12.918412,0.181127,12.734589,0.062682,12.535853,-0.028555,12.326204,-0.090746,
12.109864,-0.122639,11.891188,-0.123593,11.674578,-0.093588,11.464395,-0.033229,11.264870,0.056270,11.080021,0.173107,10.993840,0.246535,10.918415,0.181126,10.734592,0.062681,10.535855,-0.028556,10.326206,-0.090747,10.109866,-0.122641,9.891190,-0.123595,9.674579,-0.093590,9.464396,-0.033231,9.264871,0.056268,9.080021,0.173105,8.993839,0.246533,8.918416,0.181127,8.734593,0.062683,
8.535857,-0.028553,8.326209,-0.090743,8.109869,-0.122635,7.891194,-0.123589,7.674584,-0.093583,7.464402,-0.033223,7.264878,0.056276,7.080029,0.173113,6.993850,0.246540,6.918419,0.181127,6.734596,0.062682,6.535859,-0.028554,6.326211,-0.090744,6.109871,-0.122637,5.891195,-0.123591,5.674586,-0.093586,5.464403,-0.033226,5.264879,0.056274,5.080029,0.173111,4.993849,0.246538,
4.918421,0.181127,4.734597,0.062682,4.535861,-0.028554,4.326213,-0.090745,4.109873,-0.122638,3.891197,-0.123592,3.674587,-0.093587,3.464404,-0.033227,3.264879,0.056272,3.080030,0.173109,2.993849,0.246537,2.918422,0.181127,2.734599,0.062682,2.535863,-0.028555,2.326214,-0.090746,2.109874,-0.122639,1.891198,-0.123593,1.674588,-0.093588,1.464405,-0.033229,1.264880,0.056270,
1.080031,0.173107,0.994423,0.246047,0.933833,0.192834,0.768304,0.081712,0.589815,-0.007114,0.401354,-0.072156,0.206074,-0.112327,0.007242,-0.126955,0.003350,-0.126102,0.000000,-0.127000,-0.033398,-0.118050,-0.047968,-0.114859,-0.049347,-0.113777,-0.063500,-0.109985,-0.109985,-0.063500,-0.127000,0.000000,-0.109985,0.063500,-0.063500,0.109985,-0.050634,0.113432,-0.049962,0.113979,
-0.037969,0.116826,0.000000,0.127000,0.002294,0.126385,0.005030,0.127036,0.105213,0.127821,0.302894,0.160544,0.493133,0.223456,0.671349,0.315043,0.833249,0.433099,0.904031,0.504002,0.951888,0.534072,1.008053,0.540399,1.061402,0.521731,1.079695,0.503436,1.091609,0.496095,1.163434,0.425451,1.327367,0.308303,1.507528,0.218084,1.699532,0.156993,1.898702,0.126515,
2.100189,0.127394,2.299085,0.159608,2.490549,0.222373,2.669916,0.314160,2.832821,0.432734,2.904028,0.504001,2.951885,0.534071,3.008050,0.540399,3.061398,0.521732,3.079685,0.503444,3.091609,0.496097,3.163434,0.425453,3.327366,0.308304,3.507527,0.218086,3.699531,0.156994,3.898701,0.126516,4.100187,0.127395,4.299084,0.159609,4.490547,0.222373,4.669915,0.314160,
4.832819,0.432733,4.904026,0.504001,4.951883,0.534071,5.008048,0.540399,5.061396,0.521732,5.079674,0.503453,5.091608,0.496098,5.163433,0.425454,5.327365,0.308306,5.507527,0.218087,5.699530,0.156995,5.898700,0.126517,6.100186,0.127396,6.299082,0.159609,6.490546,0.222373,6.669913,0.314160,6.832818,0.432733,6.904024,0.504001,6.951881,0.534071,7.008046,0.540399,
7.061394,0.521732,7.079666,0.503459,7.091609,0.496101,7.163434,0.425457,7.327365,0.308308,7.507526,0.218090,7.699529,0.156997,7.898699,0.126519,8.100185,0.127398,8.299081,0.159611,8.490544,0.222375,8.669911,0.314161,8.832815,0.432734,8.904022,0.504001,8.951879,0.534071,9.008044,0.540399,9.061393,0.521732,9.079698,0.503426,9.091598,0.496093,9.163424,0.425449,
9.327357,0.308300,9.507519,0.218082,9.699523,0.156990,9.898693,0.126513,10.100180,0.127392,10.299077,0.159606,10.490541,0.222371,10.669909,0.314158,10.832813,0.432733,10.904019,0.504001,10.951877,0.534071,11.008041,0.540399,11.061390,0.521732,11.079685,0.503436,11.091599,0.496095,11.163424,0.425451,11.327357,0.308303,11.507518,0.218084,11.699522,0.156993,11.898692,0.126515,
12.100179,0.127394,12.299075,0.159608,12.490539,0.222373,12.669906,0.314160,12.832811,0.432734,12.904018,0.504001,12.951875,0.534071,13.008040,0.540399,13.061388,0.521732,13.079675,0.503444,13.091599,0.496097,13.163424,0.425453,13.327356,0.308304,13.507517,0.218086,13.699521,0.156994,13.898691,0.126516,14.100177,0.127395,14.299074,0.159609,14.490537,0.222373,14.669905,0.314160,
14.832809,0.432733,14.904016,0.504001,14.951873,0.534071,15.008038,0.540399,15.061386,0.521732,15.061386,0.521732,$1*%
%AMFreePoly5*
4,1,202,0.063500,0.109985,0.081645,0.091839,0.097780,0.081896,0.169605,0.011253,0.333538,-0.105895,0.513699,-0.196114,0.705702,-0.257206,0.904872,-0.287683,1.106359,-0.286804,1.305255,-0.254590,1.496718,-0.191826,1.676085,-0.100039,1.838989,0.018535,1.910196,0.089803,1.958053,0.119873,2.014218,0.126201,2.067566,0.107534,2.085846,0.089253,2.097781,0.081899,2.169606,0.011255,
2.333538,-0.105893,2.513699,-0.196111,2.705702,-0.257203,2.904871,-0.287681,3.106357,-0.286802,3.305253,-0.254588,3.496716,-0.191824,3.676083,-0.100038,3.838987,0.018536,3.910194,0.089803,3.958051,0.119873,4.014216,0.126201,4.067564,0.107534,4.085836,0.089261,4.097781,0.081900,4.169605,0.011257,4.333537,-0.105892,4.513698,-0.196110,4.705701,-0.257202,4.904870,-0.287680,
5.106356,-0.286801,5.305252,-0.254588,5.496714,-0.191824,5.676082,-0.100038,5.838986,0.018536,5.910192,0.089803,5.958049,0.119873,6.014214,0.126201,6.067562,0.107534,6.099827,0.075268,6.112312,0.067843,6.112313,0.067845,6.184573,-0.000873,6.348458,-0.114523,6.527892,-0.201575,6.718593,-0.259952,6.916009,-0.288260,7.115430,-0.285824,7.312096,-0.252703,7.501314,-0.189686,
7.678569,-0.098277,7.839629,0.019341,7.910190,0.089803,7.958047,0.119873,8.014212,0.126201,8.067561,0.107534,8.098303,0.076790,8.110687,0.069397,8.182914,0.000482,8.346805,-0.113554,8.526319,-0.200954,8.717163,-0.259630,8.914771,-0.288178,9.114419,-0.285914,9.311329,-0.252892,9.500794,-0.189904,9.678279,-0.098455,9.839542,0.019268,9.910188,0.089803,9.958045,0.119873,
10.014210,0.126201,10.067559,0.107534,10.087410,0.087682,10.099384,0.080333,10.171245,0.009887,10.335177,-0.106873,10.515262,-0.196740,10.707124,-0.257530,10.906102,-0.287766,11.107362,-0.286714,11.306013,-0.254398,11.497229,-0.191605,11.676364,-0.099859,11.839066,0.018609,11.910186,0.089803,11.958043,0.119873,12.014208,0.126201,12.067557,0.107534,12.085798,0.089291,12.097781,0.081909,
12.169605,0.011265,12.333535,-0.105883,12.513695,-0.196102,12.705697,-0.257195,12.904865,-0.287673,13.106350,-0.286796,13.305245,-0.254583,13.496707,-0.191820,13.676074,-0.100035,13.838978,0.018537,13.910184,0.089803,13.958041,0.119873,14.014206,0.126201,14.067555,0.107534,14.107520,0.067567,14.126188,0.014219,14.119859,-0.041946,14.089787,-0.089803,13.924578,-0.233070,13.740756,-0.351513,
13.542020,-0.442748,13.332373,-0.504937,13.116034,-0.536829,12.897359,-0.537781,12.680751,-0.507775,12.470570,-0.447415,12.271047,-0.357915,12.086199,-0.241078,12.000027,-0.167656,11.924776,-0.232924,11.741187,-0.351279,11.542709,-0.442491,11.333330,-0.504727,11.117255,-0.536738,10.898825,-0.537881,10.682427,-0.508131,10.472408,-0.448088,10.272987,-0.358958,10.088170,-0.242529,10.000064,-0.167713,
9.926147,-0.231896,9.744189,-0.349629,9.547514,-0.440675,9.340013,-0.503232,9.125789,-0.536064,8.909077,-0.538522,8.694163,-0.510556,8.485297,-0.452720,8.286608,-0.366158,8.102027,-0.252581,7.999888,-0.167879,7.926344,-0.231749,7.744619,-0.349393,7.548202,-0.440414,7.340969,-0.503017,7.127009,-0.535965,6.910543,-0.538609,6.695842,-0.510896,6.487143,-0.453374,6.288561,-0.367177,
6.104016,-0.254006,5.999784,-0.167860,5.924587,-0.233071,5.740764,-0.351515,5.542028,-0.442751,5.332380,-0.504941,5.116041,-0.536834,4.897365,-0.537788,4.680756,-0.507783,4.470574,-0.447423,4.271050,-0.357924,4.086201,-0.241087,4.000019,-0.167657,3.924589,-0.233071,3.740766,-0.351515,3.542030,-0.442751,3.332382,-0.504942,3.116043,-0.536835,2.897367,-0.537789,2.680757,-0.507784,
2.470575,-0.447424,2.271051,-0.357925,2.086202,-0.241089,2.000020,-0.167659,1.924591,-0.233072,1.740768,-0.351516,1.542032,-0.442753,1.332384,-0.504944,1.116044,-0.536837,0.897368,-0.537791,0.680759,-0.507786,0.470576,-0.447427,0.271051,-0.357928,0.086202,-0.241091,-0.080251,-0.099269,-0.091004,-0.082480,-0.109985,-0.063500,-0.127000,0.000000,-0.109985,0.063500,-0.063500,0.109985,
0.000000,0.127000,0.063500,0.109985,0.063500,0.109985,$1*%
%AMFreePoly6*
4,1,74,3.244632,0.331818,3.506852,0.292599,3.763564,0.226297,4.011980,0.133633,4.048176,0.107042,4.089074,0.099399,4.214413,0.045093,4.476203,-0.033026,4.745423,-0.079465,5.018255,-0.093564,5.290829,-0.075124,5.559276,-0.024406,5.819789,0.057871,5.944247,0.114165,5.999633,0.125432,6.054423,0.111553,6.097765,0.075275,6.121074,0.023785,6.119734,-0.032719,6.094011,-0.083047,
6.048998,-0.117229,5.802089,-0.213835,5.546464,-0.284215,5.284902,-0.327603,5.020245,-0.343528,4.755368,-0.331818,4.493148,-0.292599,4.236436,-0.226297,3.988020,-0.133633,3.951823,-0.107042,3.910926,-0.099399,3.785587,-0.045093,3.523797,0.033026,3.254577,0.079465,2.981745,0.093564,2.709171,0.075124,2.440724,0.024406,2.180211,-0.057871,2.055753,-0.114165,2.052038,-0.114920,
2.048998,-0.117229,1.802089,-0.213835,1.546464,-0.284215,1.284902,-0.327603,1.020245,-0.343528,0.755368,-0.331818,0.493148,-0.292599,0.236436,-0.226297,-0.011980,-0.133633,-0.033071,-0.118138,-0.063500,-0.109985,-0.109985,-0.063500,-0.127000,0.000000,-0.109985,0.063500,-0.063500,0.109985,0.000000,0.127000,0.063500,0.109985,0.070641,0.102843,0.089074,0.099399,0.214413,0.045093,
0.476203,-0.033026,0.745423,-0.079465,1.018255,-0.093564,1.290829,-0.075124,1.559276,-0.024406,1.819789,0.057871,1.944247,0.114165,1.947961,0.114920,1.951002,0.117229,2.197911,0.213835,2.453536,0.284215,2.715098,0.327603,2.979755,0.343528,3.244632,0.331818,3.244632,0.331818,$1*%
%AMFreePoly7*
4,1,68,0.237250,1.721487,0.374047,1.649691,0.489686,1.547243,0.531343,1.486891,0.554756,1.483183,0.658279,1.430436,0.740436,1.348279,0.793183,1.244756,0.811359,1.130000,0.793183,1.015244,0.740436,0.911721,0.670111,0.841396,0.693183,0.796115,0.711359,0.681359,0.693183,0.566603,0.640436,0.463080,0.558279,0.380923,0.454756,0.328176,0.340000,0.310000,0.294287,0.317240,
0.127000,0.135193,0.127000,-0.587846,0.211346,-0.711884,0.214345,-0.726349,0.220000,-0.740000,0.218118,-0.744542,0.219116,-0.749355,0.211010,-0.761702,0.205355,-0.775355,0.200812,-0.777236,0.198115,-0.781346,0.183651,-0.784345,0.170000,-0.790000,-0.120000,-0.790000,-0.130398,-0.785692,-0.141637,-0.785076,-0.147390,-0.778654,-0.155355,-0.775355,-0.159661,-0.764957,-0.167173,-0.756574,
-0.166700,-0.747965,-0.170000,-0.740000,-0.165692,-0.729601,-0.165076,-0.718363,-0.127000,-0.639038,-0.127000,0.104135,-0.395566,0.365633,-0.469983,0.377420,-0.569200,0.427973,-0.647940,0.506713,-0.698493,0.605930,-0.715913,0.715913,-0.698493,0.825896,-0.673555,0.874840,-0.710436,0.911721,-0.763183,1.015244,-0.781359,1.130000,-0.763183,1.244756,-0.710436,1.348279,-0.628279,1.430436,
-0.524756,1.483183,-0.512571,1.485112,-0.469686,1.547243,-0.354047,1.649691,-0.217250,1.721487,-0.067246,1.758459,0.087246,1.758459,0.237250,1.721487,0.237250,1.721487,$1*%
%AMFreePoly8*
4,1,32,9.085780,4.561856,9.145980,4.523167,9.175707,4.458074,9.165523,4.387242,9.118661,4.333161,9.050000,4.313000,7.092605,4.313000,2.689803,-0.089803,2.671644,-0.103395,2.668661,-0.106839,2.666001,-0.107619,2.660865,-0.111465,2.630156,-0.118145,2.600000,-0.127000,-0.762000,-0.127000,-3.450000,-0.127000,-3.485780,-0.121856,-3.545980,-0.083167,-3.575707,-0.018074,-3.565523,0.052758,
-3.518661,0.106839,-3.450000,0.127000,2.547394,0.127000,6.950197,4.529802,6.968354,4.543394,6.971339,4.546839,6.973998,4.547619,6.979135,4.551465,7.009843,4.558145,7.040000,4.567000,9.050000,4.567000,9.085780,4.561856,9.085780,4.561856,$1*%
%AMFreePoly9*
4,1,32,7.835780,3.521856,7.895980,3.483167,7.925707,3.418074,7.915523,3.347242,7.868661,3.293161,7.800000,3.273000,6.402605,3.273000,3.039803,-0.089803,3.021644,-0.103395,3.018661,-0.106839,3.016001,-0.107619,3.010865,-0.111465,2.980156,-0.118145,2.950000,-0.127000,-0.762000,-0.127000,-2.800000,-0.127000,-2.835780,-0.121856,-2.895980,-0.083167,-2.925707,-0.018074,-2.915523,0.052758,
-2.868661,0.106839,-2.800000,0.127000,2.897394,0.127000,6.260197,3.489802,6.278354,3.503394,6.281339,3.506839,6.283998,3.507619,6.289135,3.511465,6.319843,3.518145,6.350000,3.527000,7.800000,3.527000,7.835780,3.521856,7.835780,3.521856,$1*%
%AMFreePoly10*
4,1,36,-0.382313,0.442676,-0.365044,0.435750,-0.364806,0.435193,-0.364250,0.434956,-0.127000,0.192314,-0.127000,0.250000,0.127000,0.250000,0.127000,-0.067459,0.185750,-0.127544,0.192765,-0.145033,0.200000,-0.162500,0.200000,-0.750000,0.185355,-0.785355,0.150000,-0.800000,-0.300000,-0.800000,-0.335355,-0.785355,-0.350000,-0.750000,-0.350000,-0.400000,-0.650000,-0.400000,-0.650000,-0.750000,
-0.664645,-0.785355,-0.700000,-0.800000,-0.950000,-0.800000,-0.985355,-0.785355,-1.000000,-0.750000,-1.000000,-0.162500,-0.992765,-0.145033,-0.985750,-0.127544,-0.435750,0.434956,-0.435193,0.435193,-0.434956,0.435750,-0.417686,0.442676,-0.400562,0.449996,-0.400000,0.449770,-0.399438,0.449996,-0.382313,0.442676,-0.382313,0.442676,$1*%
%AMFreePoly11*
4,1,74,0.237250,1.721487,0.374047,1.649691,0.489686,1.547243,0.531343,1.486891,0.554756,1.483183,0.658279,1.430436,0.740436,1.348279,0.793183,1.244756,0.811359,1.130000,0.793183,1.015244,0.742519,0.915809,0.751359,0.860000,0.733183,0.745244,0.680436,0.641721,0.598279,0.559564,0.494756,0.506817,0.380000,0.488641,0.376840,0.489141,0.127000,0.190090,0.127000,-0.587846,
0.211346,-0.711884,0.214345,-0.726349,0.220000,-0.740000,0.218118,-0.744542,0.219116,-0.749355,0.211010,-0.761702,0.205355,-0.775355,0.200812,-0.777236,0.198115,-0.781346,0.183651,-0.784345,0.170000,-0.790000,-0.120000,-0.790000,-0.130398,-0.785692,-0.141637,-0.785076,-0.147390,-0.778654,-0.155355,-0.775355,-0.159661,-0.764957,-0.167173,-0.756574,-0.166700,-0.747965,-0.170000,-0.740000,
-0.165692,-0.729601,-0.165076,-0.718363,-0.127000,-0.639038,-0.127000,0.213345,-0.320215,0.401475,-0.430000,0.384087,-0.539983,0.401507,-0.639200,0.452060,-0.717940,0.530800,-0.768493,0.630017,-0.780961,0.708733,-0.477568,0.708733,-0.472794,0.697206,-0.466729,0.694694,-0.469686,0.697313,-0.477568,0.708733,-0.780961,0.708733,-0.785913,0.740000,-0.768493,0.849983,-0.737725,0.910369,
-0.799077,0.971721,-0.851824,1.075244,-0.870000,1.190000,-0.851824,1.304756,-0.799077,1.408279,-0.716920,1.490436,-0.613397,1.543183,-0.498641,1.561359,-0.460560,1.555327,-0.354047,1.649691,-0.217250,1.721487,-0.067246,1.758459,0.087246,1.758459,0.237250,1.721487,0.237250,1.721487,$1*%
%AMFreePoly12*
4,1,66,0.237250,1.721487,0.374047,1.649691,0.489686,1.547243,0.531343,1.486891,0.554756,1.483183,0.658279,1.430436,0.740436,1.348279,0.793183,1.244756,0.811359,1.130000,0.793183,1.015244,0.742519,0.915809,0.751359,0.860000,0.733183,0.745244,0.680436,0.641721,0.598279,0.559564,0.494756,0.506817,0.380000,0.488641,0.323760,0.497548,0.127000,0.283428,0.127000,-0.587846,
0.211346,-0.711884,0.214345,-0.726349,0.220000,-0.740000,0.218118,-0.744542,0.219116,-0.749355,0.211010,-0.761702,0.205355,-0.775355,0.200812,-0.777236,0.198115,-0.781346,0.183651,-0.784345,0.170000,-0.790000,-0.120000,-0.790000,-0.130398,-0.785692,-0.141637,-0.785076,-0.147390,-0.778654,-0.155355,-0.775355,-0.159661,-0.764957,-0.167173,-0.756574,-0.166700,-0.747965,-0.170000,-0.740000,
-0.165692,-0.729601,-0.165076,-0.718363,-0.127000,-0.639038,-0.127000,0.293608,-0.245184,0.408682,-0.300000,0.400000,-0.409983,0.417420,-0.509200,0.467973,-0.587940,0.546713,-0.638493,0.645930,-0.655913,0.755913,-0.642064,0.843349,-0.710436,0.911721,-0.763183,1.015244,-0.781359,1.130000,-0.763183,1.244756,-0.710436,1.348279,-0.628279,1.430436,-0.524756,1.483183,-0.512571,1.485112,
-0.469686,1.547243,-0.354047,1.649691,-0.217250,1.721487,-0.067246,1.758459,0.087246,1.758459,0.237250,1.721487,0.237250,1.721487,$1*%
%AMFreePoly13*
4,1,74,0.237250,1.721487,0.374047,1.649691,0.489686,1.547243,0.531343,1.486891,0.554756,1.483183,0.658279,1.430436,0.740436,1.348279,0.793183,1.244756,0.811359,1.130000,0.793183,1.015244,0.742519,0.915809,0.751359,0.860000,0.733183,0.745244,0.680436,0.641721,0.598279,0.559564,0.494756,0.506817,0.380000,0.488641,0.323760,0.497548,0.127000,0.283428,0.127000,-0.587846,
0.211346,-0.711884,0.214345,-0.726349,0.220000,-0.740000,0.218118,-0.744542,0.219116,-0.749355,0.211010,-0.761702,0.205355,-0.775355,0.200812,-0.777236,0.198115,-0.781346,0.183651,-0.784345,0.170000,-0.790000,-0.120000,-0.790000,-0.130398,-0.785692,-0.141637,-0.785076,-0.147390,-0.778654,-0.155355,-0.775355,-0.159661,-0.764957,-0.167173,-0.756574,-0.166700,-0.747965,-0.170000,-0.740000,
-0.165692,-0.729601,-0.165076,-0.718363,-0.127000,-0.639038,-0.127000,0.293609,-0.266053,0.429002,-0.320017,0.401507,-0.430000,0.384087,-0.539983,0.401507,-0.639200,0.452060,-0.717940,0.530800,-0.768493,0.630017,-0.780961,0.708733,-0.477568,0.708733,-0.472794,0.697206,-0.466729,0.694694,-0.469686,0.697313,-0.477568,0.708733,-0.780961,0.708733,-0.785913,0.740000,-0.768493,0.849983,
-0.723736,0.937824,-0.763183,1.015244,-0.781359,1.130000,-0.763183,1.244756,-0.710436,1.348279,-0.628279,1.430436,-0.524756,1.483183,-0.512571,1.485112,-0.469686,1.547243,-0.354047,1.649691,-0.217250,1.721487,-0.067246,1.758459,0.087246,1.758459,0.237250,1.721487,0.237250,1.721487,$1*%
%AMFreePoly14*
4,1,6,1.000000,0.000000,0.500000,-0.750000,-0.500000,-0.750000,-0.500000,0.750000,0.500000,0.750000,1.000000,0.000000,1.000000,0.000000,$1*%
%AMFreePoly15*
4,1,6,0.500000,-0.750000,-0.650000,-0.750000,-0.150000,0.000000,-0.650000,0.750000,0.500000,0.750000,0.500000,-0.750000,0.500000,-0.750000,$1*%
G04 Aperture macros list end*
%ADD10C,0.153000*%
%ADD11C,0.150000*%
%ADD12C,0.225000*%
%ADD13C,0.100000*%
%ADD14C,0.120000*%
%ADD15C,0.200000*%
%ADD16C,1.200000*%
%ADD17C,1.397000*%
%ADD18R,1.397000X1.397000*%
%ADD19C,0.240000*%
%ADD20RotRect,1.650000X0.820000X345.000000*%
%ADD21RoundRect,0.205000X-0.651932X-0.037547X0.545816X-0.358483X0.651932X0.037547X-0.545816X0.358483X0*%
%ADD22RotRect,1.650000X0.820000X330.000000*%
%ADD23RoundRect,0.205000X-0.639436X0.132465X0.434436X-0.487535X0.639436X-0.132465X-0.434436X0.487535X0*%
%ADD24O,2.500000X1.700000*%
%ADD25C,1.524000*%
%ADD26C,4.400000*%
%ADD27RotRect,0.900000X0.800000X100.000000*%
%ADD28C,1.700000*%
%ADD29C,3.400000*%
%ADD30C,2.350000*%
%ADD31RotRect,0.900000X0.800000X95.000000*%
%ADD32R,0.800000X0.900000*%
%ADD33R,3.200000X2.000000*%
%ADD34R,2.000000X2.000000*%
%ADD35C,2.000000*%
%ADD36C,1.800000*%
%ADD37RotRect,0.900000X0.800000X75.000000*%
%ADD38RotRect,0.900000X0.800000X45.000000*%
%ADD39RotRect,3.200000X2.000000X150.000000*%
%ADD40RotRect,2.000000X2.000000X150.000000*%
%ADD41R,1.650000X0.820000*%
%ADD42RoundRect,0.205000X-0.620000X-0.205000X0.620000X-0.205000X0.620000X0.205000X-0.620000X0.205000X0*%
%ADD43FreePoly0,270.000000*%
%ADD44FreePoly1,270.000000*%
%ADD45RoundRect,0.250100X0.449900X-0.262400X0.449900X0.262400X-0.449900X0.262400X-0.449900X-0.262400X0*%
%ADD46RoundRect,0.250000X0.450000X-0.262500X0.450000X0.262500X-0.450000X0.262500X-0.450000X-0.262500X0*%
%ADD47C,5.000000*%
%ADD48R,1.700000X1.700000*%
%ADD49O,1.700000X1.700000*%
%ADD50RoundRect,0.250000X-0.250000X-0.475000X0.250000X-0.475000X0.250000X0.475000X-0.250000X0.475000X0*%
%ADD51R,1.100000X1.800000*%
%ADD52FreePoly2,90.000000*%
%ADD53C,1.600000*%
%ADD54FreePoly3,295.000000*%
%ADD55FreePoly4,0.000000*%
%ADD56FreePoly5,0.000000*%
%ADD57FreePoly6,0.000000*%
%ADD58FreePoly7,0.000000*%
%ADD59FreePoly8,0.000000*%
%ADD60FreePoly9,0.000000*%
%ADD61FreePoly10,0.000000*%
%ADD62FreePoly11,0.000000*%
%ADD63FreePoly12,0.000000*%
%ADD64FreePoly13,0.000000*%
%ADD65FreePoly14,270.000000*%
%ADD66FreePoly15,270.000000*%
%ADD67C,1.300000*%
%ADD68R,1.560000X0.650000*%
G04 APERTURE END LIST*
D10*
X146879223Y-92534650D02*
X146964937Y-92534650D01*
X146964937Y-92534650D02*
X147050651Y-92577508D01*
X147050651Y-92577508D02*
X147093509Y-92620365D01*
X147093509Y-92620365D02*
X147136366Y-92706079D01*
X147136366Y-92706079D02*
X147179223Y-92877508D01*
X147179223Y-92877508D02*
X147179223Y-93091793D01*
X147179223Y-93091793D02*
X147136366Y-93263222D01*
X147136366Y-93263222D02*
X147093509Y-93348936D01*
X147093509Y-93348936D02*
X147050651Y-93391793D01*
X147050651Y-93391793D02*
X146964937Y-93434650D01*
X146964937Y-93434650D02*
X146879223Y-93434650D01*
X146879223Y-93434650D02*
X146793509Y-93391793D01*
X146793509Y-93391793D02*
X146750651Y-93348936D01*
X146750651Y-93348936D02*
X146707794Y-93263222D01*
X146707794Y-93263222D02*
X146664937Y-93091793D01*
X146664937Y-93091793D02*
X146664937Y-92877508D01*
X146664937Y-92877508D02*
X146707794Y-92706079D01*
X146707794Y-92706079D02*
X146750651Y-92620365D01*
X146750651Y-92620365D02*
X146793509Y-92577508D01*
X146793509Y-92577508D02*
X146879223Y-92534650D01*
X147564937Y-93348936D02*
X147607794Y-93391793D01*
X147607794Y-93391793D02*
X147564937Y-93434650D01*
X147564937Y-93434650D02*
X147522080Y-93391793D01*
X147522080Y-93391793D02*
X147564937Y-93348936D01*
X147564937Y-93348936D02*
X147564937Y-93434650D01*
X148464937Y-93434650D02*
X147950651Y-93434650D01*
X148207794Y-93434650D02*
X148207794Y-92534650D01*
X148207794Y-92534650D02*
X148122080Y-92663222D01*
X148122080Y-92663222D02*
X148036365Y-92748936D01*
X148036365Y-92748936D02*
X147950651Y-92791793D01*
X148850651Y-93348936D02*
X148893508Y-93391793D01*
X148893508Y-93391793D02*
X148850651Y-93434650D01*
X148850651Y-93434650D02*
X148807794Y-93391793D01*
X148807794Y-93391793D02*
X148850651Y-93348936D01*
X148850651Y-93348936D02*
X148850651Y-93434650D01*
X149450651Y-92534650D02*
X149536365Y-92534650D01*
X149536365Y-92534650D02*
X149622079Y-92577508D01*
X149622079Y-92577508D02*
X149664937Y-92620365D01*
X149664937Y-92620365D02*
X149707794Y-92706079D01*
X149707794Y-92706079D02*
X149750651Y-92877508D01*
X149750651Y-92877508D02*
X149750651Y-93091793D01*
X149750651Y-93091793D02*
X149707794Y-93263222D01*
X149707794Y-93263222D02*
X149664937Y-93348936D01*
X149664937Y-93348936D02*
X149622079Y-93391793D01*
X149622079Y-93391793D02*
X149536365Y-93434650D01*
X149536365Y-93434650D02*
X149450651Y-93434650D01*
X149450651Y-93434650D02*
X149364937Y-93391793D01*
X149364937Y-93391793D02*
X149322079Y-93348936D01*
X149322079Y-93348936D02*
X149279222Y-93263222D01*
X149279222Y-93263222D02*
X149236365Y-93091793D01*
X149236365Y-93091793D02*
X149236365Y-92877508D01*
X149236365Y-92877508D02*
X149279222Y-92706079D01*
X149279222Y-92706079D02*
X149322079Y-92620365D01*
X149322079Y-92620365D02*
X149364937Y-92577508D01*
X149364937Y-92577508D02*
X149450651Y-92534650D01*
X147250661Y-89461392D02*
X147250661Y-88461392D01*
X147250661Y-88461392D02*
X147631613Y-88461392D01*
X147631613Y-88461392D02*
X147726851Y-88509012D01*
X147726851Y-88509012D02*
X147774470Y-88556631D01*
X147774470Y-88556631D02*
X147822089Y-88651869D01*
X147822089Y-88651869D02*
X147822089Y-88794726D01*
X147822089Y-88794726D02*
X147774470Y-88889964D01*
X147774470Y-88889964D02*
X147726851Y-88937583D01*
X147726851Y-88937583D02*
X147631613Y-88985202D01*
X147631613Y-88985202D02*
X147250661Y-88985202D01*
X148822089Y-89366154D02*
X148774470Y-89413773D01*
X148774470Y-89413773D02*
X148631613Y-89461392D01*
X148631613Y-89461392D02*
X148536375Y-89461392D01*
X148536375Y-89461392D02*
X148393518Y-89413773D01*
X148393518Y-89413773D02*
X148298280Y-89318535D01*
X148298280Y-89318535D02*
X148250661Y-89223297D01*
X148250661Y-89223297D02*
X148203042Y-89032821D01*
X148203042Y-89032821D02*
X148203042Y-88889964D01*
X148203042Y-88889964D02*
X148250661Y-88699488D01*
X148250661Y-88699488D02*
X148298280Y-88604250D01*
X148298280Y-88604250D02*
X148393518Y-88509012D01*
X148393518Y-88509012D02*
X148536375Y-88461392D01*
X148536375Y-88461392D02*
X148631613Y-88461392D01*
X148631613Y-88461392D02*
X148774470Y-88509012D01*
X148774470Y-88509012D02*
X148822089Y-88556631D01*
X149583994Y-88937583D02*
X149726851Y-88985202D01*
X149726851Y-88985202D02*
X149774470Y-89032821D01*
X149774470Y-89032821D02*
X149822089Y-89128059D01*
X149822089Y-89128059D02*
X149822089Y-89270916D01*
X149822089Y-89270916D02*
X149774470Y-89366154D01*
X149774470Y-89366154D02*
X149726851Y-89413773D01*
X149726851Y-89413773D02*
X149631613Y-89461392D01*
X149631613Y-89461392D02*
X149250661Y-89461392D01*
X149250661Y-89461392D02*
X149250661Y-88461392D01*
X149250661Y-88461392D02*
X149583994Y-88461392D01*
X149583994Y-88461392D02*
X149679232Y-88509012D01*
X149679232Y-88509012D02*
X149726851Y-88556631D01*
X149726851Y-88556631D02*
X149774470Y-88651869D01*
X149774470Y-88651869D02*
X149774470Y-88747107D01*
X149774470Y-88747107D02*
X149726851Y-88842345D01*
X149726851Y-88842345D02*
X149679232Y-88889964D01*
X149679232Y-88889964D02*
X149583994Y-88937583D01*
X149583994Y-88937583D02*
X149250661Y-88937583D01*
X150850661Y-89461392D02*
X150850661Y-88461392D01*
X150850661Y-88842345D02*
X150945899Y-88794726D01*
X150945899Y-88794726D02*
X151136375Y-88794726D01*
X151136375Y-88794726D02*
X151231613Y-88842345D01*
X151231613Y-88842345D02*
X151279232Y-88889964D01*
X151279232Y-88889964D02*
X151326851Y-88985202D01*
X151326851Y-88985202D02*
X151326851Y-89270916D01*
X151326851Y-89270916D02*
X151279232Y-89366154D01*
X151279232Y-89366154D02*
X151231613Y-89413773D01*
X151231613Y-89413773D02*
X151136375Y-89461392D01*
X151136375Y-89461392D02*
X150945899Y-89461392D01*
X150945899Y-89461392D02*
X150850661Y-89413773D01*
X151660185Y-88794726D02*
X151898280Y-89461392D01*
X152136375Y-88794726D02*
X151898280Y-89461392D01*
X151898280Y-89461392D02*
X151803042Y-89699488D01*
X151803042Y-89699488D02*
X151755423Y-89747107D01*
X151755423Y-89747107D02*
X151660185Y-89794726D01*
X148450661Y-91081392D02*
X148450661Y-90081392D01*
X148450661Y-90081392D02*
X148783994Y-90795678D01*
X148783994Y-90795678D02*
X149117327Y-90081392D01*
X149117327Y-90081392D02*
X149117327Y-91081392D01*
X149593518Y-91081392D02*
X149593518Y-90081392D01*
X149593518Y-90081392D02*
X149926851Y-90795678D01*
X149926851Y-90795678D02*
X150260184Y-90081392D01*
X150260184Y-90081392D02*
X150260184Y-91081392D01*
D11*
X193193516Y-50591589D02*
X193193516Y-51170161D01*
X193193516Y-51170161D02*
X193145897Y-51285875D01*
X193145897Y-51285875D02*
X193050659Y-51363018D01*
X193050659Y-51363018D02*
X192907802Y-51401589D01*
X192907802Y-51401589D02*
X192812564Y-51401589D01*
X194145897Y-51401589D02*
X193669707Y-51401589D01*
X193669707Y-51401589D02*
X193669707Y-50591589D01*
X195050659Y-51324446D02*
X195003040Y-51363018D01*
X195003040Y-51363018D02*
X194860183Y-51401589D01*
X194860183Y-51401589D02*
X194764945Y-51401589D01*
X194764945Y-51401589D02*
X194622088Y-51363018D01*
X194622088Y-51363018D02*
X194526850Y-51285875D01*
X194526850Y-51285875D02*
X194479231Y-51208732D01*
X194479231Y-51208732D02*
X194431612Y-51054446D01*
X194431612Y-51054446D02*
X194431612Y-50938732D01*
X194431612Y-50938732D02*
X194479231Y-50784446D01*
X194479231Y-50784446D02*
X194526850Y-50707303D01*
X194526850Y-50707303D02*
X194622088Y-50630161D01*
X194622088Y-50630161D02*
X194764945Y-50591589D01*
X194764945Y-50591589D02*
X194860183Y-50591589D01*
X194860183Y-50591589D02*
X195003040Y-50630161D01*
X195003040Y-50630161D02*
X195050659Y-50668732D01*
X195764945Y-50591589D02*
X195764945Y-51170161D01*
X195764945Y-51170161D02*
X195717326Y-51285875D01*
X195717326Y-51285875D02*
X195622088Y-51363018D01*
X195622088Y-51363018D02*
X195479231Y-51401589D01*
X195479231Y-51401589D02*
X195383993Y-51401589D01*
X196717326Y-51401589D02*
X196241136Y-51401589D01*
X196241136Y-51401589D02*
X196241136Y-50591589D01*
X197622088Y-51324446D02*
X197574469Y-51363018D01*
X197574469Y-51363018D02*
X197431612Y-51401589D01*
X197431612Y-51401589D02*
X197336374Y-51401589D01*
X197336374Y-51401589D02*
X197193517Y-51363018D01*
X197193517Y-51363018D02*
X197098279Y-51285875D01*
X197098279Y-51285875D02*
X197050660Y-51208732D01*
X197050660Y-51208732D02*
X197003041Y-51054446D01*
X197003041Y-51054446D02*
X197003041Y-50938732D01*
X197003041Y-50938732D02*
X197050660Y-50784446D01*
X197050660Y-50784446D02*
X197098279Y-50707303D01*
X197098279Y-50707303D02*
X197193517Y-50630161D01*
X197193517Y-50630161D02*
X197336374Y-50591589D01*
X197336374Y-50591589D02*
X197431612Y-50591589D01*
X197431612Y-50591589D02*
X197574469Y-50630161D01*
X197574469Y-50630161D02*
X197622088Y-50668732D01*
X198336374Y-50591589D02*
X198336374Y-51170161D01*
X198336374Y-51170161D02*
X198288755Y-51285875D01*
X198288755Y-51285875D02*
X198193517Y-51363018D01*
X198193517Y-51363018D02*
X198050660Y-51401589D01*
X198050660Y-51401589D02*
X197955422Y-51401589D01*
X199288755Y-51401589D02*
X198812565Y-51401589D01*
X198812565Y-51401589D02*
X198812565Y-50591589D01*
X200193517Y-51324446D02*
X200145898Y-51363018D01*
X200145898Y-51363018D02*
X200003041Y-51401589D01*
X200003041Y-51401589D02*
X199907803Y-51401589D01*
X199907803Y-51401589D02*
X199764946Y-51363018D01*
X199764946Y-51363018D02*
X199669708Y-51285875D01*
X199669708Y-51285875D02*
X199622089Y-51208732D01*
X199622089Y-51208732D02*
X199574470Y-51054446D01*
X199574470Y-51054446D02*
X199574470Y-50938732D01*
X199574470Y-50938732D02*
X199622089Y-50784446D01*
X199622089Y-50784446D02*
X199669708Y-50707303D01*
X199669708Y-50707303D02*
X199764946Y-50630161D01*
X199764946Y-50630161D02*
X199907803Y-50591589D01*
X199907803Y-50591589D02*
X200003041Y-50591589D01*
X200003041Y-50591589D02*
X200145898Y-50630161D01*
X200145898Y-50630161D02*
X200193517Y-50668732D01*
X200907803Y-50591589D02*
X200907803Y-51170161D01*
X200907803Y-51170161D02*
X200860184Y-51285875D01*
X200860184Y-51285875D02*
X200764946Y-51363018D01*
X200764946Y-51363018D02*
X200622089Y-51401589D01*
X200622089Y-51401589D02*
X200526851Y-51401589D01*
X201860184Y-51401589D02*
X201383994Y-51401589D01*
X201383994Y-51401589D02*
X201383994Y-50591589D01*
X202764946Y-51324446D02*
X202717327Y-51363018D01*
X202717327Y-51363018D02*
X202574470Y-51401589D01*
X202574470Y-51401589D02*
X202479232Y-51401589D01*
X202479232Y-51401589D02*
X202336375Y-51363018D01*
X202336375Y-51363018D02*
X202241137Y-51285875D01*
X202241137Y-51285875D02*
X202193518Y-51208732D01*
X202193518Y-51208732D02*
X202145899Y-51054446D01*
X202145899Y-51054446D02*
X202145899Y-50938732D01*
X202145899Y-50938732D02*
X202193518Y-50784446D01*
X202193518Y-50784446D02*
X202241137Y-50707303D01*
X202241137Y-50707303D02*
X202336375Y-50630161D01*
X202336375Y-50630161D02*
X202479232Y-50591589D01*
X202479232Y-50591589D02*
X202574470Y-50591589D01*
X202574470Y-50591589D02*
X202717327Y-50630161D01*
X202717327Y-50630161D02*
X202764946Y-50668732D01*
D10*
%TO.C,J2*%
X207144933Y-108380498D02*
X207716361Y-108380498D01*
X207430647Y-109380498D02*
X207430647Y-108380498D01*
X208621123Y-109380498D02*
X208287790Y-108904308D01*
X208049695Y-109380498D02*
X208049695Y-108380498D01*
X208049695Y-108380498D02*
X208430647Y-108380498D01*
X208430647Y-108380498D02*
X208525885Y-108428118D01*
X208525885Y-108428118D02*
X208573504Y-108475737D01*
X208573504Y-108475737D02*
X208621123Y-108570975D01*
X208621123Y-108570975D02*
X208621123Y-108713832D01*
X208621123Y-108713832D02*
X208573504Y-108809070D01*
X208573504Y-108809070D02*
X208525885Y-108856689D01*
X208525885Y-108856689D02*
X208430647Y-108904308D01*
X208430647Y-108904308D02*
X208049695Y-108904308D01*
X209335409Y-109761451D02*
X209287790Y-109713832D01*
X209287790Y-109713832D02*
X209192552Y-109570975D01*
X209192552Y-109570975D02*
X209144933Y-109475737D01*
X209144933Y-109475737D02*
X209097314Y-109332879D01*
X209097314Y-109332879D02*
X209049695Y-109094784D01*
X209049695Y-109094784D02*
X209049695Y-108904308D01*
X209049695Y-108904308D02*
X209097314Y-108666213D01*
X209097314Y-108666213D02*
X209144933Y-108523356D01*
X209144933Y-108523356D02*
X209192552Y-108428118D01*
X209192552Y-108428118D02*
X209287790Y-108285260D01*
X209287790Y-108285260D02*
X209335409Y-108237641D01*
X210287790Y-109380498D02*
X209954457Y-108904308D01*
X209716362Y-109380498D02*
X209716362Y-108380498D01*
X209716362Y-108380498D02*
X210097314Y-108380498D01*
X210097314Y-108380498D02*
X210192552Y-108428118D01*
X210192552Y-108428118D02*
X210240171Y-108475737D01*
X210240171Y-108475737D02*
X210287790Y-108570975D01*
X210287790Y-108570975D02*
X210287790Y-108713832D01*
X210287790Y-108713832D02*
X210240171Y-108809070D01*
X210240171Y-108809070D02*
X210192552Y-108856689D01*
X210192552Y-108856689D02*
X210097314Y-108904308D01*
X210097314Y-108904308D02*
X209716362Y-108904308D01*
X210621124Y-109761451D02*
X210668743Y-109713832D01*
X210668743Y-109713832D02*
X210763981Y-109570975D01*
X210763981Y-109570975D02*
X210811600Y-109475737D01*
X210811600Y-109475737D02*
X210859219Y-109332879D01*
X210859219Y-109332879D02*
X210906838Y-109094784D01*
X210906838Y-109094784D02*
X210906838Y-108904308D01*
X210906838Y-108904308D02*
X210859219Y-108666213D01*
X210859219Y-108666213D02*
X210811600Y-108523356D01*
X210811600Y-108523356D02*
X210763981Y-108428118D01*
X210763981Y-108428118D02*
X210668743Y-108285260D01*
X210668743Y-108285260D02*
X210621124Y-108237641D01*
X211335410Y-109332879D02*
X211478267Y-109380498D01*
X211478267Y-109380498D02*
X211716362Y-109380498D01*
X211716362Y-109380498D02*
X211811600Y-109332879D01*
X211811600Y-109332879D02*
X211859219Y-109285260D01*
X211859219Y-109285260D02*
X211906838Y-109190022D01*
X211906838Y-109190022D02*
X211906838Y-109094784D01*
X211906838Y-109094784D02*
X211859219Y-108999546D01*
X211859219Y-108999546D02*
X211811600Y-108951927D01*
X211811600Y-108951927D02*
X211716362Y-108904308D01*
X211716362Y-108904308D02*
X211525886Y-108856689D01*
X211525886Y-108856689D02*
X211430648Y-108809070D01*
X211430648Y-108809070D02*
X211383029Y-108761451D01*
X211383029Y-108761451D02*
X211335410Y-108666213D01*
X211335410Y-108666213D02*
X211335410Y-108570975D01*
X211335410Y-108570975D02*
X211383029Y-108475737D01*
X211383029Y-108475737D02*
X211430648Y-108428118D01*
X211430648Y-108428118D02*
X211525886Y-108380498D01*
X211525886Y-108380498D02*
X211763981Y-108380498D01*
X211763981Y-108380498D02*
X211906838Y-108428118D01*
D11*
%TO.C,U1*%
X201047889Y-64397395D02*
X201447889Y-65397395D01*
X201447889Y-64397395D02*
X201047889Y-65397395D01*
X202379318Y-65302157D02*
X202350746Y-65349776D01*
X202350746Y-65349776D02*
X202265032Y-65397395D01*
X202265032Y-65397395D02*
X202207889Y-65397395D01*
X202207889Y-65397395D02*
X202122175Y-65349776D01*
X202122175Y-65349776D02*
X202065032Y-65254538D01*
X202065032Y-65254538D02*
X202036461Y-65159300D01*
X202036461Y-65159300D02*
X202007889Y-64968824D01*
X202007889Y-64968824D02*
X202007889Y-64825967D01*
X202007889Y-64825967D02*
X202036461Y-64635491D01*
X202036461Y-64635491D02*
X202065032Y-64540253D01*
X202065032Y-64540253D02*
X202122175Y-64445015D01*
X202122175Y-64445015D02*
X202207889Y-64397395D01*
X202207889Y-64397395D02*
X202265032Y-64397395D01*
X202265032Y-64397395D02*
X202350746Y-64445015D01*
X202350746Y-64445015D02*
X202379318Y-64492634D01*
X202893604Y-64730729D02*
X202893604Y-65397395D01*
X202750746Y-64349776D02*
X202607889Y-65064062D01*
X202607889Y-65064062D02*
X202979318Y-65064062D01*
X203207890Y-65016443D02*
X203665033Y-65016443D01*
X203950747Y-64730729D02*
X204407890Y-65016443D01*
X204407890Y-65016443D02*
X203950747Y-65302157D01*
X192983505Y-54525838D02*
X192297790Y-54811552D01*
X192297790Y-54811552D02*
X192983505Y-55097266D01*
X193412076Y-54811552D02*
X194097791Y-54811552D01*
X194526362Y-54811552D02*
X195212077Y-54811552D01*
X201747791Y-56820124D02*
X201690649Y-56772504D01*
X201690649Y-56772504D02*
X201604934Y-56772504D01*
X201604934Y-56772504D02*
X201519220Y-56820124D01*
X201519220Y-56820124D02*
X201462077Y-56915362D01*
X201462077Y-56915362D02*
X201433506Y-57010600D01*
X201433506Y-57010600D02*
X201404934Y-57201076D01*
X201404934Y-57201076D02*
X201404934Y-57343933D01*
X201404934Y-57343933D02*
X201433506Y-57534409D01*
X201433506Y-57534409D02*
X201462077Y-57629647D01*
X201462077Y-57629647D02*
X201519220Y-57724885D01*
X201519220Y-57724885D02*
X201604934Y-57772504D01*
X201604934Y-57772504D02*
X201662077Y-57772504D01*
X201662077Y-57772504D02*
X201747791Y-57724885D01*
X201747791Y-57724885D02*
X201776363Y-57677266D01*
X201776363Y-57677266D02*
X201776363Y-57343933D01*
X201776363Y-57343933D02*
X201662077Y-57343933D01*
X202033506Y-57772504D02*
X202033506Y-56772504D01*
X202033506Y-56772504D02*
X202376363Y-57772504D01*
X202376363Y-57772504D02*
X202376363Y-56772504D01*
X202662077Y-57772504D02*
X202662077Y-56772504D01*
X202662077Y-56772504D02*
X202804934Y-56772504D01*
X202804934Y-56772504D02*
X202890648Y-56820124D01*
X202890648Y-56820124D02*
X202947791Y-56915362D01*
X202947791Y-56915362D02*
X202976362Y-57010600D01*
X202976362Y-57010600D02*
X203004934Y-57201076D01*
X203004934Y-57201076D02*
X203004934Y-57343933D01*
X203004934Y-57343933D02*
X202976362Y-57534409D01*
X202976362Y-57534409D02*
X202947791Y-57629647D01*
X202947791Y-57629647D02*
X202890648Y-57724885D01*
X202890648Y-57724885D02*
X202804934Y-57772504D01*
X202804934Y-57772504D02*
X202662077Y-57772504D01*
X203262077Y-57391552D02*
X203719220Y-57391552D01*
X204004934Y-57105838D02*
X204462077Y-57391552D01*
X204462077Y-57391552D02*
X204004934Y-57677266D01*
X200910648Y-74552504D02*
X201310648Y-75552504D01*
X201310648Y-74552504D02*
X200910648Y-75552504D01*
X202099220Y-75028695D02*
X202184934Y-75076314D01*
X202184934Y-75076314D02*
X202213505Y-75123933D01*
X202213505Y-75123933D02*
X202242077Y-75219171D01*
X202242077Y-75219171D02*
X202242077Y-75362028D01*
X202242077Y-75362028D02*
X202213505Y-75457266D01*
X202213505Y-75457266D02*
X202184934Y-75504885D01*
X202184934Y-75504885D02*
X202127791Y-75552504D01*
X202127791Y-75552504D02*
X201899220Y-75552504D01*
X201899220Y-75552504D02*
X201899220Y-74552504D01*
X201899220Y-74552504D02*
X202099220Y-74552504D01*
X202099220Y-74552504D02*
X202156363Y-74600124D01*
X202156363Y-74600124D02*
X202184934Y-74647743D01*
X202184934Y-74647743D02*
X202213505Y-74742981D01*
X202213505Y-74742981D02*
X202213505Y-74838219D01*
X202213505Y-74838219D02*
X202184934Y-74933457D01*
X202184934Y-74933457D02*
X202156363Y-74981076D01*
X202156363Y-74981076D02*
X202099220Y-75028695D01*
X202099220Y-75028695D02*
X201899220Y-75028695D01*
X202756363Y-74885838D02*
X202756363Y-75552504D01*
X202613505Y-74504885D02*
X202470648Y-75219171D01*
X202470648Y-75219171D02*
X202842077Y-75219171D01*
X203070649Y-75171552D02*
X203527792Y-75171552D01*
X203813506Y-74885838D02*
X204270649Y-75171552D01*
X204270649Y-75171552D02*
X203813506Y-75457266D01*
X186526362Y-51740124D02*
X186469220Y-51692504D01*
X186469220Y-51692504D02*
X186383505Y-51692504D01*
X186383505Y-51692504D02*
X186297791Y-51740124D01*
X186297791Y-51740124D02*
X186240648Y-51835362D01*
X186240648Y-51835362D02*
X186212077Y-51930600D01*
X186212077Y-51930600D02*
X186183505Y-52121076D01*
X186183505Y-52121076D02*
X186183505Y-52263933D01*
X186183505Y-52263933D02*
X186212077Y-52454409D01*
X186212077Y-52454409D02*
X186240648Y-52549647D01*
X186240648Y-52549647D02*
X186297791Y-52644885D01*
X186297791Y-52644885D02*
X186383505Y-52692504D01*
X186383505Y-52692504D02*
X186440648Y-52692504D01*
X186440648Y-52692504D02*
X186526362Y-52644885D01*
X186526362Y-52644885D02*
X186554934Y-52597266D01*
X186554934Y-52597266D02*
X186554934Y-52263933D01*
X186554934Y-52263933D02*
X186440648Y-52263933D01*
X186812077Y-52692504D02*
X186812077Y-51692504D01*
X186812077Y-51692504D02*
X187154934Y-52692504D01*
X187154934Y-52692504D02*
X187154934Y-51692504D01*
X187440648Y-52692504D02*
X187440648Y-51692504D01*
X187440648Y-51692504D02*
X187583505Y-51692504D01*
X187583505Y-51692504D02*
X187669219Y-51740124D01*
X187669219Y-51740124D02*
X187726362Y-51835362D01*
X187726362Y-51835362D02*
X187754933Y-51930600D01*
X187754933Y-51930600D02*
X187783505Y-52121076D01*
X187783505Y-52121076D02*
X187783505Y-52263933D01*
X187783505Y-52263933D02*
X187754933Y-52454409D01*
X187754933Y-52454409D02*
X187726362Y-52549647D01*
X187726362Y-52549647D02*
X187669219Y-52644885D01*
X187669219Y-52644885D02*
X187583505Y-52692504D01*
X187583505Y-52692504D02*
X187440648Y-52692504D01*
X188040648Y-52311552D02*
X188497791Y-52311552D01*
X188783505Y-52025838D02*
X189240648Y-52311552D01*
X189240648Y-52311552D02*
X188783505Y-52597266D01*
X201576362Y-62804885D02*
X201662077Y-62852504D01*
X201662077Y-62852504D02*
X201804934Y-62852504D01*
X201804934Y-62852504D02*
X201862077Y-62804885D01*
X201862077Y-62804885D02*
X201890648Y-62757266D01*
X201890648Y-62757266D02*
X201919219Y-62662028D01*
X201919219Y-62662028D02*
X201919219Y-62566790D01*
X201919219Y-62566790D02*
X201890648Y-62471552D01*
X201890648Y-62471552D02*
X201862077Y-62423933D01*
X201862077Y-62423933D02*
X201804934Y-62376314D01*
X201804934Y-62376314D02*
X201690648Y-62328695D01*
X201690648Y-62328695D02*
X201633505Y-62281076D01*
X201633505Y-62281076D02*
X201604934Y-62233457D01*
X201604934Y-62233457D02*
X201576362Y-62138219D01*
X201576362Y-62138219D02*
X201576362Y-62042981D01*
X201576362Y-62042981D02*
X201604934Y-61947743D01*
X201604934Y-61947743D02*
X201633505Y-61900124D01*
X201633505Y-61900124D02*
X201690648Y-61852504D01*
X201690648Y-61852504D02*
X201833505Y-61852504D01*
X201833505Y-61852504D02*
X201919219Y-61900124D01*
X202519220Y-62757266D02*
X202490648Y-62804885D01*
X202490648Y-62804885D02*
X202404934Y-62852504D01*
X202404934Y-62852504D02*
X202347791Y-62852504D01*
X202347791Y-62852504D02*
X202262077Y-62804885D01*
X202262077Y-62804885D02*
X202204934Y-62709647D01*
X202204934Y-62709647D02*
X202176363Y-62614409D01*
X202176363Y-62614409D02*
X202147791Y-62423933D01*
X202147791Y-62423933D02*
X202147791Y-62281076D01*
X202147791Y-62281076D02*
X202176363Y-62090600D01*
X202176363Y-62090600D02*
X202204934Y-61995362D01*
X202204934Y-61995362D02*
X202262077Y-61900124D01*
X202262077Y-61900124D02*
X202347791Y-61852504D01*
X202347791Y-61852504D02*
X202404934Y-61852504D01*
X202404934Y-61852504D02*
X202490648Y-61900124D01*
X202490648Y-61900124D02*
X202519220Y-61947743D01*
X203062077Y-62852504D02*
X202776363Y-62852504D01*
X202776363Y-62852504D02*
X202776363Y-61852504D01*
X203262077Y-62471552D02*
X203719220Y-62471552D01*
X204004934Y-62185838D02*
X204462077Y-62471552D01*
X204462077Y-62471552D02*
X204004934Y-62757266D01*
X186097791Y-75457266D02*
X186069219Y-75504885D01*
X186069219Y-75504885D02*
X185983505Y-75552504D01*
X185983505Y-75552504D02*
X185926362Y-75552504D01*
X185926362Y-75552504D02*
X185840648Y-75504885D01*
X185840648Y-75504885D02*
X185783505Y-75409647D01*
X185783505Y-75409647D02*
X185754934Y-75314409D01*
X185754934Y-75314409D02*
X185726362Y-75123933D01*
X185726362Y-75123933D02*
X185726362Y-74981076D01*
X185726362Y-74981076D02*
X185754934Y-74790600D01*
X185754934Y-74790600D02*
X185783505Y-74695362D01*
X185783505Y-74695362D02*
X185840648Y-74600124D01*
X185840648Y-74600124D02*
X185926362Y-74552504D01*
X185926362Y-74552504D02*
X185983505Y-74552504D01*
X185983505Y-74552504D02*
X186069219Y-74600124D01*
X186069219Y-74600124D02*
X186097791Y-74647743D01*
X186469219Y-74552504D02*
X186583505Y-74552504D01*
X186583505Y-74552504D02*
X186640648Y-74600124D01*
X186640648Y-74600124D02*
X186697791Y-74695362D01*
X186697791Y-74695362D02*
X186726362Y-74885838D01*
X186726362Y-74885838D02*
X186726362Y-75219171D01*
X186726362Y-75219171D02*
X186697791Y-75409647D01*
X186697791Y-75409647D02*
X186640648Y-75504885D01*
X186640648Y-75504885D02*
X186583505Y-75552504D01*
X186583505Y-75552504D02*
X186469219Y-75552504D01*
X186469219Y-75552504D02*
X186412077Y-75504885D01*
X186412077Y-75504885D02*
X186354934Y-75409647D01*
X186354934Y-75409647D02*
X186326362Y-75219171D01*
X186326362Y-75219171D02*
X186326362Y-74885838D01*
X186326362Y-74885838D02*
X186354934Y-74695362D01*
X186354934Y-74695362D02*
X186412077Y-74600124D01*
X186412077Y-74600124D02*
X186469219Y-74552504D01*
X187269219Y-75552504D02*
X186983505Y-75552504D01*
X186983505Y-75552504D02*
X186983505Y-74552504D01*
X187726362Y-74885838D02*
X187726362Y-75552504D01*
X187583504Y-74504885D02*
X187440647Y-75219171D01*
X187440647Y-75219171D02*
X187812076Y-75219171D01*
X188040648Y-75171552D02*
X188497791Y-75171552D01*
X188783505Y-74885838D02*
X189240648Y-75171552D01*
X189240648Y-75171552D02*
X188783505Y-75457266D01*
X192983505Y-57065838D02*
X192297790Y-57351552D01*
X192297790Y-57351552D02*
X192983505Y-57637266D01*
X193412076Y-57351552D02*
X194097791Y-57351552D01*
X194526362Y-57351552D02*
X195212077Y-57351552D01*
X201547791Y-60264885D02*
X201633506Y-60312504D01*
X201633506Y-60312504D02*
X201776363Y-60312504D01*
X201776363Y-60312504D02*
X201833506Y-60264885D01*
X201833506Y-60264885D02*
X201862077Y-60217266D01*
X201862077Y-60217266D02*
X201890648Y-60122028D01*
X201890648Y-60122028D02*
X201890648Y-60026790D01*
X201890648Y-60026790D02*
X201862077Y-59931552D01*
X201862077Y-59931552D02*
X201833506Y-59883933D01*
X201833506Y-59883933D02*
X201776363Y-59836314D01*
X201776363Y-59836314D02*
X201662077Y-59788695D01*
X201662077Y-59788695D02*
X201604934Y-59741076D01*
X201604934Y-59741076D02*
X201576363Y-59693457D01*
X201576363Y-59693457D02*
X201547791Y-59598219D01*
X201547791Y-59598219D02*
X201547791Y-59502981D01*
X201547791Y-59502981D02*
X201576363Y-59407743D01*
X201576363Y-59407743D02*
X201604934Y-59360124D01*
X201604934Y-59360124D02*
X201662077Y-59312504D01*
X201662077Y-59312504D02*
X201804934Y-59312504D01*
X201804934Y-59312504D02*
X201890648Y-59360124D01*
X202147792Y-60312504D02*
X202147792Y-59312504D01*
X202147792Y-59312504D02*
X202290649Y-59312504D01*
X202290649Y-59312504D02*
X202376363Y-59360124D01*
X202376363Y-59360124D02*
X202433506Y-59455362D01*
X202433506Y-59455362D02*
X202462077Y-59550600D01*
X202462077Y-59550600D02*
X202490649Y-59741076D01*
X202490649Y-59741076D02*
X202490649Y-59883933D01*
X202490649Y-59883933D02*
X202462077Y-60074409D01*
X202462077Y-60074409D02*
X202433506Y-60169647D01*
X202433506Y-60169647D02*
X202376363Y-60264885D01*
X202376363Y-60264885D02*
X202290649Y-60312504D01*
X202290649Y-60312504D02*
X202147792Y-60312504D01*
X202719220Y-60026790D02*
X203004935Y-60026790D01*
X202662077Y-60312504D02*
X202862077Y-59312504D01*
X202862077Y-59312504D02*
X203062077Y-60312504D01*
X203262078Y-59931552D02*
X203719221Y-59931552D01*
X204004935Y-59645838D02*
X204462078Y-59931552D01*
X204462078Y-59931552D02*
X204004935Y-60217266D01*
X201747791Y-54280124D02*
X201690649Y-54232504D01*
X201690649Y-54232504D02*
X201604934Y-54232504D01*
X201604934Y-54232504D02*
X201519220Y-54280124D01*
X201519220Y-54280124D02*
X201462077Y-54375362D01*
X201462077Y-54375362D02*
X201433506Y-54470600D01*
X201433506Y-54470600D02*
X201404934Y-54661076D01*
X201404934Y-54661076D02*
X201404934Y-54803933D01*
X201404934Y-54803933D02*
X201433506Y-54994409D01*
X201433506Y-54994409D02*
X201462077Y-55089647D01*
X201462077Y-55089647D02*
X201519220Y-55184885D01*
X201519220Y-55184885D02*
X201604934Y-55232504D01*
X201604934Y-55232504D02*
X201662077Y-55232504D01*
X201662077Y-55232504D02*
X201747791Y-55184885D01*
X201747791Y-55184885D02*
X201776363Y-55137266D01*
X201776363Y-55137266D02*
X201776363Y-54803933D01*
X201776363Y-54803933D02*
X201662077Y-54803933D01*
X202033506Y-55232504D02*
X202033506Y-54232504D01*
X202033506Y-54232504D02*
X202376363Y-55232504D01*
X202376363Y-55232504D02*
X202376363Y-54232504D01*
X202662077Y-55232504D02*
X202662077Y-54232504D01*
X202662077Y-54232504D02*
X202804934Y-54232504D01*
X202804934Y-54232504D02*
X202890648Y-54280124D01*
X202890648Y-54280124D02*
X202947791Y-54375362D01*
X202947791Y-54375362D02*
X202976362Y-54470600D01*
X202976362Y-54470600D02*
X203004934Y-54661076D01*
X203004934Y-54661076D02*
X203004934Y-54803933D01*
X203004934Y-54803933D02*
X202976362Y-54994409D01*
X202976362Y-54994409D02*
X202947791Y-55089647D01*
X202947791Y-55089647D02*
X202890648Y-55184885D01*
X202890648Y-55184885D02*
X202804934Y-55232504D01*
X202804934Y-55232504D02*
X202662077Y-55232504D01*
X203262077Y-54851552D02*
X203719220Y-54851552D01*
X204004934Y-54565838D02*
X204462077Y-54851552D01*
X204462077Y-54851552D02*
X204004934Y-55137266D01*
X186097791Y-67837266D02*
X186069219Y-67884885D01*
X186069219Y-67884885D02*
X185983505Y-67932504D01*
X185983505Y-67932504D02*
X185926362Y-67932504D01*
X185926362Y-67932504D02*
X185840648Y-67884885D01*
X185840648Y-67884885D02*
X185783505Y-67789647D01*
X185783505Y-67789647D02*
X185754934Y-67694409D01*
X185754934Y-67694409D02*
X185726362Y-67503933D01*
X185726362Y-67503933D02*
X185726362Y-67361076D01*
X185726362Y-67361076D02*
X185754934Y-67170600D01*
X185754934Y-67170600D02*
X185783505Y-67075362D01*
X185783505Y-67075362D02*
X185840648Y-66980124D01*
X185840648Y-66980124D02*
X185926362Y-66932504D01*
X185926362Y-66932504D02*
X185983505Y-66932504D01*
X185983505Y-66932504D02*
X186069219Y-66980124D01*
X186069219Y-66980124D02*
X186097791Y-67027743D01*
X186469219Y-66932504D02*
X186583505Y-66932504D01*
X186583505Y-66932504D02*
X186640648Y-66980124D01*
X186640648Y-66980124D02*
X186697791Y-67075362D01*
X186697791Y-67075362D02*
X186726362Y-67265838D01*
X186726362Y-67265838D02*
X186726362Y-67599171D01*
X186726362Y-67599171D02*
X186697791Y-67789647D01*
X186697791Y-67789647D02*
X186640648Y-67884885D01*
X186640648Y-67884885D02*
X186583505Y-67932504D01*
X186583505Y-67932504D02*
X186469219Y-67932504D01*
X186469219Y-67932504D02*
X186412077Y-67884885D01*
X186412077Y-67884885D02*
X186354934Y-67789647D01*
X186354934Y-67789647D02*
X186326362Y-67599171D01*
X186326362Y-67599171D02*
X186326362Y-67265838D01*
X186326362Y-67265838D02*
X186354934Y-67075362D01*
X186354934Y-67075362D02*
X186412077Y-66980124D01*
X186412077Y-66980124D02*
X186469219Y-66932504D01*
X187269219Y-67932504D02*
X186983505Y-67932504D01*
X186983505Y-67932504D02*
X186983505Y-66932504D01*
X187783504Y-67932504D02*
X187440647Y-67932504D01*
X187612076Y-67932504D02*
X187612076Y-66932504D01*
X187612076Y-66932504D02*
X187554933Y-67075362D01*
X187554933Y-67075362D02*
X187497790Y-67170600D01*
X187497790Y-67170600D02*
X187440647Y-67218219D01*
X188040648Y-67551552D02*
X188497791Y-67551552D01*
X188783505Y-67265838D02*
X189240648Y-67551552D01*
X189240648Y-67551552D02*
X188783505Y-67837266D01*
X186097791Y-70377266D02*
X186069219Y-70424885D01*
X186069219Y-70424885D02*
X185983505Y-70472504D01*
X185983505Y-70472504D02*
X185926362Y-70472504D01*
X185926362Y-70472504D02*
X185840648Y-70424885D01*
X185840648Y-70424885D02*
X185783505Y-70329647D01*
X185783505Y-70329647D02*
X185754934Y-70234409D01*
X185754934Y-70234409D02*
X185726362Y-70043933D01*
X185726362Y-70043933D02*
X185726362Y-69901076D01*
X185726362Y-69901076D02*
X185754934Y-69710600D01*
X185754934Y-69710600D02*
X185783505Y-69615362D01*
X185783505Y-69615362D02*
X185840648Y-69520124D01*
X185840648Y-69520124D02*
X185926362Y-69472504D01*
X185926362Y-69472504D02*
X185983505Y-69472504D01*
X185983505Y-69472504D02*
X186069219Y-69520124D01*
X186069219Y-69520124D02*
X186097791Y-69567743D01*
X186469219Y-69472504D02*
X186583505Y-69472504D01*
X186583505Y-69472504D02*
X186640648Y-69520124D01*
X186640648Y-69520124D02*
X186697791Y-69615362D01*
X186697791Y-69615362D02*
X186726362Y-69805838D01*
X186726362Y-69805838D02*
X186726362Y-70139171D01*
X186726362Y-70139171D02*
X186697791Y-70329647D01*
X186697791Y-70329647D02*
X186640648Y-70424885D01*
X186640648Y-70424885D02*
X186583505Y-70472504D01*
X186583505Y-70472504D02*
X186469219Y-70472504D01*
X186469219Y-70472504D02*
X186412077Y-70424885D01*
X186412077Y-70424885D02*
X186354934Y-70329647D01*
X186354934Y-70329647D02*
X186326362Y-70139171D01*
X186326362Y-70139171D02*
X186326362Y-69805838D01*
X186326362Y-69805838D02*
X186354934Y-69615362D01*
X186354934Y-69615362D02*
X186412077Y-69520124D01*
X186412077Y-69520124D02*
X186469219Y-69472504D01*
X187269219Y-70472504D02*
X186983505Y-70472504D01*
X186983505Y-70472504D02*
X186983505Y-69472504D01*
X187440647Y-69567743D02*
X187469219Y-69520124D01*
X187469219Y-69520124D02*
X187526362Y-69472504D01*
X187526362Y-69472504D02*
X187669219Y-69472504D01*
X187669219Y-69472504D02*
X187726362Y-69520124D01*
X187726362Y-69520124D02*
X187754933Y-69567743D01*
X187754933Y-69567743D02*
X187783504Y-69662981D01*
X187783504Y-69662981D02*
X187783504Y-69758219D01*
X187783504Y-69758219D02*
X187754933Y-69901076D01*
X187754933Y-69901076D02*
X187412076Y-70472504D01*
X187412076Y-70472504D02*
X187783504Y-70472504D01*
X188040648Y-70091552D02*
X188497791Y-70091552D01*
X188783505Y-69805838D02*
X189240648Y-70091552D01*
X189240648Y-70091552D02*
X188783505Y-70377266D01*
X192983505Y-51985838D02*
X192297790Y-52271552D01*
X192297790Y-52271552D02*
X192983505Y-52557266D01*
X193412076Y-52271552D02*
X194097791Y-52271552D01*
X194526362Y-52271552D02*
X195212077Y-52271552D01*
X186583505Y-50152504D02*
X186383505Y-49676314D01*
X186240648Y-50152504D02*
X186240648Y-49152504D01*
X186240648Y-49152504D02*
X186469219Y-49152504D01*
X186469219Y-49152504D02*
X186526362Y-49200124D01*
X186526362Y-49200124D02*
X186554933Y-49247743D01*
X186554933Y-49247743D02*
X186583505Y-49342981D01*
X186583505Y-49342981D02*
X186583505Y-49485838D01*
X186583505Y-49485838D02*
X186554933Y-49581076D01*
X186554933Y-49581076D02*
X186526362Y-49628695D01*
X186526362Y-49628695D02*
X186469219Y-49676314D01*
X186469219Y-49676314D02*
X186240648Y-49676314D01*
X186812076Y-49866790D02*
X187097791Y-49866790D01*
X186754933Y-50152504D02*
X186954933Y-49152504D01*
X186954933Y-49152504D02*
X187154933Y-50152504D01*
X187297791Y-49152504D02*
X187440648Y-50152504D01*
X187440648Y-50152504D02*
X187554934Y-49438219D01*
X187554934Y-49438219D02*
X187669219Y-50152504D01*
X187669219Y-50152504D02*
X187812077Y-49152504D01*
X188040648Y-49771552D02*
X188497791Y-49771552D01*
X188783505Y-49485838D02*
X189240648Y-49771552D01*
X189240648Y-49771552D02*
X188783505Y-50057266D01*
X201119220Y-70472504D02*
X200919220Y-69996314D01*
X200776363Y-70472504D02*
X200776363Y-69472504D01*
X200776363Y-69472504D02*
X201004934Y-69472504D01*
X201004934Y-69472504D02*
X201062077Y-69520124D01*
X201062077Y-69520124D02*
X201090648Y-69567743D01*
X201090648Y-69567743D02*
X201119220Y-69662981D01*
X201119220Y-69662981D02*
X201119220Y-69805838D01*
X201119220Y-69805838D02*
X201090648Y-69901076D01*
X201090648Y-69901076D02*
X201062077Y-69948695D01*
X201062077Y-69948695D02*
X201004934Y-69996314D01*
X201004934Y-69996314D02*
X200776363Y-69996314D01*
X201490648Y-69472504D02*
X201604934Y-69472504D01*
X201604934Y-69472504D02*
X201662077Y-69520124D01*
X201662077Y-69520124D02*
X201719220Y-69615362D01*
X201719220Y-69615362D02*
X201747791Y-69805838D01*
X201747791Y-69805838D02*
X201747791Y-70139171D01*
X201747791Y-70139171D02*
X201719220Y-70329647D01*
X201719220Y-70329647D02*
X201662077Y-70424885D01*
X201662077Y-70424885D02*
X201604934Y-70472504D01*
X201604934Y-70472504D02*
X201490648Y-70472504D01*
X201490648Y-70472504D02*
X201433506Y-70424885D01*
X201433506Y-70424885D02*
X201376363Y-70329647D01*
X201376363Y-70329647D02*
X201347791Y-70139171D01*
X201347791Y-70139171D02*
X201347791Y-69805838D01*
X201347791Y-69805838D02*
X201376363Y-69615362D01*
X201376363Y-69615362D02*
X201433506Y-69520124D01*
X201433506Y-69520124D02*
X201490648Y-69472504D01*
X201947791Y-69472504D02*
X202090648Y-70472504D01*
X202090648Y-70472504D02*
X202204934Y-69758219D01*
X202204934Y-69758219D02*
X202319219Y-70472504D01*
X202319219Y-70472504D02*
X202462077Y-69472504D01*
X203004933Y-70472504D02*
X202662076Y-70472504D01*
X202833505Y-70472504D02*
X202833505Y-69472504D01*
X202833505Y-69472504D02*
X202776362Y-69615362D01*
X202776362Y-69615362D02*
X202719219Y-69710600D01*
X202719219Y-69710600D02*
X202662076Y-69758219D01*
X203262077Y-70091552D02*
X203719220Y-70091552D01*
X204004934Y-69805838D02*
X204462077Y-70091552D01*
X204462077Y-70091552D02*
X204004934Y-70377266D01*
X201119220Y-73012504D02*
X200919220Y-72536314D01*
X200776363Y-73012504D02*
X200776363Y-72012504D01*
X200776363Y-72012504D02*
X201004934Y-72012504D01*
X201004934Y-72012504D02*
X201062077Y-72060124D01*
X201062077Y-72060124D02*
X201090648Y-72107743D01*
X201090648Y-72107743D02*
X201119220Y-72202981D01*
X201119220Y-72202981D02*
X201119220Y-72345838D01*
X201119220Y-72345838D02*
X201090648Y-72441076D01*
X201090648Y-72441076D02*
X201062077Y-72488695D01*
X201062077Y-72488695D02*
X201004934Y-72536314D01*
X201004934Y-72536314D02*
X200776363Y-72536314D01*
X201490648Y-72012504D02*
X201604934Y-72012504D01*
X201604934Y-72012504D02*
X201662077Y-72060124D01*
X201662077Y-72060124D02*
X201719220Y-72155362D01*
X201719220Y-72155362D02*
X201747791Y-72345838D01*
X201747791Y-72345838D02*
X201747791Y-72679171D01*
X201747791Y-72679171D02*
X201719220Y-72869647D01*
X201719220Y-72869647D02*
X201662077Y-72964885D01*
X201662077Y-72964885D02*
X201604934Y-73012504D01*
X201604934Y-73012504D02*
X201490648Y-73012504D01*
X201490648Y-73012504D02*
X201433506Y-72964885D01*
X201433506Y-72964885D02*
X201376363Y-72869647D01*
X201376363Y-72869647D02*
X201347791Y-72679171D01*
X201347791Y-72679171D02*
X201347791Y-72345838D01*
X201347791Y-72345838D02*
X201376363Y-72155362D01*
X201376363Y-72155362D02*
X201433506Y-72060124D01*
X201433506Y-72060124D02*
X201490648Y-72012504D01*
X201947791Y-72012504D02*
X202090648Y-73012504D01*
X202090648Y-73012504D02*
X202204934Y-72298219D01*
X202204934Y-72298219D02*
X202319219Y-73012504D01*
X202319219Y-73012504D02*
X202462077Y-72012504D01*
X202662076Y-72107743D02*
X202690648Y-72060124D01*
X202690648Y-72060124D02*
X202747791Y-72012504D01*
X202747791Y-72012504D02*
X202890648Y-72012504D01*
X202890648Y-72012504D02*
X202947791Y-72060124D01*
X202947791Y-72060124D02*
X202976362Y-72107743D01*
X202976362Y-72107743D02*
X203004933Y-72202981D01*
X203004933Y-72202981D02*
X203004933Y-72298219D01*
X203004933Y-72298219D02*
X202976362Y-72441076D01*
X202976362Y-72441076D02*
X202633505Y-73012504D01*
X202633505Y-73012504D02*
X203004933Y-73012504D01*
X203262077Y-72631552D02*
X203719220Y-72631552D01*
X204004934Y-72345838D02*
X204462077Y-72631552D01*
X204462077Y-72631552D02*
X204004934Y-72917266D01*
X186097791Y-72917266D02*
X186069219Y-72964885D01*
X186069219Y-72964885D02*
X185983505Y-73012504D01*
X185983505Y-73012504D02*
X185926362Y-73012504D01*
X185926362Y-73012504D02*
X185840648Y-72964885D01*
X185840648Y-72964885D02*
X185783505Y-72869647D01*
X185783505Y-72869647D02*
X185754934Y-72774409D01*
X185754934Y-72774409D02*
X185726362Y-72583933D01*
X185726362Y-72583933D02*
X185726362Y-72441076D01*
X185726362Y-72441076D02*
X185754934Y-72250600D01*
X185754934Y-72250600D02*
X185783505Y-72155362D01*
X185783505Y-72155362D02*
X185840648Y-72060124D01*
X185840648Y-72060124D02*
X185926362Y-72012504D01*
X185926362Y-72012504D02*
X185983505Y-72012504D01*
X185983505Y-72012504D02*
X186069219Y-72060124D01*
X186069219Y-72060124D02*
X186097791Y-72107743D01*
X186469219Y-72012504D02*
X186583505Y-72012504D01*
X186583505Y-72012504D02*
X186640648Y-72060124D01*
X186640648Y-72060124D02*
X186697791Y-72155362D01*
X186697791Y-72155362D02*
X186726362Y-72345838D01*
X186726362Y-72345838D02*
X186726362Y-72679171D01*
X186726362Y-72679171D02*
X186697791Y-72869647D01*
X186697791Y-72869647D02*
X186640648Y-72964885D01*
X186640648Y-72964885D02*
X186583505Y-73012504D01*
X186583505Y-73012504D02*
X186469219Y-73012504D01*
X186469219Y-73012504D02*
X186412077Y-72964885D01*
X186412077Y-72964885D02*
X186354934Y-72869647D01*
X186354934Y-72869647D02*
X186326362Y-72679171D01*
X186326362Y-72679171D02*
X186326362Y-72345838D01*
X186326362Y-72345838D02*
X186354934Y-72155362D01*
X186354934Y-72155362D02*
X186412077Y-72060124D01*
X186412077Y-72060124D02*
X186469219Y-72012504D01*
X187269219Y-73012504D02*
X186983505Y-73012504D01*
X186983505Y-73012504D02*
X186983505Y-72012504D01*
X187412076Y-72012504D02*
X187783504Y-72012504D01*
X187783504Y-72012504D02*
X187583504Y-72393457D01*
X187583504Y-72393457D02*
X187669219Y-72393457D01*
X187669219Y-72393457D02*
X187726362Y-72441076D01*
X187726362Y-72441076D02*
X187754933Y-72488695D01*
X187754933Y-72488695D02*
X187783504Y-72583933D01*
X187783504Y-72583933D02*
X187783504Y-72822028D01*
X187783504Y-72822028D02*
X187754933Y-72917266D01*
X187754933Y-72917266D02*
X187726362Y-72964885D01*
X187726362Y-72964885D02*
X187669219Y-73012504D01*
X187669219Y-73012504D02*
X187497790Y-73012504D01*
X187497790Y-73012504D02*
X187440647Y-72964885D01*
X187440647Y-72964885D02*
X187412076Y-72917266D01*
X188040648Y-72631552D02*
X188497791Y-72631552D01*
X188783505Y-72345838D02*
X189240648Y-72631552D01*
X189240648Y-72631552D02*
X188783505Y-72917266D01*
X186097791Y-65297266D02*
X186069219Y-65344885D01*
X186069219Y-65344885D02*
X185983505Y-65392504D01*
X185983505Y-65392504D02*
X185926362Y-65392504D01*
X185926362Y-65392504D02*
X185840648Y-65344885D01*
X185840648Y-65344885D02*
X185783505Y-65249647D01*
X185783505Y-65249647D02*
X185754934Y-65154409D01*
X185754934Y-65154409D02*
X185726362Y-64963933D01*
X185726362Y-64963933D02*
X185726362Y-64821076D01*
X185726362Y-64821076D02*
X185754934Y-64630600D01*
X185754934Y-64630600D02*
X185783505Y-64535362D01*
X185783505Y-64535362D02*
X185840648Y-64440124D01*
X185840648Y-64440124D02*
X185926362Y-64392504D01*
X185926362Y-64392504D02*
X185983505Y-64392504D01*
X185983505Y-64392504D02*
X186069219Y-64440124D01*
X186069219Y-64440124D02*
X186097791Y-64487743D01*
X186469219Y-64392504D02*
X186583505Y-64392504D01*
X186583505Y-64392504D02*
X186640648Y-64440124D01*
X186640648Y-64440124D02*
X186697791Y-64535362D01*
X186697791Y-64535362D02*
X186726362Y-64725838D01*
X186726362Y-64725838D02*
X186726362Y-65059171D01*
X186726362Y-65059171D02*
X186697791Y-65249647D01*
X186697791Y-65249647D02*
X186640648Y-65344885D01*
X186640648Y-65344885D02*
X186583505Y-65392504D01*
X186583505Y-65392504D02*
X186469219Y-65392504D01*
X186469219Y-65392504D02*
X186412077Y-65344885D01*
X186412077Y-65344885D02*
X186354934Y-65249647D01*
X186354934Y-65249647D02*
X186326362Y-65059171D01*
X186326362Y-65059171D02*
X186326362Y-64725838D01*
X186326362Y-64725838D02*
X186354934Y-64535362D01*
X186354934Y-64535362D02*
X186412077Y-64440124D01*
X186412077Y-64440124D02*
X186469219Y-64392504D01*
X187269219Y-65392504D02*
X186983505Y-65392504D01*
X186983505Y-65392504D02*
X186983505Y-64392504D01*
X187583504Y-64392504D02*
X187640647Y-64392504D01*
X187640647Y-64392504D02*
X187697790Y-64440124D01*
X187697790Y-64440124D02*
X187726362Y-64487743D01*
X187726362Y-64487743D02*
X187754933Y-64582981D01*
X187754933Y-64582981D02*
X187783504Y-64773457D01*
X187783504Y-64773457D02*
X187783504Y-65011552D01*
X187783504Y-65011552D02*
X187754933Y-65202028D01*
X187754933Y-65202028D02*
X187726362Y-65297266D01*
X187726362Y-65297266D02*
X187697790Y-65344885D01*
X187697790Y-65344885D02*
X187640647Y-65392504D01*
X187640647Y-65392504D02*
X187583504Y-65392504D01*
X187583504Y-65392504D02*
X187526362Y-65344885D01*
X187526362Y-65344885D02*
X187497790Y-65297266D01*
X187497790Y-65297266D02*
X187469219Y-65202028D01*
X187469219Y-65202028D02*
X187440647Y-65011552D01*
X187440647Y-65011552D02*
X187440647Y-64773457D01*
X187440647Y-64773457D02*
X187469219Y-64582981D01*
X187469219Y-64582981D02*
X187497790Y-64487743D01*
X187497790Y-64487743D02*
X187526362Y-64440124D01*
X187526362Y-64440124D02*
X187583504Y-64392504D01*
X188040648Y-65011552D02*
X188497791Y-65011552D01*
X188783505Y-64725838D02*
X189240648Y-65011552D01*
X189240648Y-65011552D02*
X188783505Y-65297266D01*
X185297791Y-62328695D02*
X185497791Y-62328695D01*
X185583505Y-62852504D02*
X185297791Y-62852504D01*
X185297791Y-62852504D02*
X185297791Y-61852504D01*
X185297791Y-61852504D02*
X185583505Y-61852504D01*
X185840648Y-62852504D02*
X185840648Y-61852504D01*
X185840648Y-61852504D02*
X186183505Y-62852504D01*
X186183505Y-62852504D02*
X186183505Y-61852504D01*
X186812076Y-62757266D02*
X186783504Y-62804885D01*
X186783504Y-62804885D02*
X186697790Y-62852504D01*
X186697790Y-62852504D02*
X186640647Y-62852504D01*
X186640647Y-62852504D02*
X186554933Y-62804885D01*
X186554933Y-62804885D02*
X186497790Y-62709647D01*
X186497790Y-62709647D02*
X186469219Y-62614409D01*
X186469219Y-62614409D02*
X186440647Y-62423933D01*
X186440647Y-62423933D02*
X186440647Y-62281076D01*
X186440647Y-62281076D02*
X186469219Y-62090600D01*
X186469219Y-62090600D02*
X186497790Y-61995362D01*
X186497790Y-61995362D02*
X186554933Y-61900124D01*
X186554933Y-61900124D02*
X186640647Y-61852504D01*
X186640647Y-61852504D02*
X186697790Y-61852504D01*
X186697790Y-61852504D02*
X186783504Y-61900124D01*
X186783504Y-61900124D02*
X186812076Y-61947743D01*
X186926362Y-62947743D02*
X187383504Y-62947743D01*
X187497790Y-62566790D02*
X187783505Y-62566790D01*
X187440647Y-62852504D02*
X187640647Y-61852504D01*
X187640647Y-61852504D02*
X187840647Y-62852504D01*
X188040648Y-62471552D02*
X188497791Y-62471552D01*
X188783505Y-62185838D02*
X189240648Y-62471552D01*
X189240648Y-62471552D02*
X188783505Y-62757266D01*
X201119220Y-78092504D02*
X200919220Y-77616314D01*
X200776363Y-78092504D02*
X200776363Y-77092504D01*
X200776363Y-77092504D02*
X201004934Y-77092504D01*
X201004934Y-77092504D02*
X201062077Y-77140124D01*
X201062077Y-77140124D02*
X201090648Y-77187743D01*
X201090648Y-77187743D02*
X201119220Y-77282981D01*
X201119220Y-77282981D02*
X201119220Y-77425838D01*
X201119220Y-77425838D02*
X201090648Y-77521076D01*
X201090648Y-77521076D02*
X201062077Y-77568695D01*
X201062077Y-77568695D02*
X201004934Y-77616314D01*
X201004934Y-77616314D02*
X200776363Y-77616314D01*
X201490648Y-77092504D02*
X201604934Y-77092504D01*
X201604934Y-77092504D02*
X201662077Y-77140124D01*
X201662077Y-77140124D02*
X201719220Y-77235362D01*
X201719220Y-77235362D02*
X201747791Y-77425838D01*
X201747791Y-77425838D02*
X201747791Y-77759171D01*
X201747791Y-77759171D02*
X201719220Y-77949647D01*
X201719220Y-77949647D02*
X201662077Y-78044885D01*
X201662077Y-78044885D02*
X201604934Y-78092504D01*
X201604934Y-78092504D02*
X201490648Y-78092504D01*
X201490648Y-78092504D02*
X201433506Y-78044885D01*
X201433506Y-78044885D02*
X201376363Y-77949647D01*
X201376363Y-77949647D02*
X201347791Y-77759171D01*
X201347791Y-77759171D02*
X201347791Y-77425838D01*
X201347791Y-77425838D02*
X201376363Y-77235362D01*
X201376363Y-77235362D02*
X201433506Y-77140124D01*
X201433506Y-77140124D02*
X201490648Y-77092504D01*
X201947791Y-77092504D02*
X202090648Y-78092504D01*
X202090648Y-78092504D02*
X202204934Y-77378219D01*
X202204934Y-77378219D02*
X202319219Y-78092504D01*
X202319219Y-78092504D02*
X202462077Y-77092504D01*
X202633505Y-77092504D02*
X203004933Y-77092504D01*
X203004933Y-77092504D02*
X202804933Y-77473457D01*
X202804933Y-77473457D02*
X202890648Y-77473457D01*
X202890648Y-77473457D02*
X202947791Y-77521076D01*
X202947791Y-77521076D02*
X202976362Y-77568695D01*
X202976362Y-77568695D02*
X203004933Y-77663933D01*
X203004933Y-77663933D02*
X203004933Y-77902028D01*
X203004933Y-77902028D02*
X202976362Y-77997266D01*
X202976362Y-77997266D02*
X202947791Y-78044885D01*
X202947791Y-78044885D02*
X202890648Y-78092504D01*
X202890648Y-78092504D02*
X202719219Y-78092504D01*
X202719219Y-78092504D02*
X202662076Y-78044885D01*
X202662076Y-78044885D02*
X202633505Y-77997266D01*
X203262077Y-77711552D02*
X203719220Y-77711552D01*
X204004934Y-77425838D02*
X204462077Y-77711552D01*
X204462077Y-77711552D02*
X204004934Y-77997266D01*
X201176363Y-52692504D02*
X201176363Y-51692504D01*
X201176363Y-51692504D02*
X201319220Y-51692504D01*
X201319220Y-51692504D02*
X201404934Y-51740124D01*
X201404934Y-51740124D02*
X201462077Y-51835362D01*
X201462077Y-51835362D02*
X201490648Y-51930600D01*
X201490648Y-51930600D02*
X201519220Y-52121076D01*
X201519220Y-52121076D02*
X201519220Y-52263933D01*
X201519220Y-52263933D02*
X201490648Y-52454409D01*
X201490648Y-52454409D02*
X201462077Y-52549647D01*
X201462077Y-52549647D02*
X201404934Y-52644885D01*
X201404934Y-52644885D02*
X201319220Y-52692504D01*
X201319220Y-52692504D02*
X201176363Y-52692504D01*
X201747791Y-52406790D02*
X202033506Y-52406790D01*
X201690648Y-52692504D02*
X201890648Y-51692504D01*
X201890648Y-51692504D02*
X202090648Y-52692504D01*
X202204934Y-51692504D02*
X202547792Y-51692504D01*
X202376363Y-52692504D02*
X202376363Y-51692504D01*
X202719220Y-52406790D02*
X203004935Y-52406790D01*
X202662077Y-52692504D02*
X202862077Y-51692504D01*
X202862077Y-51692504D02*
X203062077Y-52692504D01*
X203262078Y-52311552D02*
X203719221Y-52311552D01*
X204004935Y-52025838D02*
X204462078Y-52311552D01*
X204462078Y-52311552D02*
X204004935Y-52597266D01*
D12*
X195972433Y-53365980D02*
X197472433Y-53365980D01*
X197472433Y-53365980D02*
X196401005Y-53665980D01*
X196401005Y-53665980D02*
X197472433Y-53965980D01*
X197472433Y-53965980D02*
X195972433Y-53965980D01*
X195972433Y-54780266D02*
X196758147Y-54780266D01*
X196758147Y-54780266D02*
X196901005Y-54737408D01*
X196901005Y-54737408D02*
X196972433Y-54651694D01*
X196972433Y-54651694D02*
X196972433Y-54480266D01*
X196972433Y-54480266D02*
X196901005Y-54394551D01*
X196043862Y-54780266D02*
X195972433Y-54694551D01*
X195972433Y-54694551D02*
X195972433Y-54480266D01*
X195972433Y-54480266D02*
X196043862Y-54394551D01*
X196043862Y-54394551D02*
X196186719Y-54351694D01*
X196186719Y-54351694D02*
X196329576Y-54351694D01*
X196329576Y-54351694D02*
X196472433Y-54394551D01*
X196472433Y-54394551D02*
X196543862Y-54480266D01*
X196543862Y-54480266D02*
X196543862Y-54694551D01*
X196543862Y-54694551D02*
X196615290Y-54780266D01*
X196972433Y-55080266D02*
X196972433Y-55423123D01*
X197472433Y-55208837D02*
X196186719Y-55208837D01*
X196186719Y-55208837D02*
X196043862Y-55251694D01*
X196043862Y-55251694D02*
X195972433Y-55337409D01*
X195972433Y-55337409D02*
X195972433Y-55423123D01*
X196043862Y-56108838D02*
X195972433Y-56023123D01*
X195972433Y-56023123D02*
X195972433Y-55851695D01*
X195972433Y-55851695D02*
X196043862Y-55765980D01*
X196043862Y-55765980D02*
X196115290Y-55723123D01*
X196115290Y-55723123D02*
X196258147Y-55680266D01*
X196258147Y-55680266D02*
X196686719Y-55680266D01*
X196686719Y-55680266D02*
X196829576Y-55723123D01*
X196829576Y-55723123D02*
X196901005Y-55765980D01*
X196901005Y-55765980D02*
X196972433Y-55851695D01*
X196972433Y-55851695D02*
X196972433Y-56023123D01*
X196972433Y-56023123D02*
X196901005Y-56108838D01*
X195972433Y-56494552D02*
X197472433Y-56494552D01*
X195972433Y-56880267D02*
X196758147Y-56880267D01*
X196758147Y-56880267D02*
X196901005Y-56837409D01*
X196901005Y-56837409D02*
X196972433Y-56751695D01*
X196972433Y-56751695D02*
X196972433Y-56623124D01*
X196972433Y-56623124D02*
X196901005Y-56537409D01*
X196901005Y-56537409D02*
X196829576Y-56494552D01*
X196972433Y-57763124D02*
X195972433Y-57934553D01*
X195972433Y-57934553D02*
X196686719Y-58105981D01*
X196686719Y-58105981D02*
X195972433Y-58277410D01*
X195972433Y-58277410D02*
X196972433Y-58448838D01*
X195972433Y-58791695D02*
X196972433Y-58791695D01*
X197472433Y-58791695D02*
X197401005Y-58748838D01*
X197401005Y-58748838D02*
X197329576Y-58791695D01*
X197329576Y-58791695D02*
X197401005Y-58834552D01*
X197401005Y-58834552D02*
X197472433Y-58791695D01*
X197472433Y-58791695D02*
X197329576Y-58791695D01*
X196972433Y-59091695D02*
X196972433Y-59434552D01*
X197472433Y-59220266D02*
X196186719Y-59220266D01*
X196186719Y-59220266D02*
X196043862Y-59263123D01*
X196043862Y-59263123D02*
X195972433Y-59348838D01*
X195972433Y-59348838D02*
X195972433Y-59434552D01*
X195972433Y-59734552D02*
X197472433Y-59734552D01*
X195972433Y-60120267D02*
X196758147Y-60120267D01*
X196758147Y-60120267D02*
X196901005Y-60077409D01*
X196901005Y-60077409D02*
X196972433Y-59991695D01*
X196972433Y-59991695D02*
X196972433Y-59863124D01*
X196972433Y-59863124D02*
X196901005Y-59777409D01*
X196901005Y-59777409D02*
X196829576Y-59734552D01*
X195972433Y-61088838D02*
X197472433Y-61088838D01*
X197472433Y-61088838D02*
X196401005Y-61388838D01*
X196401005Y-61388838D02*
X197472433Y-61688838D01*
X197472433Y-61688838D02*
X195972433Y-61688838D01*
X196115290Y-62631695D02*
X196043862Y-62588838D01*
X196043862Y-62588838D02*
X195972433Y-62460266D01*
X195972433Y-62460266D02*
X195972433Y-62374552D01*
X195972433Y-62374552D02*
X196043862Y-62245981D01*
X196043862Y-62245981D02*
X196186719Y-62160266D01*
X196186719Y-62160266D02*
X196329576Y-62117409D01*
X196329576Y-62117409D02*
X196615290Y-62074552D01*
X196615290Y-62074552D02*
X196829576Y-62074552D01*
X196829576Y-62074552D02*
X197115290Y-62117409D01*
X197115290Y-62117409D02*
X197258147Y-62160266D01*
X197258147Y-62160266D02*
X197401005Y-62245981D01*
X197401005Y-62245981D02*
X197472433Y-62374552D01*
X197472433Y-62374552D02*
X197472433Y-62460266D01*
X197472433Y-62460266D02*
X197401005Y-62588838D01*
X197401005Y-62588838D02*
X197329576Y-62631695D01*
X197472433Y-63017409D02*
X196258147Y-63017409D01*
X196258147Y-63017409D02*
X196115290Y-63060266D01*
X196115290Y-63060266D02*
X196043862Y-63103124D01*
X196043862Y-63103124D02*
X195972433Y-63188838D01*
X195972433Y-63188838D02*
X195972433Y-63360266D01*
X195972433Y-63360266D02*
X196043862Y-63445981D01*
X196043862Y-63445981D02*
X196115290Y-63488838D01*
X196115290Y-63488838D02*
X196258147Y-63531695D01*
X196258147Y-63531695D02*
X197472433Y-63531695D01*
X196972433Y-64500266D02*
X195472433Y-64500266D01*
X196901005Y-64500266D02*
X196972433Y-64585981D01*
X196972433Y-64585981D02*
X196972433Y-64757409D01*
X196972433Y-64757409D02*
X196901005Y-64843123D01*
X196901005Y-64843123D02*
X196829576Y-64885981D01*
X196829576Y-64885981D02*
X196686719Y-64928838D01*
X196686719Y-64928838D02*
X196258147Y-64928838D01*
X196258147Y-64928838D02*
X196115290Y-64885981D01*
X196115290Y-64885981D02*
X196043862Y-64843123D01*
X196043862Y-64843123D02*
X195972433Y-64757409D01*
X195972433Y-64757409D02*
X195972433Y-64585981D01*
X195972433Y-64585981D02*
X196043862Y-64500266D01*
X195972433Y-65314552D02*
X196972433Y-65314552D01*
X197472433Y-65314552D02*
X197401005Y-65271695D01*
X197401005Y-65271695D02*
X197329576Y-65314552D01*
X197329576Y-65314552D02*
X197401005Y-65357409D01*
X197401005Y-65357409D02*
X197472433Y-65314552D01*
X197472433Y-65314552D02*
X197329576Y-65314552D01*
X196972433Y-65743123D02*
X195972433Y-65743123D01*
X196829576Y-65743123D02*
X196901005Y-65785980D01*
X196901005Y-65785980D02*
X196972433Y-65871695D01*
X196972433Y-65871695D02*
X196972433Y-66000266D01*
X196972433Y-66000266D02*
X196901005Y-66085980D01*
X196901005Y-66085980D02*
X196758147Y-66128838D01*
X196758147Y-66128838D02*
X195972433Y-66128838D01*
X195972433Y-67225981D02*
X196043862Y-67140266D01*
X196043862Y-67140266D02*
X196186719Y-67097409D01*
X196186719Y-67097409D02*
X197472433Y-67097409D01*
X195972433Y-67954553D02*
X196758147Y-67954553D01*
X196758147Y-67954553D02*
X196901005Y-67911695D01*
X196901005Y-67911695D02*
X196972433Y-67825981D01*
X196972433Y-67825981D02*
X196972433Y-67654553D01*
X196972433Y-67654553D02*
X196901005Y-67568838D01*
X196043862Y-67954553D02*
X195972433Y-67868838D01*
X195972433Y-67868838D02*
X195972433Y-67654553D01*
X195972433Y-67654553D02*
X196043862Y-67568838D01*
X196043862Y-67568838D02*
X196186719Y-67525981D01*
X196186719Y-67525981D02*
X196329576Y-67525981D01*
X196329576Y-67525981D02*
X196472433Y-67568838D01*
X196472433Y-67568838D02*
X196543862Y-67654553D01*
X196543862Y-67654553D02*
X196543862Y-67868838D01*
X196543862Y-67868838D02*
X196615290Y-67954553D01*
X195972433Y-68383124D02*
X197472433Y-68383124D01*
X196901005Y-68383124D02*
X196972433Y-68468839D01*
X196972433Y-68468839D02*
X196972433Y-68640267D01*
X196972433Y-68640267D02*
X196901005Y-68725981D01*
X196901005Y-68725981D02*
X196829576Y-68768839D01*
X196829576Y-68768839D02*
X196686719Y-68811696D01*
X196686719Y-68811696D02*
X196258147Y-68811696D01*
X196258147Y-68811696D02*
X196115290Y-68768839D01*
X196115290Y-68768839D02*
X196043862Y-68725981D01*
X196043862Y-68725981D02*
X195972433Y-68640267D01*
X195972433Y-68640267D02*
X195972433Y-68468839D01*
X195972433Y-68468839D02*
X196043862Y-68383124D01*
X196043862Y-69540267D02*
X195972433Y-69454553D01*
X195972433Y-69454553D02*
X195972433Y-69283125D01*
X195972433Y-69283125D02*
X196043862Y-69197410D01*
X196043862Y-69197410D02*
X196186719Y-69154553D01*
X196186719Y-69154553D02*
X196758147Y-69154553D01*
X196758147Y-69154553D02*
X196901005Y-69197410D01*
X196901005Y-69197410D02*
X196972433Y-69283125D01*
X196972433Y-69283125D02*
X196972433Y-69454553D01*
X196972433Y-69454553D02*
X196901005Y-69540267D01*
X196901005Y-69540267D02*
X196758147Y-69583125D01*
X196758147Y-69583125D02*
X196615290Y-69583125D01*
X196615290Y-69583125D02*
X196472433Y-69154553D01*
X195972433Y-70097411D02*
X196043862Y-70011696D01*
X196043862Y-70011696D02*
X196186719Y-69968839D01*
X196186719Y-69968839D02*
X197472433Y-69968839D01*
X196043862Y-70397411D02*
X195972433Y-70483125D01*
X195972433Y-70483125D02*
X195972433Y-70654554D01*
X195972433Y-70654554D02*
X196043862Y-70740268D01*
X196043862Y-70740268D02*
X196186719Y-70783125D01*
X196186719Y-70783125D02*
X196258147Y-70783125D01*
X196258147Y-70783125D02*
X196401005Y-70740268D01*
X196401005Y-70740268D02*
X196472433Y-70654554D01*
X196472433Y-70654554D02*
X196472433Y-70525983D01*
X196472433Y-70525983D02*
X196543862Y-70440268D01*
X196543862Y-70440268D02*
X196686719Y-70397411D01*
X196686719Y-70397411D02*
X196758147Y-70397411D01*
X196758147Y-70397411D02*
X196901005Y-70440268D01*
X196901005Y-70440268D02*
X196972433Y-70525983D01*
X196972433Y-70525983D02*
X196972433Y-70654554D01*
X196972433Y-70654554D02*
X196901005Y-70740268D01*
D11*
X186754933Y-55232504D02*
X186554933Y-54756314D01*
X186412076Y-55232504D02*
X186412076Y-54232504D01*
X186412076Y-54232504D02*
X186640647Y-54232504D01*
X186640647Y-54232504D02*
X186697790Y-54280124D01*
X186697790Y-54280124D02*
X186726361Y-54327743D01*
X186726361Y-54327743D02*
X186754933Y-54422981D01*
X186754933Y-54422981D02*
X186754933Y-54565838D01*
X186754933Y-54565838D02*
X186726361Y-54661076D01*
X186726361Y-54661076D02*
X186697790Y-54708695D01*
X186697790Y-54708695D02*
X186640647Y-54756314D01*
X186640647Y-54756314D02*
X186412076Y-54756314D01*
X186983504Y-55184885D02*
X187069219Y-55232504D01*
X187069219Y-55232504D02*
X187212076Y-55232504D01*
X187212076Y-55232504D02*
X187269219Y-55184885D01*
X187269219Y-55184885D02*
X187297790Y-55137266D01*
X187297790Y-55137266D02*
X187326361Y-55042028D01*
X187326361Y-55042028D02*
X187326361Y-54946790D01*
X187326361Y-54946790D02*
X187297790Y-54851552D01*
X187297790Y-54851552D02*
X187269219Y-54803933D01*
X187269219Y-54803933D02*
X187212076Y-54756314D01*
X187212076Y-54756314D02*
X187097790Y-54708695D01*
X187097790Y-54708695D02*
X187040647Y-54661076D01*
X187040647Y-54661076D02*
X187012076Y-54613457D01*
X187012076Y-54613457D02*
X186983504Y-54518219D01*
X186983504Y-54518219D02*
X186983504Y-54422981D01*
X186983504Y-54422981D02*
X187012076Y-54327743D01*
X187012076Y-54327743D02*
X187040647Y-54280124D01*
X187040647Y-54280124D02*
X187097790Y-54232504D01*
X187097790Y-54232504D02*
X187240647Y-54232504D01*
X187240647Y-54232504D02*
X187326361Y-54280124D01*
X187497790Y-54232504D02*
X187840648Y-54232504D01*
X187669219Y-55232504D02*
X187669219Y-54232504D01*
X188040648Y-54851552D02*
X188497791Y-54851552D01*
X188783505Y-54565838D02*
X189240648Y-54851552D01*
X189240648Y-54851552D02*
X188783505Y-55137266D01*
X185212077Y-59788695D02*
X185412077Y-59788695D01*
X185497791Y-60312504D02*
X185212077Y-60312504D01*
X185212077Y-60312504D02*
X185212077Y-59312504D01*
X185212077Y-59312504D02*
X185497791Y-59312504D01*
X185754934Y-60312504D02*
X185754934Y-59312504D01*
X185754934Y-59312504D02*
X186097791Y-60312504D01*
X186097791Y-60312504D02*
X186097791Y-59312504D01*
X186726362Y-60217266D02*
X186697790Y-60264885D01*
X186697790Y-60264885D02*
X186612076Y-60312504D01*
X186612076Y-60312504D02*
X186554933Y-60312504D01*
X186554933Y-60312504D02*
X186469219Y-60264885D01*
X186469219Y-60264885D02*
X186412076Y-60169647D01*
X186412076Y-60169647D02*
X186383505Y-60074409D01*
X186383505Y-60074409D02*
X186354933Y-59883933D01*
X186354933Y-59883933D02*
X186354933Y-59741076D01*
X186354933Y-59741076D02*
X186383505Y-59550600D01*
X186383505Y-59550600D02*
X186412076Y-59455362D01*
X186412076Y-59455362D02*
X186469219Y-59360124D01*
X186469219Y-59360124D02*
X186554933Y-59312504D01*
X186554933Y-59312504D02*
X186612076Y-59312504D01*
X186612076Y-59312504D02*
X186697790Y-59360124D01*
X186697790Y-59360124D02*
X186726362Y-59407743D01*
X186840648Y-60407743D02*
X187297790Y-60407743D01*
X187640648Y-59788695D02*
X187726362Y-59836314D01*
X187726362Y-59836314D02*
X187754933Y-59883933D01*
X187754933Y-59883933D02*
X187783505Y-59979171D01*
X187783505Y-59979171D02*
X187783505Y-60122028D01*
X187783505Y-60122028D02*
X187754933Y-60217266D01*
X187754933Y-60217266D02*
X187726362Y-60264885D01*
X187726362Y-60264885D02*
X187669219Y-60312504D01*
X187669219Y-60312504D02*
X187440648Y-60312504D01*
X187440648Y-60312504D02*
X187440648Y-59312504D01*
X187440648Y-59312504D02*
X187640648Y-59312504D01*
X187640648Y-59312504D02*
X187697791Y-59360124D01*
X187697791Y-59360124D02*
X187726362Y-59407743D01*
X187726362Y-59407743D02*
X187754933Y-59502981D01*
X187754933Y-59502981D02*
X187754933Y-59598219D01*
X187754933Y-59598219D02*
X187726362Y-59693457D01*
X187726362Y-59693457D02*
X187697791Y-59741076D01*
X187697791Y-59741076D02*
X187640648Y-59788695D01*
X187640648Y-59788695D02*
X187440648Y-59788695D01*
X188040648Y-59931552D02*
X188497791Y-59931552D01*
X188783505Y-59645838D02*
X189240648Y-59931552D01*
X189240648Y-59931552D02*
X188783505Y-60217266D01*
X201919220Y-50152504D02*
X201633506Y-50152504D01*
X201633506Y-50152504D02*
X201633506Y-49152504D01*
X202119220Y-49628695D02*
X202319220Y-49628695D01*
X202404934Y-50152504D02*
X202119220Y-50152504D01*
X202119220Y-50152504D02*
X202119220Y-49152504D01*
X202119220Y-49152504D02*
X202404934Y-49152504D01*
X202662077Y-50152504D02*
X202662077Y-49152504D01*
X202662077Y-49152504D02*
X202804934Y-49152504D01*
X202804934Y-49152504D02*
X202890648Y-49200124D01*
X202890648Y-49200124D02*
X202947791Y-49295362D01*
X202947791Y-49295362D02*
X202976362Y-49390600D01*
X202976362Y-49390600D02*
X203004934Y-49581076D01*
X203004934Y-49581076D02*
X203004934Y-49723933D01*
X203004934Y-49723933D02*
X202976362Y-49914409D01*
X202976362Y-49914409D02*
X202947791Y-50009647D01*
X202947791Y-50009647D02*
X202890648Y-50104885D01*
X202890648Y-50104885D02*
X202804934Y-50152504D01*
X202804934Y-50152504D02*
X202662077Y-50152504D01*
X203262077Y-49771552D02*
X203719220Y-49771552D01*
X204004934Y-49485838D02*
X204462077Y-49771552D01*
X204462077Y-49771552D02*
X204004934Y-50057266D01*
X198196932Y-57279552D02*
X198882647Y-57279552D01*
X199311218Y-57279552D02*
X199996933Y-57279552D01*
X200425504Y-56993838D02*
X201111219Y-57279552D01*
X201111219Y-57279552D02*
X200425504Y-57565266D01*
X186097791Y-77997266D02*
X186069219Y-78044885D01*
X186069219Y-78044885D02*
X185983505Y-78092504D01*
X185983505Y-78092504D02*
X185926362Y-78092504D01*
X185926362Y-78092504D02*
X185840648Y-78044885D01*
X185840648Y-78044885D02*
X185783505Y-77949647D01*
X185783505Y-77949647D02*
X185754934Y-77854409D01*
X185754934Y-77854409D02*
X185726362Y-77663933D01*
X185726362Y-77663933D02*
X185726362Y-77521076D01*
X185726362Y-77521076D02*
X185754934Y-77330600D01*
X185754934Y-77330600D02*
X185783505Y-77235362D01*
X185783505Y-77235362D02*
X185840648Y-77140124D01*
X185840648Y-77140124D02*
X185926362Y-77092504D01*
X185926362Y-77092504D02*
X185983505Y-77092504D01*
X185983505Y-77092504D02*
X186069219Y-77140124D01*
X186069219Y-77140124D02*
X186097791Y-77187743D01*
X186469219Y-77092504D02*
X186583505Y-77092504D01*
X186583505Y-77092504D02*
X186640648Y-77140124D01*
X186640648Y-77140124D02*
X186697791Y-77235362D01*
X186697791Y-77235362D02*
X186726362Y-77425838D01*
X186726362Y-77425838D02*
X186726362Y-77759171D01*
X186726362Y-77759171D02*
X186697791Y-77949647D01*
X186697791Y-77949647D02*
X186640648Y-78044885D01*
X186640648Y-78044885D02*
X186583505Y-78092504D01*
X186583505Y-78092504D02*
X186469219Y-78092504D01*
X186469219Y-78092504D02*
X186412077Y-78044885D01*
X186412077Y-78044885D02*
X186354934Y-77949647D01*
X186354934Y-77949647D02*
X186326362Y-77759171D01*
X186326362Y-77759171D02*
X186326362Y-77425838D01*
X186326362Y-77425838D02*
X186354934Y-77235362D01*
X186354934Y-77235362D02*
X186412077Y-77140124D01*
X186412077Y-77140124D02*
X186469219Y-77092504D01*
X187269219Y-78092504D02*
X186983505Y-78092504D01*
X186983505Y-78092504D02*
X186983505Y-77092504D01*
X187754933Y-77092504D02*
X187469219Y-77092504D01*
X187469219Y-77092504D02*
X187440647Y-77568695D01*
X187440647Y-77568695D02*
X187469219Y-77521076D01*
X187469219Y-77521076D02*
X187526362Y-77473457D01*
X187526362Y-77473457D02*
X187669219Y-77473457D01*
X187669219Y-77473457D02*
X187726362Y-77521076D01*
X187726362Y-77521076D02*
X187754933Y-77568695D01*
X187754933Y-77568695D02*
X187783504Y-77663933D01*
X187783504Y-77663933D02*
X187783504Y-77902028D01*
X187783504Y-77902028D02*
X187754933Y-77997266D01*
X187754933Y-77997266D02*
X187726362Y-78044885D01*
X187726362Y-78044885D02*
X187669219Y-78092504D01*
X187669219Y-78092504D02*
X187526362Y-78092504D01*
X187526362Y-78092504D02*
X187469219Y-78044885D01*
X187469219Y-78044885D02*
X187440647Y-77997266D01*
X188040648Y-77711552D02*
X188497791Y-77711552D01*
X188783505Y-77425838D02*
X189240648Y-77711552D01*
X189240648Y-77711552D02*
X188783505Y-77997266D01*
X186240647Y-56772504D02*
X186440647Y-57772504D01*
X186440647Y-57772504D02*
X186640647Y-56772504D01*
X187183505Y-57677266D02*
X187154933Y-57724885D01*
X187154933Y-57724885D02*
X187069219Y-57772504D01*
X187069219Y-57772504D02*
X187012076Y-57772504D01*
X187012076Y-57772504D02*
X186926362Y-57724885D01*
X186926362Y-57724885D02*
X186869219Y-57629647D01*
X186869219Y-57629647D02*
X186840648Y-57534409D01*
X186840648Y-57534409D02*
X186812076Y-57343933D01*
X186812076Y-57343933D02*
X186812076Y-57201076D01*
X186812076Y-57201076D02*
X186840648Y-57010600D01*
X186840648Y-57010600D02*
X186869219Y-56915362D01*
X186869219Y-56915362D02*
X186926362Y-56820124D01*
X186926362Y-56820124D02*
X187012076Y-56772504D01*
X187012076Y-56772504D02*
X187069219Y-56772504D01*
X187069219Y-56772504D02*
X187154933Y-56820124D01*
X187154933Y-56820124D02*
X187183505Y-56867743D01*
X187783505Y-57677266D02*
X187754933Y-57724885D01*
X187754933Y-57724885D02*
X187669219Y-57772504D01*
X187669219Y-57772504D02*
X187612076Y-57772504D01*
X187612076Y-57772504D02*
X187526362Y-57724885D01*
X187526362Y-57724885D02*
X187469219Y-57629647D01*
X187469219Y-57629647D02*
X187440648Y-57534409D01*
X187440648Y-57534409D02*
X187412076Y-57343933D01*
X187412076Y-57343933D02*
X187412076Y-57201076D01*
X187412076Y-57201076D02*
X187440648Y-57010600D01*
X187440648Y-57010600D02*
X187469219Y-56915362D01*
X187469219Y-56915362D02*
X187526362Y-56820124D01*
X187526362Y-56820124D02*
X187612076Y-56772504D01*
X187612076Y-56772504D02*
X187669219Y-56772504D01*
X187669219Y-56772504D02*
X187754933Y-56820124D01*
X187754933Y-56820124D02*
X187783505Y-56867743D01*
X188040648Y-57391552D02*
X188497791Y-57391552D01*
X188783505Y-57105838D02*
X189240648Y-57391552D01*
X189240648Y-57391552D02*
X188783505Y-57677266D01*
X201119220Y-67932504D02*
X200919220Y-67456314D01*
X200776363Y-67932504D02*
X200776363Y-66932504D01*
X200776363Y-66932504D02*
X201004934Y-66932504D01*
X201004934Y-66932504D02*
X201062077Y-66980124D01*
X201062077Y-66980124D02*
X201090648Y-67027743D01*
X201090648Y-67027743D02*
X201119220Y-67122981D01*
X201119220Y-67122981D02*
X201119220Y-67265838D01*
X201119220Y-67265838D02*
X201090648Y-67361076D01*
X201090648Y-67361076D02*
X201062077Y-67408695D01*
X201062077Y-67408695D02*
X201004934Y-67456314D01*
X201004934Y-67456314D02*
X200776363Y-67456314D01*
X201490648Y-66932504D02*
X201604934Y-66932504D01*
X201604934Y-66932504D02*
X201662077Y-66980124D01*
X201662077Y-66980124D02*
X201719220Y-67075362D01*
X201719220Y-67075362D02*
X201747791Y-67265838D01*
X201747791Y-67265838D02*
X201747791Y-67599171D01*
X201747791Y-67599171D02*
X201719220Y-67789647D01*
X201719220Y-67789647D02*
X201662077Y-67884885D01*
X201662077Y-67884885D02*
X201604934Y-67932504D01*
X201604934Y-67932504D02*
X201490648Y-67932504D01*
X201490648Y-67932504D02*
X201433506Y-67884885D01*
X201433506Y-67884885D02*
X201376363Y-67789647D01*
X201376363Y-67789647D02*
X201347791Y-67599171D01*
X201347791Y-67599171D02*
X201347791Y-67265838D01*
X201347791Y-67265838D02*
X201376363Y-67075362D01*
X201376363Y-67075362D02*
X201433506Y-66980124D01*
X201433506Y-66980124D02*
X201490648Y-66932504D01*
X201947791Y-66932504D02*
X202090648Y-67932504D01*
X202090648Y-67932504D02*
X202204934Y-67218219D01*
X202204934Y-67218219D02*
X202319219Y-67932504D01*
X202319219Y-67932504D02*
X202462077Y-66932504D01*
X202804933Y-66932504D02*
X202862076Y-66932504D01*
X202862076Y-66932504D02*
X202919219Y-66980124D01*
X202919219Y-66980124D02*
X202947791Y-67027743D01*
X202947791Y-67027743D02*
X202976362Y-67122981D01*
X202976362Y-67122981D02*
X203004933Y-67313457D01*
X203004933Y-67313457D02*
X203004933Y-67551552D01*
X203004933Y-67551552D02*
X202976362Y-67742028D01*
X202976362Y-67742028D02*
X202947791Y-67837266D01*
X202947791Y-67837266D02*
X202919219Y-67884885D01*
X202919219Y-67884885D02*
X202862076Y-67932504D01*
X202862076Y-67932504D02*
X202804933Y-67932504D01*
X202804933Y-67932504D02*
X202747791Y-67884885D01*
X202747791Y-67884885D02*
X202719219Y-67837266D01*
X202719219Y-67837266D02*
X202690648Y-67742028D01*
X202690648Y-67742028D02*
X202662076Y-67551552D01*
X202662076Y-67551552D02*
X202662076Y-67313457D01*
X202662076Y-67313457D02*
X202690648Y-67122981D01*
X202690648Y-67122981D02*
X202719219Y-67027743D01*
X202719219Y-67027743D02*
X202747791Y-66980124D01*
X202747791Y-66980124D02*
X202804933Y-66932504D01*
X203262077Y-67551552D02*
X203719220Y-67551552D01*
X204004934Y-67265838D02*
X204462077Y-67551552D01*
X204462077Y-67551552D02*
X204004934Y-67837266D01*
%TO.C,J4*%
X203626043Y-47316418D02*
X203711757Y-47359275D01*
X203711757Y-47359275D02*
X203740328Y-47402132D01*
X203740328Y-47402132D02*
X203768900Y-47487846D01*
X203768900Y-47487846D02*
X203768900Y-47616418D01*
X203768900Y-47616418D02*
X203740328Y-47702132D01*
X203740328Y-47702132D02*
X203711757Y-47744989D01*
X203711757Y-47744989D02*
X203654614Y-47787846D01*
X203654614Y-47787846D02*
X203426043Y-47787846D01*
X203426043Y-47787846D02*
X203426043Y-46887846D01*
X203426043Y-46887846D02*
X203626043Y-46887846D01*
X203626043Y-46887846D02*
X203683186Y-46930704D01*
X203683186Y-46930704D02*
X203711757Y-46973561D01*
X203711757Y-46973561D02*
X203740328Y-47059275D01*
X203740328Y-47059275D02*
X203740328Y-47144989D01*
X203740328Y-47144989D02*
X203711757Y-47230704D01*
X203711757Y-47230704D02*
X203683186Y-47273561D01*
X203683186Y-47273561D02*
X203626043Y-47316418D01*
X203626043Y-47316418D02*
X203426043Y-47316418D01*
X204283186Y-47787846D02*
X204283186Y-47316418D01*
X204283186Y-47316418D02*
X204254614Y-47230704D01*
X204254614Y-47230704D02*
X204197471Y-47187846D01*
X204197471Y-47187846D02*
X204083186Y-47187846D01*
X204083186Y-47187846D02*
X204026043Y-47230704D01*
X204283186Y-47744989D02*
X204226043Y-47787846D01*
X204226043Y-47787846D02*
X204083186Y-47787846D01*
X204083186Y-47787846D02*
X204026043Y-47744989D01*
X204026043Y-47744989D02*
X203997471Y-47659275D01*
X203997471Y-47659275D02*
X203997471Y-47573561D01*
X203997471Y-47573561D02*
X204026043Y-47487846D01*
X204026043Y-47487846D02*
X204083186Y-47444989D01*
X204083186Y-47444989D02*
X204226043Y-47444989D01*
X204226043Y-47444989D02*
X204283186Y-47402132D01*
X204483185Y-47187846D02*
X204711757Y-47187846D01*
X204568900Y-46887846D02*
X204568900Y-47659275D01*
X204568900Y-47659275D02*
X204597471Y-47744989D01*
X204597471Y-47744989D02*
X204654614Y-47787846D01*
X204654614Y-47787846D02*
X204711757Y-47787846D01*
X204768900Y-47873561D02*
X205226042Y-47873561D01*
X205368900Y-47787846D02*
X205368900Y-46887846D01*
X205368900Y-46887846D02*
X205711757Y-47787846D01*
X205711757Y-47787846D02*
X205711757Y-46887846D01*
X206226042Y-47744989D02*
X206168899Y-47787846D01*
X206168899Y-47787846D02*
X206054614Y-47787846D01*
X206054614Y-47787846D02*
X205997471Y-47744989D01*
X205997471Y-47744989D02*
X205968899Y-47659275D01*
X205968899Y-47659275D02*
X205968899Y-47316418D01*
X205968899Y-47316418D02*
X205997471Y-47230704D01*
X205997471Y-47230704D02*
X206054614Y-47187846D01*
X206054614Y-47187846D02*
X206168899Y-47187846D01*
X206168899Y-47187846D02*
X206226042Y-47230704D01*
X206226042Y-47230704D02*
X206254614Y-47316418D01*
X206254614Y-47316418D02*
X206254614Y-47402132D01*
X206254614Y-47402132D02*
X205968899Y-47487846D01*
X206768900Y-47187846D02*
X206768900Y-47916418D01*
X206768900Y-47916418D02*
X206740328Y-48002132D01*
X206740328Y-48002132D02*
X206711757Y-48044989D01*
X206711757Y-48044989D02*
X206654614Y-48087846D01*
X206654614Y-48087846D02*
X206568900Y-48087846D01*
X206568900Y-48087846D02*
X206511757Y-48044989D01*
X206768900Y-47744989D02*
X206711757Y-47787846D01*
X206711757Y-47787846D02*
X206597471Y-47787846D01*
X206597471Y-47787846D02*
X206540328Y-47744989D01*
X206540328Y-47744989D02*
X206511757Y-47702132D01*
X206511757Y-47702132D02*
X206483185Y-47616418D01*
X206483185Y-47616418D02*
X206483185Y-47359275D01*
X206483185Y-47359275D02*
X206511757Y-47273561D01*
X206511757Y-47273561D02*
X206540328Y-47230704D01*
X206540328Y-47230704D02*
X206597471Y-47187846D01*
X206597471Y-47187846D02*
X206711757Y-47187846D01*
X206711757Y-47187846D02*
X206768900Y-47230704D01*
%TO.C,J1*%
X202985650Y-83902873D02*
X203071365Y-83950492D01*
X203071365Y-83950492D02*
X203214222Y-83950492D01*
X203214222Y-83950492D02*
X203271365Y-83902873D01*
X203271365Y-83902873D02*
X203299936Y-83855254D01*
X203299936Y-83855254D02*
X203328507Y-83760016D01*
X203328507Y-83760016D02*
X203328507Y-83664778D01*
X203328507Y-83664778D02*
X203299936Y-83569540D01*
X203299936Y-83569540D02*
X203271365Y-83521921D01*
X203271365Y-83521921D02*
X203214222Y-83474302D01*
X203214222Y-83474302D02*
X203099936Y-83426683D01*
X203099936Y-83426683D02*
X203042793Y-83379064D01*
X203042793Y-83379064D02*
X203014222Y-83331445D01*
X203014222Y-83331445D02*
X202985650Y-83236207D01*
X202985650Y-83236207D02*
X202985650Y-83140969D01*
X202985650Y-83140969D02*
X203014222Y-83045731D01*
X203014222Y-83045731D02*
X203042793Y-82998112D01*
X203042793Y-82998112D02*
X203099936Y-82950492D01*
X203099936Y-82950492D02*
X203242793Y-82950492D01*
X203242793Y-82950492D02*
X203328507Y-82998112D01*
X203928508Y-83855254D02*
X203899936Y-83902873D01*
X203899936Y-83902873D02*
X203814222Y-83950492D01*
X203814222Y-83950492D02*
X203757079Y-83950492D01*
X203757079Y-83950492D02*
X203671365Y-83902873D01*
X203671365Y-83902873D02*
X203614222Y-83807635D01*
X203614222Y-83807635D02*
X203585651Y-83712397D01*
X203585651Y-83712397D02*
X203557079Y-83521921D01*
X203557079Y-83521921D02*
X203557079Y-83379064D01*
X203557079Y-83379064D02*
X203585651Y-83188588D01*
X203585651Y-83188588D02*
X203614222Y-83093350D01*
X203614222Y-83093350D02*
X203671365Y-82998112D01*
X203671365Y-82998112D02*
X203757079Y-82950492D01*
X203757079Y-82950492D02*
X203814222Y-82950492D01*
X203814222Y-82950492D02*
X203899936Y-82998112D01*
X203899936Y-82998112D02*
X203928508Y-83045731D01*
X204471365Y-83950492D02*
X204185651Y-83950492D01*
X204185651Y-83950492D02*
X204185651Y-82950492D01*
X208366127Y-82998112D02*
X208308985Y-82950492D01*
X208308985Y-82950492D02*
X208223270Y-82950492D01*
X208223270Y-82950492D02*
X208137556Y-82998112D01*
X208137556Y-82998112D02*
X208080413Y-83093350D01*
X208080413Y-83093350D02*
X208051842Y-83188588D01*
X208051842Y-83188588D02*
X208023270Y-83379064D01*
X208023270Y-83379064D02*
X208023270Y-83521921D01*
X208023270Y-83521921D02*
X208051842Y-83712397D01*
X208051842Y-83712397D02*
X208080413Y-83807635D01*
X208080413Y-83807635D02*
X208137556Y-83902873D01*
X208137556Y-83902873D02*
X208223270Y-83950492D01*
X208223270Y-83950492D02*
X208280413Y-83950492D01*
X208280413Y-83950492D02*
X208366127Y-83902873D01*
X208366127Y-83902873D02*
X208394699Y-83855254D01*
X208394699Y-83855254D02*
X208394699Y-83521921D01*
X208394699Y-83521921D02*
X208280413Y-83521921D01*
X208651842Y-83950492D02*
X208651842Y-82950492D01*
X208651842Y-82950492D02*
X208994699Y-83950492D01*
X208994699Y-83950492D02*
X208994699Y-82950492D01*
X209280413Y-83950492D02*
X209280413Y-82950492D01*
X209280413Y-82950492D02*
X209423270Y-82950492D01*
X209423270Y-82950492D02*
X209508984Y-82998112D01*
X209508984Y-82998112D02*
X209566127Y-83093350D01*
X209566127Y-83093350D02*
X209594698Y-83188588D01*
X209594698Y-83188588D02*
X209623270Y-83379064D01*
X209623270Y-83379064D02*
X209623270Y-83521921D01*
X209623270Y-83521921D02*
X209594698Y-83712397D01*
X209594698Y-83712397D02*
X209566127Y-83807635D01*
X209566127Y-83807635D02*
X209508984Y-83902873D01*
X209508984Y-83902873D02*
X209423270Y-83950492D01*
X209423270Y-83950492D02*
X209280413Y-83950492D01*
X197943269Y-82950492D02*
X198143269Y-83950492D01*
X198143269Y-83950492D02*
X198343269Y-82950492D01*
X198886127Y-83855254D02*
X198857555Y-83902873D01*
X198857555Y-83902873D02*
X198771841Y-83950492D01*
X198771841Y-83950492D02*
X198714698Y-83950492D01*
X198714698Y-83950492D02*
X198628984Y-83902873D01*
X198628984Y-83902873D02*
X198571841Y-83807635D01*
X198571841Y-83807635D02*
X198543270Y-83712397D01*
X198543270Y-83712397D02*
X198514698Y-83521921D01*
X198514698Y-83521921D02*
X198514698Y-83379064D01*
X198514698Y-83379064D02*
X198543270Y-83188588D01*
X198543270Y-83188588D02*
X198571841Y-83093350D01*
X198571841Y-83093350D02*
X198628984Y-82998112D01*
X198628984Y-82998112D02*
X198714698Y-82950492D01*
X198714698Y-82950492D02*
X198771841Y-82950492D01*
X198771841Y-82950492D02*
X198857555Y-82998112D01*
X198857555Y-82998112D02*
X198886127Y-83045731D01*
X199486127Y-83855254D02*
X199457555Y-83902873D01*
X199457555Y-83902873D02*
X199371841Y-83950492D01*
X199371841Y-83950492D02*
X199314698Y-83950492D01*
X199314698Y-83950492D02*
X199228984Y-83902873D01*
X199228984Y-83902873D02*
X199171841Y-83807635D01*
X199171841Y-83807635D02*
X199143270Y-83712397D01*
X199143270Y-83712397D02*
X199114698Y-83521921D01*
X199114698Y-83521921D02*
X199114698Y-83379064D01*
X199114698Y-83379064D02*
X199143270Y-83188588D01*
X199143270Y-83188588D02*
X199171841Y-83093350D01*
X199171841Y-83093350D02*
X199228984Y-82998112D01*
X199228984Y-82998112D02*
X199314698Y-82950492D01*
X199314698Y-82950492D02*
X199371841Y-82950492D01*
X199371841Y-82950492D02*
X199457555Y-82998112D01*
X199457555Y-82998112D02*
X199486127Y-83045731D01*
X205768745Y-82998112D02*
X205711603Y-82950492D01*
X205711603Y-82950492D02*
X205625888Y-82950492D01*
X205625888Y-82950492D02*
X205540174Y-82998112D01*
X205540174Y-82998112D02*
X205483031Y-83093350D01*
X205483031Y-83093350D02*
X205454460Y-83188588D01*
X205454460Y-83188588D02*
X205425888Y-83379064D01*
X205425888Y-83379064D02*
X205425888Y-83521921D01*
X205425888Y-83521921D02*
X205454460Y-83712397D01*
X205454460Y-83712397D02*
X205483031Y-83807635D01*
X205483031Y-83807635D02*
X205540174Y-83902873D01*
X205540174Y-83902873D02*
X205625888Y-83950492D01*
X205625888Y-83950492D02*
X205683031Y-83950492D01*
X205683031Y-83950492D02*
X205768745Y-83902873D01*
X205768745Y-83902873D02*
X205797317Y-83855254D01*
X205797317Y-83855254D02*
X205797317Y-83521921D01*
X205797317Y-83521921D02*
X205683031Y-83521921D01*
X206054460Y-83950492D02*
X206054460Y-82950492D01*
X206054460Y-82950492D02*
X206397317Y-83950492D01*
X206397317Y-83950492D02*
X206397317Y-82950492D01*
X206683031Y-83950492D02*
X206683031Y-82950492D01*
X206683031Y-82950492D02*
X206825888Y-82950492D01*
X206825888Y-82950492D02*
X206911602Y-82998112D01*
X206911602Y-82998112D02*
X206968745Y-83093350D01*
X206968745Y-83093350D02*
X206997316Y-83188588D01*
X206997316Y-83188588D02*
X207025888Y-83379064D01*
X207025888Y-83379064D02*
X207025888Y-83521921D01*
X207025888Y-83521921D02*
X206997316Y-83712397D01*
X206997316Y-83712397D02*
X206968745Y-83807635D01*
X206968745Y-83807635D02*
X206911602Y-83902873D01*
X206911602Y-83902873D02*
X206825888Y-83950492D01*
X206825888Y-83950492D02*
X206683031Y-83950492D01*
X200504936Y-83902873D02*
X200590651Y-83950492D01*
X200590651Y-83950492D02*
X200733508Y-83950492D01*
X200733508Y-83950492D02*
X200790651Y-83902873D01*
X200790651Y-83902873D02*
X200819222Y-83855254D01*
X200819222Y-83855254D02*
X200847793Y-83760016D01*
X200847793Y-83760016D02*
X200847793Y-83664778D01*
X200847793Y-83664778D02*
X200819222Y-83569540D01*
X200819222Y-83569540D02*
X200790651Y-83521921D01*
X200790651Y-83521921D02*
X200733508Y-83474302D01*
X200733508Y-83474302D02*
X200619222Y-83426683D01*
X200619222Y-83426683D02*
X200562079Y-83379064D01*
X200562079Y-83379064D02*
X200533508Y-83331445D01*
X200533508Y-83331445D02*
X200504936Y-83236207D01*
X200504936Y-83236207D02*
X200504936Y-83140969D01*
X200504936Y-83140969D02*
X200533508Y-83045731D01*
X200533508Y-83045731D02*
X200562079Y-82998112D01*
X200562079Y-82998112D02*
X200619222Y-82950492D01*
X200619222Y-82950492D02*
X200762079Y-82950492D01*
X200762079Y-82950492D02*
X200847793Y-82998112D01*
X201104937Y-83950492D02*
X201104937Y-82950492D01*
X201104937Y-82950492D02*
X201247794Y-82950492D01*
X201247794Y-82950492D02*
X201333508Y-82998112D01*
X201333508Y-82998112D02*
X201390651Y-83093350D01*
X201390651Y-83093350D02*
X201419222Y-83188588D01*
X201419222Y-83188588D02*
X201447794Y-83379064D01*
X201447794Y-83379064D02*
X201447794Y-83521921D01*
X201447794Y-83521921D02*
X201419222Y-83712397D01*
X201419222Y-83712397D02*
X201390651Y-83807635D01*
X201390651Y-83807635D02*
X201333508Y-83902873D01*
X201333508Y-83902873D02*
X201247794Y-83950492D01*
X201247794Y-83950492D02*
X201104937Y-83950492D01*
X201676365Y-83664778D02*
X201962080Y-83664778D01*
X201619222Y-83950492D02*
X201819222Y-82950492D01*
X201819222Y-82950492D02*
X202019222Y-83950492D01*
%TO.C,C1*%
X198512566Y-49548943D02*
X198483994Y-49591800D01*
X198483994Y-49591800D02*
X198398280Y-49634657D01*
X198398280Y-49634657D02*
X198341137Y-49634657D01*
X198341137Y-49634657D02*
X198255423Y-49591800D01*
X198255423Y-49591800D02*
X198198280Y-49506086D01*
X198198280Y-49506086D02*
X198169709Y-49420372D01*
X198169709Y-49420372D02*
X198141137Y-49248943D01*
X198141137Y-49248943D02*
X198141137Y-49120372D01*
X198141137Y-49120372D02*
X198169709Y-48948943D01*
X198169709Y-48948943D02*
X198198280Y-48863229D01*
X198198280Y-48863229D02*
X198255423Y-48777515D01*
X198255423Y-48777515D02*
X198341137Y-48734657D01*
X198341137Y-48734657D02*
X198398280Y-48734657D01*
X198398280Y-48734657D02*
X198483994Y-48777515D01*
X198483994Y-48777515D02*
X198512566Y-48820372D01*
X199083994Y-49634657D02*
X198741137Y-49634657D01*
X198912566Y-49634657D02*
X198912566Y-48734657D01*
X198912566Y-48734657D02*
X198855423Y-48863229D01*
X198855423Y-48863229D02*
X198798280Y-48948943D01*
X198798280Y-48948943D02*
X198741137Y-48991800D01*
%TO.C,SW1*%
X209760889Y-118704022D02*
X209284699Y-119037355D01*
X209760889Y-119275450D02*
X208760889Y-119275450D01*
X208760889Y-119275450D02*
X208760889Y-118894498D01*
X208760889Y-118894498D02*
X208808509Y-118799260D01*
X208808509Y-118799260D02*
X208856128Y-118751641D01*
X208856128Y-118751641D02*
X208951366Y-118704022D01*
X208951366Y-118704022D02*
X209094223Y-118704022D01*
X209094223Y-118704022D02*
X209189461Y-118751641D01*
X209189461Y-118751641D02*
X209237080Y-118799260D01*
X209237080Y-118799260D02*
X209284699Y-118894498D01*
X209284699Y-118894498D02*
X209284699Y-119275450D01*
X209713270Y-117894498D02*
X209760889Y-117989736D01*
X209760889Y-117989736D02*
X209760889Y-118180212D01*
X209760889Y-118180212D02*
X209713270Y-118275450D01*
X209713270Y-118275450D02*
X209618032Y-118323069D01*
X209618032Y-118323069D02*
X209237080Y-118323069D01*
X209237080Y-118323069D02*
X209141842Y-118275450D01*
X209141842Y-118275450D02*
X209094223Y-118180212D01*
X209094223Y-118180212D02*
X209094223Y-117989736D01*
X209094223Y-117989736D02*
X209141842Y-117894498D01*
X209141842Y-117894498D02*
X209237080Y-117846879D01*
X209237080Y-117846879D02*
X209332318Y-117846879D01*
X209332318Y-117846879D02*
X209427556Y-118323069D01*
X209713270Y-117465926D02*
X209760889Y-117370688D01*
X209760889Y-117370688D02*
X209760889Y-117180212D01*
X209760889Y-117180212D02*
X209713270Y-117084974D01*
X209713270Y-117084974D02*
X209618032Y-117037355D01*
X209618032Y-117037355D02*
X209570413Y-117037355D01*
X209570413Y-117037355D02*
X209475175Y-117084974D01*
X209475175Y-117084974D02*
X209427556Y-117180212D01*
X209427556Y-117180212D02*
X209427556Y-117323069D01*
X209427556Y-117323069D02*
X209379937Y-117418307D01*
X209379937Y-117418307D02*
X209284699Y-117465926D01*
X209284699Y-117465926D02*
X209237080Y-117465926D01*
X209237080Y-117465926D02*
X209141842Y-117418307D01*
X209141842Y-117418307D02*
X209094223Y-117323069D01*
X209094223Y-117323069D02*
X209094223Y-117180212D01*
X209094223Y-117180212D02*
X209141842Y-117084974D01*
X209713270Y-116227831D02*
X209760889Y-116323069D01*
X209760889Y-116323069D02*
X209760889Y-116513545D01*
X209760889Y-116513545D02*
X209713270Y-116608783D01*
X209713270Y-116608783D02*
X209618032Y-116656402D01*
X209618032Y-116656402D02*
X209237080Y-116656402D01*
X209237080Y-116656402D02*
X209141842Y-116608783D01*
X209141842Y-116608783D02*
X209094223Y-116513545D01*
X209094223Y-116513545D02*
X209094223Y-116323069D01*
X209094223Y-116323069D02*
X209141842Y-116227831D01*
X209141842Y-116227831D02*
X209237080Y-116180212D01*
X209237080Y-116180212D02*
X209332318Y-116180212D01*
X209332318Y-116180212D02*
X209427556Y-116656402D01*
X209094223Y-115894497D02*
X209094223Y-115513545D01*
X208760889Y-115751640D02*
X209618032Y-115751640D01*
X209618032Y-115751640D02*
X209713270Y-115704021D01*
X209713270Y-115704021D02*
X209760889Y-115608783D01*
X209760889Y-115608783D02*
X209760889Y-115513545D01*
%TO.C,SW2*%
X211199000Y-96502657D02*
X211348597Y-96485440D01*
X211348597Y-96485440D02*
X211411880Y-96508473D01*
X211411880Y-96508473D02*
X211495287Y-96574664D01*
X211495287Y-96574664D02*
X211555661Y-96704136D01*
X211555661Y-96704136D02*
X211552752Y-96810576D01*
X211552752Y-96810576D02*
X211529720Y-96873858D01*
X211529720Y-96873858D02*
X211463529Y-96957265D01*
X211463529Y-96957265D02*
X211118269Y-97118262D01*
X211118269Y-97118262D02*
X210695651Y-96211954D01*
X210695651Y-96211954D02*
X210997753Y-96071082D01*
X210997753Y-96071082D02*
X211104193Y-96073990D01*
X211104193Y-96073990D02*
X211167475Y-96097023D01*
X211167475Y-96097023D02*
X211250882Y-96163213D01*
X211250882Y-96163213D02*
X211291132Y-96249528D01*
X211291132Y-96249528D02*
X211288223Y-96355968D01*
X211288223Y-96355968D02*
X211265191Y-96419250D01*
X211265191Y-96419250D02*
X211199000Y-96502657D01*
X211199000Y-96502657D02*
X210896898Y-96643530D01*
X212412995Y-96514522D02*
X212191623Y-96039789D01*
X212191623Y-96039789D02*
X212108216Y-95973599D01*
X212108216Y-95973599D02*
X212001776Y-95970691D01*
X212001776Y-95970691D02*
X211829146Y-96051189D01*
X211829146Y-96051189D02*
X211762956Y-96134596D01*
X212392870Y-96471364D02*
X212326679Y-96554771D01*
X212326679Y-96554771D02*
X212110892Y-96655395D01*
X212110892Y-96655395D02*
X212004452Y-96652486D01*
X212004452Y-96652486D02*
X211921045Y-96586296D01*
X211921045Y-96586296D02*
X211880796Y-96499981D01*
X211880796Y-96499981D02*
X211883704Y-96393541D01*
X211883704Y-96393541D02*
X211949894Y-96310135D01*
X211949894Y-96310135D02*
X212165682Y-96209511D01*
X212165682Y-96209511D02*
X212231872Y-96126104D01*
X212433352Y-95769444D02*
X212778612Y-95608446D01*
X212421951Y-95406967D02*
X212784196Y-96183803D01*
X212784196Y-96183803D02*
X212867603Y-96249993D01*
X212867603Y-96249993D02*
X212974042Y-96252901D01*
X212974042Y-96252901D02*
X213060357Y-96212652D01*
X212951242Y-95527948D02*
X213296502Y-95366950D01*
X212939842Y-95165471D02*
X213302086Y-95942306D01*
X213302086Y-95942306D02*
X213385493Y-96008497D01*
X213385493Y-96008497D02*
X213491933Y-96011405D01*
X213491933Y-96011405D02*
X213578248Y-95971155D01*
D10*
X212700397Y-93250851D02*
X212780896Y-93423481D01*
X212780896Y-93423481D02*
X212777988Y-93529920D01*
X212777988Y-93529920D02*
X212731922Y-93656485D01*
X212731922Y-93656485D02*
X212579417Y-93780141D01*
X212579417Y-93780141D02*
X212277314Y-93921014D01*
X212277314Y-93921014D02*
X212084559Y-93958355D01*
X212084559Y-93958355D02*
X211957995Y-93912289D01*
X211957995Y-93912289D02*
X211874588Y-93846099D01*
X211874588Y-93846099D02*
X211794089Y-93673469D01*
X211794089Y-93673469D02*
X211796998Y-93567029D01*
X211796998Y-93567029D02*
X211843063Y-93440465D01*
X211843063Y-93440465D02*
X211995569Y-93316808D01*
X211995569Y-93316808D02*
X212297671Y-93175936D01*
X212297671Y-93175936D02*
X212490426Y-93138594D01*
X212490426Y-93138594D02*
X212616990Y-93184660D01*
X212616990Y-93184660D02*
X212700397Y-93250851D01*
X212156334Y-94450304D02*
X213062641Y-94027686D01*
X213062641Y-94027686D02*
X212397830Y-94968194D01*
X212397830Y-94968194D02*
X213304138Y-94545576D01*
D11*
%TO.C,J3*%
X188760648Y-47286687D02*
X188846362Y-47334306D01*
X188846362Y-47334306D02*
X188874933Y-47381925D01*
X188874933Y-47381925D02*
X188903505Y-47477163D01*
X188903505Y-47477163D02*
X188903505Y-47620020D01*
X188903505Y-47620020D02*
X188874933Y-47715258D01*
X188874933Y-47715258D02*
X188846362Y-47762877D01*
X188846362Y-47762877D02*
X188789219Y-47810496D01*
X188789219Y-47810496D02*
X188560648Y-47810496D01*
X188560648Y-47810496D02*
X188560648Y-46810496D01*
X188560648Y-46810496D02*
X188760648Y-46810496D01*
X188760648Y-46810496D02*
X188817791Y-46858116D01*
X188817791Y-46858116D02*
X188846362Y-46905735D01*
X188846362Y-46905735D02*
X188874933Y-47000973D01*
X188874933Y-47000973D02*
X188874933Y-47096211D01*
X188874933Y-47096211D02*
X188846362Y-47191449D01*
X188846362Y-47191449D02*
X188817791Y-47239068D01*
X188817791Y-47239068D02*
X188760648Y-47286687D01*
X188760648Y-47286687D02*
X188560648Y-47286687D01*
X189417791Y-47810496D02*
X189417791Y-47286687D01*
X189417791Y-47286687D02*
X189389219Y-47191449D01*
X189389219Y-47191449D02*
X189332076Y-47143830D01*
X189332076Y-47143830D02*
X189217791Y-47143830D01*
X189217791Y-47143830D02*
X189160648Y-47191449D01*
X189417791Y-47762877D02*
X189360648Y-47810496D01*
X189360648Y-47810496D02*
X189217791Y-47810496D01*
X189217791Y-47810496D02*
X189160648Y-47762877D01*
X189160648Y-47762877D02*
X189132076Y-47667639D01*
X189132076Y-47667639D02*
X189132076Y-47572401D01*
X189132076Y-47572401D02*
X189160648Y-47477163D01*
X189160648Y-47477163D02*
X189217791Y-47429544D01*
X189217791Y-47429544D02*
X189360648Y-47429544D01*
X189360648Y-47429544D02*
X189417791Y-47381925D01*
X189617790Y-47143830D02*
X189846362Y-47143830D01*
X189703505Y-46810496D02*
X189703505Y-47667639D01*
X189703505Y-47667639D02*
X189732076Y-47762877D01*
X189732076Y-47762877D02*
X189789219Y-47810496D01*
X189789219Y-47810496D02*
X189846362Y-47810496D01*
X189903505Y-47905735D02*
X190360647Y-47905735D01*
X190503505Y-47810496D02*
X190503505Y-46810496D01*
X190503505Y-46810496D02*
X190732076Y-46810496D01*
X190732076Y-46810496D02*
X190789219Y-46858116D01*
X190789219Y-46858116D02*
X190817790Y-46905735D01*
X190817790Y-46905735D02*
X190846362Y-47000973D01*
X190846362Y-47000973D02*
X190846362Y-47143830D01*
X190846362Y-47143830D02*
X190817790Y-47239068D01*
X190817790Y-47239068D02*
X190789219Y-47286687D01*
X190789219Y-47286687D02*
X190732076Y-47334306D01*
X190732076Y-47334306D02*
X190503505Y-47334306D01*
X191189219Y-47810496D02*
X191132076Y-47762877D01*
X191132076Y-47762877D02*
X191103505Y-47715258D01*
X191103505Y-47715258D02*
X191074933Y-47620020D01*
X191074933Y-47620020D02*
X191074933Y-47334306D01*
X191074933Y-47334306D02*
X191103505Y-47239068D01*
X191103505Y-47239068D02*
X191132076Y-47191449D01*
X191132076Y-47191449D02*
X191189219Y-47143830D01*
X191189219Y-47143830D02*
X191274933Y-47143830D01*
X191274933Y-47143830D02*
X191332076Y-47191449D01*
X191332076Y-47191449D02*
X191360648Y-47239068D01*
X191360648Y-47239068D02*
X191389219Y-47334306D01*
X191389219Y-47334306D02*
X191389219Y-47620020D01*
X191389219Y-47620020D02*
X191360648Y-47715258D01*
X191360648Y-47715258D02*
X191332076Y-47762877D01*
X191332076Y-47762877D02*
X191274933Y-47810496D01*
X191274933Y-47810496D02*
X191189219Y-47810496D01*
X191617790Y-47762877D02*
X191674933Y-47810496D01*
X191674933Y-47810496D02*
X191789219Y-47810496D01*
X191789219Y-47810496D02*
X191846362Y-47762877D01*
X191846362Y-47762877D02*
X191874933Y-47667639D01*
X191874933Y-47667639D02*
X191874933Y-47620020D01*
X191874933Y-47620020D02*
X191846362Y-47524782D01*
X191846362Y-47524782D02*
X191789219Y-47477163D01*
X191789219Y-47477163D02*
X191703505Y-47477163D01*
X191703505Y-47477163D02*
X191646362Y-47429544D01*
X191646362Y-47429544D02*
X191617790Y-47334306D01*
X191617790Y-47334306D02*
X191617790Y-47286687D01*
X191617790Y-47286687D02*
X191646362Y-47191449D01*
X191646362Y-47191449D02*
X191703505Y-47143830D01*
X191703505Y-47143830D02*
X191789219Y-47143830D01*
X191789219Y-47143830D02*
X191846362Y-47191449D01*
%TO.C,J5*%
X187254614Y-81766419D02*
X187340328Y-81809276D01*
X187340328Y-81809276D02*
X187368899Y-81852133D01*
X187368899Y-81852133D02*
X187397471Y-81937847D01*
X187397471Y-81937847D02*
X187397471Y-82066419D01*
X187397471Y-82066419D02*
X187368899Y-82152133D01*
X187368899Y-82152133D02*
X187340328Y-82194990D01*
X187340328Y-82194990D02*
X187283185Y-82237847D01*
X187283185Y-82237847D02*
X187054614Y-82237847D01*
X187054614Y-82237847D02*
X187054614Y-81337847D01*
X187054614Y-81337847D02*
X187254614Y-81337847D01*
X187254614Y-81337847D02*
X187311757Y-81380705D01*
X187311757Y-81380705D02*
X187340328Y-81423562D01*
X187340328Y-81423562D02*
X187368899Y-81509276D01*
X187368899Y-81509276D02*
X187368899Y-81594990D01*
X187368899Y-81594990D02*
X187340328Y-81680705D01*
X187340328Y-81680705D02*
X187311757Y-81723562D01*
X187311757Y-81723562D02*
X187254614Y-81766419D01*
X187254614Y-81766419D02*
X187054614Y-81766419D01*
X187911757Y-82237847D02*
X187911757Y-81766419D01*
X187911757Y-81766419D02*
X187883185Y-81680705D01*
X187883185Y-81680705D02*
X187826042Y-81637847D01*
X187826042Y-81637847D02*
X187711757Y-81637847D01*
X187711757Y-81637847D02*
X187654614Y-81680705D01*
X187911757Y-82194990D02*
X187854614Y-82237847D01*
X187854614Y-82237847D02*
X187711757Y-82237847D01*
X187711757Y-82237847D02*
X187654614Y-82194990D01*
X187654614Y-82194990D02*
X187626042Y-82109276D01*
X187626042Y-82109276D02*
X187626042Y-82023562D01*
X187626042Y-82023562D02*
X187654614Y-81937847D01*
X187654614Y-81937847D02*
X187711757Y-81894990D01*
X187711757Y-81894990D02*
X187854614Y-81894990D01*
X187854614Y-81894990D02*
X187911757Y-81852133D01*
X188111756Y-81637847D02*
X188340328Y-81637847D01*
X188197471Y-81337847D02*
X188197471Y-82109276D01*
X188197471Y-82109276D02*
X188226042Y-82194990D01*
X188226042Y-82194990D02*
X188283185Y-82237847D01*
X188283185Y-82237847D02*
X188340328Y-82237847D01*
X188397471Y-82323562D02*
X188854613Y-82323562D01*
X188997471Y-82237847D02*
X188997471Y-81337847D01*
X188997471Y-81337847D02*
X189226042Y-81337847D01*
X189226042Y-81337847D02*
X189283185Y-81380705D01*
X189283185Y-81380705D02*
X189311756Y-81423562D01*
X189311756Y-81423562D02*
X189340328Y-81509276D01*
X189340328Y-81509276D02*
X189340328Y-81637847D01*
X189340328Y-81637847D02*
X189311756Y-81723562D01*
X189311756Y-81723562D02*
X189283185Y-81766419D01*
X189283185Y-81766419D02*
X189226042Y-81809276D01*
X189226042Y-81809276D02*
X188997471Y-81809276D01*
X189683185Y-82237847D02*
X189626042Y-82194990D01*
X189626042Y-82194990D02*
X189597471Y-82152133D01*
X189597471Y-82152133D02*
X189568899Y-82066419D01*
X189568899Y-82066419D02*
X189568899Y-81809276D01*
X189568899Y-81809276D02*
X189597471Y-81723562D01*
X189597471Y-81723562D02*
X189626042Y-81680705D01*
X189626042Y-81680705D02*
X189683185Y-81637847D01*
X189683185Y-81637847D02*
X189768899Y-81637847D01*
X189768899Y-81637847D02*
X189826042Y-81680705D01*
X189826042Y-81680705D02*
X189854614Y-81723562D01*
X189854614Y-81723562D02*
X189883185Y-81809276D01*
X189883185Y-81809276D02*
X189883185Y-82066419D01*
X189883185Y-82066419D02*
X189854614Y-82152133D01*
X189854614Y-82152133D02*
X189826042Y-82194990D01*
X189826042Y-82194990D02*
X189768899Y-82237847D01*
X189768899Y-82237847D02*
X189683185Y-82237847D01*
X190111756Y-82194990D02*
X190168899Y-82237847D01*
X190168899Y-82237847D02*
X190283185Y-82237847D01*
X190283185Y-82237847D02*
X190340328Y-82194990D01*
X190340328Y-82194990D02*
X190368899Y-82109276D01*
X190368899Y-82109276D02*
X190368899Y-82066419D01*
X190368899Y-82066419D02*
X190340328Y-81980705D01*
X190340328Y-81980705D02*
X190283185Y-81937847D01*
X190283185Y-81937847D02*
X190197471Y-81937847D01*
X190197471Y-81937847D02*
X190140328Y-81894990D01*
X190140328Y-81894990D02*
X190111756Y-81809276D01*
X190111756Y-81809276D02*
X190111756Y-81766419D01*
X190111756Y-81766419D02*
X190140328Y-81680705D01*
X190140328Y-81680705D02*
X190197471Y-81637847D01*
X190197471Y-81637847D02*
X190283185Y-81637847D01*
X190283185Y-81637847D02*
X190340328Y-81680705D01*
%TO.C,JP2*%
X167960889Y-73191217D02*
X167960889Y-73667407D01*
X167960889Y-73667407D02*
X166960889Y-73667407D01*
X167913270Y-72476931D02*
X167960889Y-72572169D01*
X167960889Y-72572169D02*
X167960889Y-72762645D01*
X167960889Y-72762645D02*
X167913270Y-72857883D01*
X167913270Y-72857883D02*
X167818032Y-72905502D01*
X167818032Y-72905502D02*
X167437080Y-72905502D01*
X167437080Y-72905502D02*
X167341842Y-72857883D01*
X167341842Y-72857883D02*
X167294223Y-72762645D01*
X167294223Y-72762645D02*
X167294223Y-72572169D01*
X167294223Y-72572169D02*
X167341842Y-72476931D01*
X167341842Y-72476931D02*
X167437080Y-72429312D01*
X167437080Y-72429312D02*
X167532318Y-72429312D01*
X167532318Y-72429312D02*
X167627556Y-72905502D01*
X167294223Y-72143597D02*
X167294223Y-71762645D01*
X167960889Y-72000740D02*
X167103747Y-72000740D01*
X167103747Y-72000740D02*
X167008509Y-71953121D01*
X167008509Y-71953121D02*
X166960889Y-71857883D01*
X166960889Y-71857883D02*
X166960889Y-71762645D01*
X167294223Y-71572168D02*
X167294223Y-71191216D01*
X166960889Y-71429311D02*
X167818032Y-71429311D01*
X167818032Y-71429311D02*
X167913270Y-71381692D01*
X167913270Y-71381692D02*
X167960889Y-71286454D01*
X167960889Y-71286454D02*
X167960889Y-71191216D01*
X168056128Y-71095978D02*
X168056128Y-70334073D01*
X167437080Y-69762644D02*
X167484699Y-69619787D01*
X167484699Y-69619787D02*
X167532318Y-69572168D01*
X167532318Y-69572168D02*
X167627556Y-69524549D01*
X167627556Y-69524549D02*
X167770413Y-69524549D01*
X167770413Y-69524549D02*
X167865651Y-69572168D01*
X167865651Y-69572168D02*
X167913270Y-69619787D01*
X167913270Y-69619787D02*
X167960889Y-69715025D01*
X167960889Y-69715025D02*
X167960889Y-70095977D01*
X167960889Y-70095977D02*
X166960889Y-70095977D01*
X166960889Y-70095977D02*
X166960889Y-69762644D01*
X166960889Y-69762644D02*
X167008509Y-69667406D01*
X167008509Y-69667406D02*
X167056128Y-69619787D01*
X167056128Y-69619787D02*
X167151366Y-69572168D01*
X167151366Y-69572168D02*
X167246604Y-69572168D01*
X167246604Y-69572168D02*
X167341842Y-69619787D01*
X167341842Y-69619787D02*
X167389461Y-69667406D01*
X167389461Y-69667406D02*
X167437080Y-69762644D01*
X167437080Y-69762644D02*
X167437080Y-70095977D01*
X167960889Y-68953120D02*
X167913270Y-69048358D01*
X167913270Y-69048358D02*
X167865651Y-69095977D01*
X167865651Y-69095977D02*
X167770413Y-69143596D01*
X167770413Y-69143596D02*
X167484699Y-69143596D01*
X167484699Y-69143596D02*
X167389461Y-69095977D01*
X167389461Y-69095977D02*
X167341842Y-69048358D01*
X167341842Y-69048358D02*
X167294223Y-68953120D01*
X167294223Y-68953120D02*
X167294223Y-68810263D01*
X167294223Y-68810263D02*
X167341842Y-68715025D01*
X167341842Y-68715025D02*
X167389461Y-68667406D01*
X167389461Y-68667406D02*
X167484699Y-68619787D01*
X167484699Y-68619787D02*
X167770413Y-68619787D01*
X167770413Y-68619787D02*
X167865651Y-68667406D01*
X167865651Y-68667406D02*
X167913270Y-68715025D01*
X167913270Y-68715025D02*
X167960889Y-68810263D01*
X167960889Y-68810263D02*
X167960889Y-68953120D01*
X167960889Y-67762644D02*
X167437080Y-67762644D01*
X167437080Y-67762644D02*
X167341842Y-67810263D01*
X167341842Y-67810263D02*
X167294223Y-67905501D01*
X167294223Y-67905501D02*
X167294223Y-68095977D01*
X167294223Y-68095977D02*
X167341842Y-68191215D01*
X167913270Y-67762644D02*
X167960889Y-67857882D01*
X167960889Y-67857882D02*
X167960889Y-68095977D01*
X167960889Y-68095977D02*
X167913270Y-68191215D01*
X167913270Y-68191215D02*
X167818032Y-68238834D01*
X167818032Y-68238834D02*
X167722794Y-68238834D01*
X167722794Y-68238834D02*
X167627556Y-68191215D01*
X167627556Y-68191215D02*
X167579937Y-68095977D01*
X167579937Y-68095977D02*
X167579937Y-67857882D01*
X167579937Y-67857882D02*
X167532318Y-67762644D01*
X167960889Y-67286453D02*
X167294223Y-67286453D01*
X167484699Y-67286453D02*
X167389461Y-67238834D01*
X167389461Y-67238834D02*
X167341842Y-67191215D01*
X167341842Y-67191215D02*
X167294223Y-67095977D01*
X167294223Y-67095977D02*
X167294223Y-67000739D01*
X167960889Y-66238834D02*
X166960889Y-66238834D01*
X167913270Y-66238834D02*
X167960889Y-66334072D01*
X167960889Y-66334072D02*
X167960889Y-66524548D01*
X167960889Y-66524548D02*
X167913270Y-66619786D01*
X167913270Y-66619786D02*
X167865651Y-66667405D01*
X167865651Y-66667405D02*
X167770413Y-66715024D01*
X167770413Y-66715024D02*
X167484699Y-66715024D01*
X167484699Y-66715024D02*
X167389461Y-66667405D01*
X167389461Y-66667405D02*
X167341842Y-66619786D01*
X167341842Y-66619786D02*
X167294223Y-66524548D01*
X167294223Y-66524548D02*
X167294223Y-66334072D01*
X167294223Y-66334072D02*
X167341842Y-66238834D01*
%TO.C,J6*%
X205526041Y-81666419D02*
X205611755Y-81709276D01*
X205611755Y-81709276D02*
X205640326Y-81752133D01*
X205640326Y-81752133D02*
X205668898Y-81837847D01*
X205668898Y-81837847D02*
X205668898Y-81966419D01*
X205668898Y-81966419D02*
X205640326Y-82052133D01*
X205640326Y-82052133D02*
X205611755Y-82094990D01*
X205611755Y-82094990D02*
X205554612Y-82137847D01*
X205554612Y-82137847D02*
X205326041Y-82137847D01*
X205326041Y-82137847D02*
X205326041Y-81237847D01*
X205326041Y-81237847D02*
X205526041Y-81237847D01*
X205526041Y-81237847D02*
X205583184Y-81280705D01*
X205583184Y-81280705D02*
X205611755Y-81323562D01*
X205611755Y-81323562D02*
X205640326Y-81409276D01*
X205640326Y-81409276D02*
X205640326Y-81494990D01*
X205640326Y-81494990D02*
X205611755Y-81580705D01*
X205611755Y-81580705D02*
X205583184Y-81623562D01*
X205583184Y-81623562D02*
X205526041Y-81666419D01*
X205526041Y-81666419D02*
X205326041Y-81666419D01*
X206183184Y-82137847D02*
X206183184Y-81666419D01*
X206183184Y-81666419D02*
X206154612Y-81580705D01*
X206154612Y-81580705D02*
X206097469Y-81537847D01*
X206097469Y-81537847D02*
X205983184Y-81537847D01*
X205983184Y-81537847D02*
X205926041Y-81580705D01*
X206183184Y-82094990D02*
X206126041Y-82137847D01*
X206126041Y-82137847D02*
X205983184Y-82137847D01*
X205983184Y-82137847D02*
X205926041Y-82094990D01*
X205926041Y-82094990D02*
X205897469Y-82009276D01*
X205897469Y-82009276D02*
X205897469Y-81923562D01*
X205897469Y-81923562D02*
X205926041Y-81837847D01*
X205926041Y-81837847D02*
X205983184Y-81794990D01*
X205983184Y-81794990D02*
X206126041Y-81794990D01*
X206126041Y-81794990D02*
X206183184Y-81752133D01*
X206383183Y-81537847D02*
X206611755Y-81537847D01*
X206468898Y-81237847D02*
X206468898Y-82009276D01*
X206468898Y-82009276D02*
X206497469Y-82094990D01*
X206497469Y-82094990D02*
X206554612Y-82137847D01*
X206554612Y-82137847D02*
X206611755Y-82137847D01*
X206668898Y-82223562D02*
X207126040Y-82223562D01*
X207268898Y-82137847D02*
X207268898Y-81237847D01*
X207268898Y-81237847D02*
X207611755Y-82137847D01*
X207611755Y-82137847D02*
X207611755Y-81237847D01*
X208126040Y-82094990D02*
X208068897Y-82137847D01*
X208068897Y-82137847D02*
X207954612Y-82137847D01*
X207954612Y-82137847D02*
X207897469Y-82094990D01*
X207897469Y-82094990D02*
X207868897Y-82009276D01*
X207868897Y-82009276D02*
X207868897Y-81666419D01*
X207868897Y-81666419D02*
X207897469Y-81580705D01*
X207897469Y-81580705D02*
X207954612Y-81537847D01*
X207954612Y-81537847D02*
X208068897Y-81537847D01*
X208068897Y-81537847D02*
X208126040Y-81580705D01*
X208126040Y-81580705D02*
X208154612Y-81666419D01*
X208154612Y-81666419D02*
X208154612Y-81752133D01*
X208154612Y-81752133D02*
X207868897Y-81837847D01*
X208668898Y-81537847D02*
X208668898Y-82266419D01*
X208668898Y-82266419D02*
X208640326Y-82352133D01*
X208640326Y-82352133D02*
X208611755Y-82394990D01*
X208611755Y-82394990D02*
X208554612Y-82437847D01*
X208554612Y-82437847D02*
X208468898Y-82437847D01*
X208468898Y-82437847D02*
X208411755Y-82394990D01*
X208668898Y-82094990D02*
X208611755Y-82137847D01*
X208611755Y-82137847D02*
X208497469Y-82137847D01*
X208497469Y-82137847D02*
X208440326Y-82094990D01*
X208440326Y-82094990D02*
X208411755Y-82052133D01*
X208411755Y-82052133D02*
X208383183Y-81966419D01*
X208383183Y-81966419D02*
X208383183Y-81709276D01*
X208383183Y-81709276D02*
X208411755Y-81623562D01*
X208411755Y-81623562D02*
X208440326Y-81580705D01*
X208440326Y-81580705D02*
X208497469Y-81537847D01*
X208497469Y-81537847D02*
X208611755Y-81537847D01*
X208611755Y-81537847D02*
X208668898Y-81580705D01*
%TO.C,C3*%
X185512564Y-84048943D02*
X185483992Y-84091800D01*
X185483992Y-84091800D02*
X185398278Y-84134657D01*
X185398278Y-84134657D02*
X185341135Y-84134657D01*
X185341135Y-84134657D02*
X185255421Y-84091800D01*
X185255421Y-84091800D02*
X185198278Y-84006086D01*
X185198278Y-84006086D02*
X185169707Y-83920372D01*
X185169707Y-83920372D02*
X185141135Y-83748943D01*
X185141135Y-83748943D02*
X185141135Y-83620372D01*
X185141135Y-83620372D02*
X185169707Y-83448943D01*
X185169707Y-83448943D02*
X185198278Y-83363229D01*
X185198278Y-83363229D02*
X185255421Y-83277515D01*
X185255421Y-83277515D02*
X185341135Y-83234657D01*
X185341135Y-83234657D02*
X185398278Y-83234657D01*
X185398278Y-83234657D02*
X185483992Y-83277515D01*
X185483992Y-83277515D02*
X185512564Y-83320372D01*
X185712564Y-83234657D02*
X186083992Y-83234657D01*
X186083992Y-83234657D02*
X185883992Y-83577515D01*
X185883992Y-83577515D02*
X185969707Y-83577515D01*
X185969707Y-83577515D02*
X186026850Y-83620372D01*
X186026850Y-83620372D02*
X186055421Y-83663229D01*
X186055421Y-83663229D02*
X186083992Y-83748943D01*
X186083992Y-83748943D02*
X186083992Y-83963229D01*
X186083992Y-83963229D02*
X186055421Y-84048943D01*
X186055421Y-84048943D02*
X186026850Y-84091800D01*
X186026850Y-84091800D02*
X185969707Y-84134657D01*
X185969707Y-84134657D02*
X185798278Y-84134657D01*
X185798278Y-84134657D02*
X185741135Y-84091800D01*
X185741135Y-84091800D02*
X185712564Y-84048943D01*
%TO.C,C2*%
X185512563Y-91548940D02*
X185483991Y-91591797D01*
X185483991Y-91591797D02*
X185398277Y-91634654D01*
X185398277Y-91634654D02*
X185341134Y-91634654D01*
X185341134Y-91634654D02*
X185255420Y-91591797D01*
X185255420Y-91591797D02*
X185198277Y-91506083D01*
X185198277Y-91506083D02*
X185169706Y-91420369D01*
X185169706Y-91420369D02*
X185141134Y-91248940D01*
X185141134Y-91248940D02*
X185141134Y-91120369D01*
X185141134Y-91120369D02*
X185169706Y-90948940D01*
X185169706Y-90948940D02*
X185198277Y-90863226D01*
X185198277Y-90863226D02*
X185255420Y-90777512D01*
X185255420Y-90777512D02*
X185341134Y-90734654D01*
X185341134Y-90734654D02*
X185398277Y-90734654D01*
X185398277Y-90734654D02*
X185483991Y-90777512D01*
X185483991Y-90777512D02*
X185512563Y-90820369D01*
X185741134Y-90820369D02*
X185769706Y-90777512D01*
X185769706Y-90777512D02*
X185826849Y-90734654D01*
X185826849Y-90734654D02*
X185969706Y-90734654D01*
X185969706Y-90734654D02*
X186026849Y-90777512D01*
X186026849Y-90777512D02*
X186055420Y-90820369D01*
X186055420Y-90820369D02*
X186083991Y-90906083D01*
X186083991Y-90906083D02*
X186083991Y-90991797D01*
X186083991Y-90991797D02*
X186055420Y-91120369D01*
X186055420Y-91120369D02*
X185712563Y-91634654D01*
X185712563Y-91634654D02*
X186083991Y-91634654D01*
%TO.C,U2*%
X184381600Y-85733307D02*
X184381600Y-86542831D01*
X184381600Y-86542831D02*
X184429219Y-86638069D01*
X184429219Y-86638069D02*
X184476838Y-86685688D01*
X184476838Y-86685688D02*
X184572076Y-86733307D01*
X184572076Y-86733307D02*
X184762552Y-86733307D01*
X184762552Y-86733307D02*
X184857790Y-86685688D01*
X184857790Y-86685688D02*
X184905409Y-86638069D01*
X184905409Y-86638069D02*
X184953028Y-86542831D01*
X184953028Y-86542831D02*
X184953028Y-85733307D01*
X185381600Y-85828546D02*
X185429219Y-85780927D01*
X185429219Y-85780927D02*
X185524457Y-85733307D01*
X185524457Y-85733307D02*
X185762552Y-85733307D01*
X185762552Y-85733307D02*
X185857790Y-85780927D01*
X185857790Y-85780927D02*
X185905409Y-85828546D01*
X185905409Y-85828546D02*
X185953028Y-85923784D01*
X185953028Y-85923784D02*
X185953028Y-86019022D01*
X185953028Y-86019022D02*
X185905409Y-86161879D01*
X185905409Y-86161879D02*
X185333981Y-86733307D01*
X185333981Y-86733307D02*
X185953028Y-86733307D01*
%TO.C,D3*%
G36*
X179365093Y-97771646D02*
G01*
X178785537Y-97616355D01*
X178940829Y-97036799D01*
X179365093Y-97771646D01*
G37*
D13*
X179365093Y-97771646D02*
X178785537Y-97616355D01*
X178940829Y-97036799D01*
X179365093Y-97771646D01*
%TO.C,D2*%
G36*
X195075549Y-106009558D02*
G01*
X194555934Y-105709558D01*
X194855934Y-105189943D01*
X195075549Y-106009558D01*
G37*
X195075549Y-106009558D02*
X194555934Y-105709558D01*
X194855934Y-105189943D01*
X195075549Y-106009558D01*
D11*
%TO.C,J2*%
X202763505Y-112803118D02*
X202763505Y-106803118D01*
X214763505Y-112803118D02*
X202763505Y-112803118D01*
D14*
X214763505Y-111803118D02*
X215763505Y-111803118D01*
X215763505Y-111803118D02*
X215763505Y-107803118D01*
X215763505Y-107803118D02*
X214863505Y-107803118D01*
D11*
X202763505Y-106803118D02*
X214763505Y-106803118D01*
X214763505Y-106803118D02*
X214763505Y-112803118D01*
%TO.C,U1*%
X189449905Y-48515124D02*
X191989905Y-48515124D01*
X189449905Y-78995124D02*
X189449905Y-48515124D01*
X191989905Y-48515124D02*
X191989905Y-78995124D01*
X191989905Y-78995124D02*
X189449905Y-78995124D01*
X204669905Y-48515124D02*
X207209905Y-48515124D01*
X204669905Y-78995124D02*
X204669905Y-48515124D01*
X207209905Y-48515124D02*
X207209905Y-78995124D01*
X207209905Y-78995124D02*
X204669905Y-78995124D01*
D15*
%TO.C,H1*%
X132007375Y-55395070D02*
G75*
G03*
X130973509Y-59545618I19286116J-7008044D01*
G01*
X130973508Y-65260618D02*
G75*
G03*
X132007374Y-69411165I20319953J2857490D01*
G01*
X148436008Y-42083119D02*
G75*
G03*
X144285460Y-43116985I2857496J-20319982D01*
G01*
X144285462Y-81689253D02*
G75*
G03*
X148436008Y-82723118I7008046J19286135D01*
G01*
X151293508Y-51608119D02*
G75*
G03*
X150165123Y-51667255I-6J-10794920D01*
G01*
X152421893Y-51667255D02*
G75*
G03*
X151293508Y-51608118I-1128385J-10735763D01*
G01*
X150165123Y-73138982D02*
G75*
G03*
X151293508Y-73198118I1128379J10735785D01*
G01*
X151293508Y-73198118D02*
G75*
G03*
X152421893Y-73138981I0J10794900D01*
G01*
X158301555Y-43116984D02*
G75*
G03*
X154151008Y-42083118I-7008047J-19286134D01*
G01*
X154151008Y-82723117D02*
G75*
G03*
X158301555Y-81689251I-2857500J20319999D01*
G01*
X171613508Y-59545618D02*
G75*
G03*
X170579643Y-55395073I-20320019J-2857506D01*
G01*
X170579642Y-69411164D02*
G75*
G03*
X171613507Y-65260618I-19286184J7008058D01*
G01*
D14*
%TO.C,D7*%
X99560716Y-63545221D02*
X99935796Y-65672406D01*
X99560716Y-63545221D02*
X100476587Y-63383728D01*
X102672709Y-62996493D02*
X102926235Y-64434312D01*
X102672709Y-62996493D02*
X101756837Y-63157986D01*
%TO.C,D13*%
X107114407Y-106384352D02*
X107489487Y-108511537D01*
X107114407Y-106384352D02*
X108030278Y-106222859D01*
X110226400Y-105835624D02*
X110479926Y-107273443D01*
X110226400Y-105835624D02*
X109310528Y-105997117D01*
%TO.C,D8*%
X119183369Y-47753789D02*
X119371625Y-49905570D01*
X119183369Y-47753789D02*
X120109830Y-47672734D01*
X122331344Y-47478377D02*
X122458592Y-48932821D01*
X122331344Y-47478377D02*
X121404883Y-47559432D01*
%TO.C,D10*%
X102521417Y-80336187D02*
X102896497Y-82463372D01*
X102521417Y-80336187D02*
X103437288Y-80174694D01*
X105633410Y-79787459D02*
X105886936Y-81225278D01*
X105633410Y-79787459D02*
X104717538Y-79948952D01*
%TO.C,D11*%
X120665024Y-64689095D02*
X120853280Y-66840876D01*
X120665024Y-64689095D02*
X121591485Y-64608040D01*
X123812999Y-64413683D02*
X123940247Y-65868127D01*
X123812999Y-64413683D02*
X122886538Y-64494738D01*
%TO.C,D14*%
X122146674Y-81624404D02*
X122334930Y-83776185D01*
X122146674Y-81624404D02*
X123073135Y-81543349D01*
X125294649Y-81348992D02*
X125421897Y-82803436D01*
X125294649Y-81348992D02*
X124368188Y-81430047D01*
%TO.C,D9*%
X158703509Y-45983114D02*
X158703509Y-48143114D01*
X158703509Y-45983114D02*
X159633509Y-45983114D01*
X161863509Y-45983114D02*
X161863509Y-47443114D01*
X161863509Y-45983114D02*
X160933509Y-45983114D01*
%TO.C,D12*%
X158703509Y-62983112D02*
X158703509Y-65143112D01*
X158703509Y-62983112D02*
X159633509Y-62983112D01*
X161863509Y-62983112D02*
X161863509Y-64443112D01*
X161863509Y-62983112D02*
X160933509Y-62983112D01*
%TO.C,D15*%
X158703510Y-79983112D02*
X158703510Y-82143112D01*
X158703510Y-79983112D02*
X159633510Y-79983112D01*
X161863510Y-79983112D02*
X161863510Y-81443112D01*
X161863510Y-79983112D02*
X160933510Y-79983112D01*
%TO.C,K20*%
X141957381Y-98365637D02*
X142557381Y-98365637D01*
X142257381Y-98665637D02*
X141957381Y-98365637D01*
X142557381Y-98365637D02*
X142257381Y-98665637D01*
%TO.C,D20*%
X166847604Y-108726597D02*
X166288555Y-110812997D01*
X166847604Y-108726597D02*
X167745915Y-108967299D01*
X169899929Y-109544465D02*
X169522053Y-110954717D01*
X169899929Y-109544465D02*
X169001618Y-109303764D01*
%TO.C,D21*%
X199520623Y-126803136D02*
X197993273Y-128330487D01*
X199520623Y-126803136D02*
X200178233Y-127460745D01*
X201755081Y-129037594D02*
X200722705Y-130069969D01*
X201755081Y-129037594D02*
X201097472Y-128379984D01*
%TO.C,D19*%
X163613506Y-93983122D02*
X163613506Y-96143122D01*
X163613506Y-93983122D02*
X164543506Y-93983122D01*
X166773506Y-93983122D02*
X166773506Y-95443122D01*
X166773506Y-93983122D02*
X165843506Y-93983122D01*
%TO.C,K19*%
X200966783Y-105721308D02*
X200447168Y-105421308D01*
X200856976Y-105311501D02*
X200966783Y-105721308D01*
X200447168Y-105421308D02*
X200856976Y-105311501D01*
%TO.C,D4*%
G36*
X157440842Y-92559037D02*
G01*
X156840842Y-92559037D01*
X156840842Y-91959037D01*
X157440842Y-92559037D01*
G37*
D13*
X157440842Y-92559037D02*
X156840842Y-92559037D01*
X156840842Y-91959037D01*
X157440842Y-92559037D01*
%TO.C,D1*%
G36*
X200509830Y-89523074D02*
G01*
X199990215Y-89223074D01*
X200290215Y-88703459D01*
X200509830Y-89523074D01*
G37*
X200509830Y-89523074D02*
X199990215Y-89223074D01*
X200290215Y-88703459D01*
X200509830Y-89523074D01*
D11*
%TO.C,J4*%
X201083509Y-46733110D02*
X201083509Y-48733110D01*
X201083509Y-48733110D02*
X203083509Y-48733110D01*
X203083509Y-46733110D02*
X201083509Y-46733110D01*
X203083509Y-48733110D02*
X203083509Y-46733110D01*
D14*
%TO.C,R2*%
X208418508Y-71190183D02*
X208418508Y-70736055D01*
X209888508Y-71190183D02*
X209888508Y-70736055D01*
%TO.C,J1*%
X197343508Y-83840612D02*
X197343508Y-86500612D01*
X207563508Y-83840612D02*
X207563508Y-86500612D01*
X207563508Y-86500612D02*
X197343508Y-86500612D01*
X208833508Y-86500612D02*
X210163508Y-86500612D01*
X210163508Y-85170612D02*
X210163508Y-86500612D01*
%TO.C,C1*%
X197522260Y-46928121D02*
X198044764Y-46928121D01*
X197522260Y-48398121D02*
X198044764Y-48398121D01*
%TO.C,SW1*%
X214023508Y-120263112D02*
X211943508Y-120263112D01*
X210263508Y-118993112D02*
X210753508Y-119483112D01*
X210263508Y-118993112D02*
X210263508Y-116093112D01*
X215703508Y-118993112D02*
X215213508Y-119483112D01*
X215703508Y-118993112D02*
X215703508Y-116093112D01*
X210263508Y-116093112D02*
X210753508Y-115603112D01*
X215703508Y-116093112D02*
X215213508Y-115603112D01*
X214023508Y-114823112D02*
X211943508Y-114823112D01*
%TO.C,R1*%
X208393510Y-77290174D02*
X208393510Y-76836046D01*
X209863510Y-77290174D02*
X209863510Y-76836046D01*
D11*
%TO.C,J3*%
X192183505Y-46733116D02*
X192183505Y-48733116D01*
X192183505Y-48733116D02*
X194183505Y-48733116D01*
X194183505Y-46733116D02*
X192183505Y-46733116D01*
X194183505Y-48733116D02*
X194183505Y-46733116D01*
%TO.C,J5*%
X190633512Y-80863120D02*
X190633512Y-82863120D01*
X190633512Y-82863120D02*
X192633512Y-82863120D01*
X192633512Y-80863120D02*
X190633512Y-80863120D01*
X192633512Y-82863120D02*
X192633512Y-80863120D01*
D14*
%TO.C,JP2*%
X170283509Y-68518121D02*
X170283509Y-71318121D01*
X168283509Y-68518121D02*
X170283509Y-68518121D01*
X170283509Y-71318121D02*
X168283509Y-71318121D01*
X168283509Y-71318121D02*
X168283509Y-68518121D01*
D11*
%TO.C,J6*%
X205043507Y-82863118D02*
X205043507Y-80863118D01*
X205043507Y-80863118D02*
X203043507Y-80863118D01*
X203043507Y-82863118D02*
X205043507Y-82863118D01*
X203043507Y-80863118D02*
X203043507Y-82863118D01*
D14*
%TO.C,C3*%
X188079590Y-83682978D02*
X188602094Y-83682978D01*
X188079590Y-85152978D02*
X188602094Y-85152978D01*
%TO.C,C2*%
X188079590Y-89882975D02*
X188602094Y-89882975D01*
X188079590Y-91352975D02*
X188602094Y-91352975D01*
%TO.C,U2*%
X187440837Y-89127976D02*
X189240837Y-89127976D01*
X189240837Y-85907976D02*
X186290837Y-85907976D01*
%TD*%
D16*
%TO.C,J2*%
X206263505Y-109803118D03*
X213263505Y-109803118D03*
X206263505Y-108053118D03*
X213263505Y-108053118D03*
%TD*%
D17*
%TO.C,J4*%
X202083509Y-47733110D03*
%TD*%
D18*
%TO.C,J3*%
X193183504Y-47733115D03*
%TD*%
D17*
%TO.C,J5*%
X191633512Y-81863120D03*
%TD*%
%TO.C,J6*%
X204043507Y-81863118D03*
%TD*%
%LPC*%
D19*
X137693514Y-90407295D02*
X137693514Y-88607295D01*
X137693514Y-89464438D02*
X138607800Y-89464438D01*
X138607800Y-90407295D02*
X138607800Y-88607295D01*
X139369704Y-90407295D02*
X139369704Y-89207295D01*
X139369704Y-88607295D02*
X139293513Y-88693010D01*
X139293513Y-88693010D02*
X139369704Y-88778724D01*
X139369704Y-88778724D02*
X139445894Y-88693010D01*
X139445894Y-88693010D02*
X139369704Y-88607295D01*
X139369704Y-88607295D02*
X139369704Y-88778724D01*
X140360180Y-90407295D02*
X140207799Y-90321581D01*
X140207799Y-90321581D02*
X140131609Y-90150152D01*
X140131609Y-90150152D02*
X140131609Y-88607295D01*
X141198275Y-90407295D02*
X141045894Y-90321581D01*
X141045894Y-90321581D02*
X140969704Y-90150152D01*
X140969704Y-90150152D02*
X140969704Y-88607295D01*
X141731608Y-90321581D02*
X141883989Y-90407295D01*
X141883989Y-90407295D02*
X142188751Y-90407295D01*
X142188751Y-90407295D02*
X142341132Y-90321581D01*
X142341132Y-90321581D02*
X142417323Y-90150152D01*
X142417323Y-90150152D02*
X142417323Y-90064438D01*
X142417323Y-90064438D02*
X142341132Y-89893010D01*
X142341132Y-89893010D02*
X142188751Y-89807295D01*
X142188751Y-89807295D02*
X141960180Y-89807295D01*
X141960180Y-89807295D02*
X141807799Y-89721581D01*
X141807799Y-89721581D02*
X141731608Y-89550152D01*
X141731608Y-89550152D02*
X141731608Y-89464438D01*
X141731608Y-89464438D02*
X141807799Y-89293010D01*
X141807799Y-89293010D02*
X141960180Y-89207295D01*
X141960180Y-89207295D02*
X142188751Y-89207295D01*
X142188751Y-89207295D02*
X142341132Y-89293010D01*
X143103037Y-90407295D02*
X143103037Y-89207295D01*
X143103037Y-88607295D02*
X143026846Y-88693010D01*
X143026846Y-88693010D02*
X143103037Y-88778724D01*
X143103037Y-88778724D02*
X143179227Y-88693010D01*
X143179227Y-88693010D02*
X143103037Y-88607295D01*
X143103037Y-88607295D02*
X143103037Y-88778724D01*
X144550656Y-90407295D02*
X144550656Y-88607295D01*
X144550656Y-90321581D02*
X144398275Y-90407295D01*
X144398275Y-90407295D02*
X144093513Y-90407295D01*
X144093513Y-90407295D02*
X143941132Y-90321581D01*
X143941132Y-90321581D02*
X143864942Y-90235867D01*
X143864942Y-90235867D02*
X143788751Y-90064438D01*
X143788751Y-90064438D02*
X143788751Y-89550152D01*
X143788751Y-89550152D02*
X143864942Y-89378724D01*
X143864942Y-89378724D02*
X143941132Y-89293010D01*
X143941132Y-89293010D02*
X144093513Y-89207295D01*
X144093513Y-89207295D02*
X144398275Y-89207295D01*
X144398275Y-89207295D02*
X144550656Y-89293010D01*
X145922085Y-90321581D02*
X145769704Y-90407295D01*
X145769704Y-90407295D02*
X145464942Y-90407295D01*
X145464942Y-90407295D02*
X145312561Y-90321581D01*
X145312561Y-90321581D02*
X145236370Y-90150152D01*
X145236370Y-90150152D02*
X145236370Y-89464438D01*
X145236370Y-89464438D02*
X145312561Y-89293010D01*
X145312561Y-89293010D02*
X145464942Y-89207295D01*
X145464942Y-89207295D02*
X145769704Y-89207295D01*
X145769704Y-89207295D02*
X145922085Y-89293010D01*
X145922085Y-89293010D02*
X145998275Y-89464438D01*
X145998275Y-89464438D02*
X145998275Y-89635867D01*
X145998275Y-89635867D02*
X145236370Y-89807295D01*
X140299228Y-92123295D02*
X140299228Y-93323295D01*
X139918276Y-91437581D02*
X139537323Y-92723295D01*
X139537323Y-92723295D02*
X140527800Y-92723295D01*
X141823038Y-91523295D02*
X141518276Y-91523295D01*
X141518276Y-91523295D02*
X141365895Y-91609010D01*
X141365895Y-91609010D02*
X141289705Y-91694724D01*
X141289705Y-91694724D02*
X141137324Y-91951867D01*
X141137324Y-91951867D02*
X141061133Y-92294724D01*
X141061133Y-92294724D02*
X141061133Y-92980438D01*
X141061133Y-92980438D02*
X141137324Y-93151867D01*
X141137324Y-93151867D02*
X141213514Y-93237581D01*
X141213514Y-93237581D02*
X141365895Y-93323295D01*
X141365895Y-93323295D02*
X141670657Y-93323295D01*
X141670657Y-93323295D02*
X141823038Y-93237581D01*
X141823038Y-93237581D02*
X141899229Y-93151867D01*
X141899229Y-93151867D02*
X141975419Y-92980438D01*
X141975419Y-92980438D02*
X141975419Y-92551867D01*
X141975419Y-92551867D02*
X141899229Y-92380438D01*
X141899229Y-92380438D02*
X141823038Y-92294724D01*
X141823038Y-92294724D02*
X141670657Y-92209010D01*
X141670657Y-92209010D02*
X141365895Y-92209010D01*
X141365895Y-92209010D02*
X141213514Y-92294724D01*
X141213514Y-92294724D02*
X141137324Y-92380438D01*
X141137324Y-92380438D02*
X141061133Y-92551867D01*
D20*
%TO.C,D3*%
X173616780Y-98457233D03*
X174005008Y-97008345D03*
D21*
X178979527Y-98341264D03*
D20*
X178591298Y-99790151D03*
%TD*%
D22*
%TO.C,D2*%
X189345662Y-105184012D03*
X190095662Y-103884974D03*
D23*
X194555693Y-106459975D03*
D22*
X193805692Y-107759012D03*
%TD*%
D16*
%TO.C,J2*%
X206263505Y-109803118D03*
X213263505Y-109803118D03*
X206263505Y-108053118D03*
X213263505Y-108053118D03*
D24*
X208463504Y-105953117D03*
X211463504Y-105953117D03*
X202963504Y-110153117D03*
X204463504Y-105953117D03*
%TD*%
D25*
%TO.C,U1*%
X189393505Y-51055124D03*
X189393505Y-53595124D03*
X189393505Y-56135124D03*
X189393505Y-58675124D03*
X189393505Y-61215124D03*
X189393505Y-63755124D03*
X189393505Y-66295124D03*
X189393505Y-68835124D03*
X189393505Y-71375124D03*
X189393505Y-73915124D03*
X189393505Y-76455124D03*
X189393505Y-78995124D03*
X204633505Y-78995124D03*
X204633505Y-76455124D03*
X204633505Y-73915124D03*
X204633505Y-71375124D03*
X204633505Y-68835124D03*
X204633505Y-66295124D03*
X204633505Y-63755124D03*
X204633505Y-61215124D03*
X204633505Y-58675124D03*
X204633505Y-56135124D03*
X204633505Y-53595124D03*
X204633505Y-51055124D03*
%TD*%
D26*
%TO.C,H1*%
X132243508Y-62403118D03*
X151293508Y-43353118D03*
X151293508Y-81453118D03*
X170343508Y-62403118D03*
%TD*%
D27*
%TO.C,D7*%
X100486765Y-65169084D03*
X102357900Y-64839152D03*
X101075036Y-63034502D03*
%TD*%
%TO.C,D13*%
X108040456Y-108008215D03*
X109911591Y-107678283D03*
X108628727Y-105873633D03*
%TD*%
D28*
%TO.C,K14*%
X102561103Y-103135671D03*
D29*
X107977546Y-102180606D03*
D28*
X113393989Y-101225541D03*
D30*
X106953022Y-96370239D03*
X102393644Y-99306577D03*
%TD*%
D31*
%TO.C,D8*%
X119964365Y-49452183D03*
X121857135Y-49286587D03*
X120736438Y-47376995D03*
%TD*%
D27*
%TO.C,D10*%
X103447466Y-81960050D03*
X105318601Y-81630118D03*
X104035737Y-79825468D03*
%TD*%
D28*
%TO.C,K3*%
X126712302Y-52575950D03*
D29*
X121233231Y-53055307D03*
D28*
X115754160Y-53534664D03*
D30*
X121747450Y-58932857D03*
X126545396Y-56405068D03*
%TD*%
D28*
%TO.C,K4*%
X147783511Y-45943114D03*
D29*
X142283511Y-45943114D03*
D28*
X136783511Y-45943114D03*
D30*
X142283511Y-51843115D03*
X147283511Y-49743114D03*
%TD*%
D28*
%TO.C,K8*%
X110441975Y-84483812D03*
D29*
X105025532Y-85438877D03*
D28*
X99609089Y-86393942D03*
D30*
X106050056Y-91249244D03*
X110609434Y-88312906D03*
%TD*%
D31*
%TO.C,D11*%
X121446020Y-66387489D03*
X123338790Y-66221893D03*
X122218093Y-64312301D03*
%TD*%
D28*
%TO.C,K9*%
X128193954Y-69511255D03*
D29*
X122714883Y-69990612D03*
D28*
X117235812Y-70469969D03*
D30*
X123229102Y-75868162D03*
X128027048Y-73340373D03*
%TD*%
D28*
%TO.C,K10*%
X147783502Y-62943116D03*
D29*
X142283502Y-62943116D03*
D28*
X136783502Y-62943116D03*
D30*
X142283502Y-68843117D03*
X147283502Y-66743116D03*
%TD*%
D28*
%TO.C,K15*%
X129675592Y-86446560D03*
D29*
X124196521Y-86925917D03*
D28*
X118717450Y-87405274D03*
D30*
X124710740Y-92803467D03*
X129508686Y-90275678D03*
%TD*%
D28*
%TO.C,K16*%
X147783505Y-79943113D03*
D29*
X142283505Y-79943113D03*
D28*
X136783505Y-79943113D03*
D30*
X142283505Y-85843114D03*
X147283505Y-83743113D03*
%TD*%
D31*
%TO.C,D14*%
X122927670Y-83322798D03*
X124820440Y-83157202D03*
X123699743Y-81247610D03*
%TD*%
D32*
%TO.C,D9*%
X159333508Y-47743113D03*
X161233508Y-47743113D03*
X160283508Y-45743113D03*
%TD*%
%TO.C,D12*%
X159333508Y-64743111D03*
X161233508Y-64743111D03*
X160283508Y-62743111D03*
%TD*%
%TO.C,D15*%
X159333509Y-81743111D03*
X161233509Y-81743111D03*
X160283509Y-79743111D03*
%TD*%
D28*
%TO.C,K5*%
X165783508Y-51443123D03*
D29*
X160283508Y-51443123D03*
D28*
X154783508Y-51443123D03*
D30*
X160283508Y-57343124D03*
X165283508Y-55243123D03*
%TD*%
D28*
%TO.C,K6*%
X183783510Y-53943113D03*
D29*
X178283510Y-53943113D03*
D28*
X172783510Y-53943113D03*
D30*
X178283510Y-59843114D03*
X183283510Y-57743113D03*
%TD*%
D28*
%TO.C,K11*%
X165783498Y-68443118D03*
D29*
X160283498Y-68443118D03*
D28*
X154783498Y-68443118D03*
D30*
X160283498Y-74343119D03*
X165283498Y-72243118D03*
%TD*%
D28*
%TO.C,K12*%
X183783504Y-70943116D03*
D29*
X178283504Y-70943116D03*
D28*
X172783504Y-70943116D03*
D30*
X178283504Y-76843117D03*
X183283504Y-74743116D03*
%TD*%
D28*
%TO.C,K17*%
X165783505Y-85443113D03*
D29*
X160283505Y-85443113D03*
D28*
X154783505Y-85443113D03*
D30*
X160283505Y-91343114D03*
X165283505Y-89243113D03*
%TD*%
D28*
%TO.C,K18*%
X183783506Y-87943113D03*
D29*
X178283506Y-87943113D03*
D28*
X172783506Y-87943113D03*
D30*
X178283506Y-93843114D03*
X183283506Y-91743113D03*
%TD*%
D29*
%TO.C,K20*%
X149757381Y-102465637D03*
D33*
X149757380Y-108065636D03*
D28*
X155257381Y-102465637D03*
D34*
X142257380Y-99965636D03*
D35*
X142257381Y-104965637D03*
X142257381Y-102465637D03*
D36*
X144257381Y-102465637D03*
D30*
X149757381Y-96565637D03*
D35*
X156757381Y-104965637D03*
D30*
X144757381Y-98665637D03*
D35*
X156757381Y-99965637D03*
%TD*%
D28*
%TO.C,K2*%
X107489957Y-67742080D03*
D29*
X102073514Y-68697145D03*
D28*
X96657071Y-69652210D03*
D30*
X103098038Y-74507512D03*
X107657416Y-71571174D03*
%TD*%
D37*
%TO.C,D20*%
X167000614Y-110589682D03*
X168835873Y-111081438D03*
X168435882Y-108903708D03*
%TD*%
D28*
%TO.C,K22*%
X192524929Y-115743035D03*
D29*
X187761789Y-112993035D03*
D28*
X182998649Y-110243035D03*
D30*
X184811789Y-118102586D03*
X190191916Y-118783932D03*
%TD*%
D38*
%TO.C,D21*%
X198721592Y-128493120D03*
X200065095Y-129836623D03*
X200807557Y-127750658D03*
%TD*%
D32*
%TO.C,D19*%
X164243505Y-95743121D03*
X166143505Y-95743121D03*
X165193505Y-93743121D03*
%TD*%
D29*
%TO.C,K19*%
X196261785Y-98270604D03*
D39*
X199061784Y-93420861D03*
D28*
X191498645Y-95520604D03*
D40*
X201506975Y-104185667D03*
D35*
X204006976Y-99855541D03*
X202756976Y-102020604D03*
D36*
X201024925Y-101020604D03*
D30*
X193311785Y-103380154D03*
D35*
X191449607Y-92605541D03*
D30*
X198691912Y-104061501D03*
D35*
X188949607Y-96935668D03*
%TD*%
D28*
%TO.C,K23*%
X199534770Y-121245272D03*
D29*
X203423857Y-125134359D03*
D28*
X207312944Y-129023446D03*
D30*
X207595788Y-120962428D03*
X202575329Y-118911819D03*
%TD*%
D41*
%TO.C,D4*%
X152065841Y-94709036D03*
X152065841Y-93209036D03*
D42*
X157215842Y-93209037D03*
D41*
X157215841Y-94709036D03*
%TD*%
D22*
%TO.C,D1*%
X194779943Y-88697528D03*
X195529943Y-87398490D03*
D23*
X199989974Y-89973491D03*
D22*
X199239973Y-91272528D03*
%TD*%
D17*
%TO.C,J4*%
X202083509Y-47733110D03*
%TD*%
D43*
%TO.C,JP1*%
X210513510Y-60073113D03*
D44*
X210513510Y-61373113D03*
%TD*%
D45*
%TO.C,R2*%
X209153508Y-71875619D03*
D46*
X209153508Y-70050619D03*
%TD*%
D47*
%TO.C,J1*%
X210503508Y-65820612D03*
D48*
X208833507Y-85170611D03*
D49*
X206293507Y-85170611D03*
X203753507Y-85170611D03*
X201213507Y-85170611D03*
X198673507Y-85170611D03*
%TD*%
D50*
%TO.C,C1*%
X196833512Y-47663121D03*
X198733512Y-47663121D03*
%TD*%
D51*
%TO.C,SW1*%
X211133507Y-120643111D03*
D52*
X211133508Y-117543112D03*
D51*
X211133507Y-114443111D03*
X214833507Y-120643111D03*
D52*
X214833508Y-117543112D03*
D51*
X214833507Y-114443111D03*
%TD*%
D53*
%TO.C,SW2*%
X208472369Y-89230020D03*
D54*
X205481553Y-90624661D03*
D53*
X209528915Y-91495790D03*
D54*
X206538099Y-92890430D03*
D53*
X210585461Y-93761559D03*
D54*
X207594645Y-95156200D03*
%TD*%
D55*
%TO.C,H3*%
X126902629Y-107424212D03*
D56*
X127296461Y-106160014D03*
D57*
X130396461Y-104660014D03*
X130396461Y-105170014D03*
D58*
X130596461Y-102810014D03*
D59*
X131146461Y-95660014D03*
D60*
X131696461Y-97310014D03*
D61*
X132096461Y-99310014D03*
X132446461Y-102610014D03*
D62*
X134516461Y-92250014D03*
D61*
X134796461Y-100860014D03*
X135646461Y-97860014D03*
D63*
X136096461Y-100910014D03*
D64*
X136376461Y-90910014D03*
%TD*%
D26*
%TO.C,H4*%
X111635043Y-62505777D03*
%TD*%
%TO.C,H5*%
X118496069Y-103206263D03*
%TD*%
%TO.C,H6*%
X198383507Y-115343125D03*
%TD*%
%TO.C,H7*%
X169283508Y-48443113D03*
%TD*%
D45*
%TO.C,R1*%
X209128510Y-77975610D03*
D46*
X209128510Y-76150610D03*
%TD*%
D18*
%TO.C,J3*%
X193183504Y-47733115D03*
%TD*%
D17*
%TO.C,J5*%
X191633512Y-81863120D03*
%TD*%
D65*
%TO.C,JP2*%
X169283509Y-69193121D03*
D66*
X169283509Y-70643121D03*
%TD*%
D17*
%TO.C,J6*%
X204043507Y-81863118D03*
%TD*%
D50*
%TO.C,C3*%
X187390842Y-84417978D03*
X189290842Y-84417978D03*
%TD*%
%TO.C,C2*%
X187390842Y-90617975D03*
X189290842Y-90617975D03*
%TD*%
D67*
%TO.C,H25*%
X203412559Y-132904012D03*
%TD*%
%TO.C,H23*%
X184012565Y-48704010D03*
%TD*%
D28*
%TO.C,K21*%
X164080912Y-103906271D03*
D29*
X169393504Y-105329776D03*
D28*
X174706096Y-106753281D03*
D30*
X170920537Y-99630813D03*
X165547387Y-100365163D03*
%TD*%
D68*
%TO.C,U2*%
X186990836Y-86567975D03*
X186990836Y-88467975D03*
X189690836Y-88467975D03*
X186990836Y-87517975D03*
X189690836Y-87517975D03*
X189690836Y-86567975D03*
%TD*%
M02*
